{"glyphs":{"0":{"ha":571,"x_min":42,"x_max":528,"o":"m 285 -14 q 407 19 351 -14 q 495 106 463 51 q 528 229 528 161 l 528 743 q 495 866 528 811 q 407 953 463 921 q 285 986 351 986 q 163 953 218 986 q 74 866 107 921 q 42 743 42 811 l 42 229 q 74 106 42 161 q 163 19 107 51 q 285 -14 218 -14 m 285 169 q 259 180 269 169 q 249 204 249 190 l 249 769 q 259 795 249 785 q 285 806 269 806 q 310 795 300 806 q 319 769 319 785 l 319 204 q 310 180 319 190 q 285 169 300 169 "},"1":{"ha":569,"x_min":42,"x_max":528,"o":"m 42 0 l 528 0 l 528 179 l 417 179 l 417 972 l 207 972 l 42 803 l 42 581 l 83 581 l 207 694 l 207 179 l 42 179 l 42 0 "},"2":{"ha":569,"x_min":42,"x_max":528,"o":"m 42 0 l 528 0 l 528 179 l 260 179 q 289 305 260 244 q 368 415 318 365 q 458 514 422 469 q 510 610 493 558 q 528 738 528 663 l 528 743 q 495 866 528 811 q 407 953 463 921 q 285 986 351 986 q 163 953 218 986 q 74 866 107 921 q 42 743 42 811 l 42 642 l 250 642 l 250 758 q 260 782 250 772 q 285 792 271 792 q 308 782 299 792 q 318 758 318 772 l 318 683 q 295 608 318 653 q 208 507 272 564 q 104 388 140 451 q 55 249 68 324 q 42 86 42 175 l 42 0 "},"3":{"ha":569,"x_min":42,"x_max":528,"o":"m 285 -14 q 407 19 351 -14 q 495 110 463 53 q 528 236 528 167 l 528 324 q 515 394 528 358 q 477 458 501 429 q 417 499 453 488 l 417 521 q 498 590 469 540 q 528 694 526 640 l 528 736 q 495 863 528 806 q 407 953 463 919 q 285 986 351 986 q 163 953 218 986 q 74 863 107 919 q 42 736 42 806 l 42 642 l 250 642 l 250 757 q 260 782 250 772 q 285 792 271 792 q 308 781 299 792 q 318 757 318 771 l 318 624 q 308 600 318 610 q 285 590 299 590 l 150 590 l 150 382 l 285 382 q 308 372 299 382 q 318 347 318 361 l 318 214 q 308 190 318 200 q 285 179 299 179 q 260 189 271 179 q 250 213 250 199 l 250 331 l 42 331 l 42 236 q 74 110 42 167 q 163 19 107 53 q 285 -14 218 -14 "},"4":{"ha":542,"x_min":42,"x_max":500,"o":"m 319 0 l 500 0 l 500 608 l 319 608 l 319 408 l 210 408 l 210 429 l 399 951 l 399 972 l 192 972 l 42 408 l 42 200 l 319 200 l 319 0 "},"5":{"ha":569,"x_min":42,"x_max":528,"o":"m 285 -14 q 407 19 351 -14 q 495 106 463 51 q 528 229 528 161 l 528 451 q 515 567 528 511 q 470 658 503 622 q 374 694 438 694 q 315 688 344 694 q 271 657 286 681 l 250 657 l 250 792 l 514 792 l 514 972 l 42 972 l 42 397 l 250 397 l 250 451 q 260 475 250 465 q 285 485 271 485 q 308 475 300 485 q 318 451 318 465 l 318 213 q 308 189 318 199 q 285 179 299 179 q 260 189 271 179 q 250 213 250 199 l 250 314 l 42 314 l 42 229 q 74 106 42 161 q 163 19 107 51 q 285 -14 218 -14 "},"6":{"ha":569,"x_min":42,"x_max":528,"o":"m 285 -14 q 407 19 351 -14 q 495 106 463 51 q 528 229 528 161 l 528 365 q 526 432 528 396 q 512 503 524 468 q 474 568 500 539 q 397 613 447 597 q 358 618 382 618 q 309 610 333 618 q 269 583 285 603 l 249 583 l 249 756 q 259 781 249 771 q 285 792 269 792 q 310 781 300 792 q 319 756 319 771 l 319 694 l 528 694 l 528 742 q 495 865 528 810 q 407 953 463 919 q 285 986 351 986 q 163 953 218 986 q 74 866 107 921 q 42 743 42 811 l 42 229 q 74 106 42 161 q 163 19 107 51 q 285 -14 218 -14 m 285 179 q 259 190 269 179 q 249 214 249 200 l 249 397 q 259 422 249 413 q 285 432 269 432 q 309 422 299 432 q 319 397 319 413 l 319 214 q 310 190 319 200 q 285 179 300 179 "},"7":{"ha":569,"x_min":42,"x_max":528,"o":"m 61 0 l 285 0 l 528 865 l 528 972 l 42 972 l 42 792 l 304 792 l 304 764 l 61 0 "},"8":{"ha":569,"x_min":42,"x_max":528,"o":"m 285 -14 q 407 19 351 -14 q 495 110 463 53 q 528 236 528 167 l 528 363 q 417 540 528 508 l 417 558 q 500 629 472 578 q 528 736 528 681 q 495 863 528 806 q 407 953 463 919 q 285 986 351 986 q 163 953 218 986 q 74 863 107 919 q 42 736 42 806 q 69 628 42 681 q 153 558 96 575 l 153 540 q 69 469 96 522 q 42 363 42 417 l 42 236 q 74 110 42 167 q 163 19 107 53 q 285 -14 218 -14 m 285 663 q 259 674 269 663 q 249 699 249 685 l 249 754 q 259 781 249 769 q 285 792 269 792 q 310 781 300 792 q 319 754 319 769 l 319 699 q 310 674 319 685 q 285 663 300 663 m 285 179 q 259 190 269 179 q 249 215 249 200 l 249 396 q 259 422 249 411 q 285 432 269 432 q 310 421 300 432 q 319 396 319 410 l 319 215 q 310 190 319 200 q 285 179 300 179 "},"9":{"ha":569,"x_min":42,"x_max":528,"o":"m 285 986 q 163 953 218 986 q 75 866 108 921 q 42 743 42 811 l 42 607 q 44 540 42 576 q 58 469 46 504 q 96 404 69 433 q 172 360 122 375 q 212 355 188 356 q 260 363 236 354 q 300 389 285 371 l 321 389 l 321 217 q 310 192 321 203 q 285 181 300 181 q 260 192 271 181 q 250 217 250 203 l 250 278 l 42 278 l 42 231 q 75 108 42 164 q 163 19 108 53 q 285 -14 218 -14 q 408 19 353 -14 q 495 107 463 51 q 528 229 528 163 l 528 743 q 495 866 528 811 q 408 953 463 921 q 285 986 353 986 m 285 793 q 310 783 300 793 q 321 758 321 774 l 321 575 q 310 551 321 561 q 285 540 300 540 q 260 551 271 540 q 250 575 250 561 l 250 758 q 260 783 250 774 q 285 793 271 793 "},"A":{"ha":569,"x_min":42,"x_max":528,"o":"m 42 0 l 238 0 l 247 179 l 321 179 l 333 0 l 528 0 l 410 972 l 160 972 l 42 0 m 258 388 l 274 694 l 297 694 l 311 388 l 258 388 "},"Á":{"ha":1056,"x_min":42,"x_max":1014,"o":"m 807 0 l 1014 0 l 589 972 l 467 972 l 42 0 l 250 0 l 353 250 l 704 250 l 807 0 m 428 432 l 519 653 l 538 653 l 629 432 l 428 432 m 276 1115 l 288 1056 l 779 1146 l 768 1206 l 276 1115 "},"Ă":{"ha":1056,"x_min":42,"x_max":1014,"o":"m 807 0 l 1014 0 l 589 972 l 467 972 l 42 0 l 250 0 l 353 250 l 704 250 l 807 0 m 428 432 l 519 653 l 538 653 l 629 432 l 428 432 m 528 1056 q 661 1076 601 1056 q 756 1133 721 1097 q 792 1210 792 1168 l 721 1210 q 663 1140 715 1167 q 528 1114 611 1114 q 394 1140 447 1114 q 333 1210 340 1167 l 264 1210 q 299 1133 264 1168 q 395 1076 335 1097 q 528 1056 456 1056 "},"Ắ":{"ha":1056,"x_min":42,"x_max":1014,"o":"m 807 0 l 1014 0 l 589 972 l 467 972 l 42 0 l 250 0 l 353 250 l 704 250 l 807 0 m 428 432 l 519 653 l 538 653 l 629 432 l 428 432 m 444 1256 l 475 1206 l 774 1344 l 747 1397 l 444 1256 m 528 1056 q 661 1076 601 1056 q 756 1133 721 1097 q 792 1210 792 1168 l 721 1210 q 663 1140 715 1167 q 528 1114 611 1114 q 394 1140 447 1114 q 333 1210 340 1167 l 264 1210 q 299 1133 264 1168 q 395 1076 335 1097 q 528 1056 456 1056 "},"Ặ":{"ha":1056,"x_min":42,"x_max":1014,"o":"m 807 0 l 1014 0 l 589 972 l 467 972 l 42 0 l 250 0 l 353 250 l 704 250 l 807 0 m 428 432 l 519 653 l 538 653 l 629 432 l 428 432 m 528 1042 q 661 1063 601 1042 q 756 1119 721 1083 q 792 1196 792 1154 l 721 1196 q 663 1126 715 1153 q 528 1100 611 1100 q 394 1126 447 1100 q 333 1196 340 1153 l 264 1196 q 299 1119 264 1154 q 395 1063 335 1083 q 528 1042 456 1042 m 417 -64 l 417 -190 l 639 -190 l 639 -64 l 417 -64 "},"Ằ":{"ha":1056,"x_min":42,"x_max":1014,"o":"m 807 0 l 1014 0 l 589 972 l 467 972 l 42 0 l 250 0 l 353 250 l 704 250 l 807 0 m 428 432 l 519 653 l 538 653 l 629 432 l 428 432 m 639 1256 l 336 1397 l 310 1344 l 608 1206 l 639 1256 m 528 1056 q 661 1076 601 1056 q 756 1133 721 1097 q 792 1210 792 1168 l 721 1210 q 663 1140 715 1167 q 528 1114 611 1114 q 394 1140 447 1114 q 333 1210 340 1167 l 264 1210 q 299 1133 264 1168 q 395 1076 335 1097 q 528 1056 456 1056 "},"Ẳ":{"ha":1056,"x_min":42,"x_max":1014,"o":"m 807 0 l 1014 0 l 589 972 l 467 972 l 42 0 l 250 0 l 353 250 l 704 250 l 807 0 m 428 432 l 519 653 l 538 653 l 629 432 l 428 432 m 528 1042 q 661 1063 601 1042 q 756 1119 721 1083 q 792 1196 792 1154 l 721 1196 q 663 1126 715 1153 q 528 1100 611 1100 q 394 1126 447 1100 q 333 1196 340 1153 l 264 1196 q 299 1119 264 1154 q 395 1063 335 1083 q 528 1042 456 1042 m 489 1178 l 565 1178 q 584 1209 565 1201 q 627 1223 603 1217 q 670 1245 651 1229 q 689 1300 689 1261 q 642 1379 689 1350 q 528 1408 596 1408 q 413 1379 460 1408 q 365 1300 365 1350 l 365 1286 l 435 1286 l 435 1297 q 467 1336 435 1326 q 528 1346 499 1346 q 588 1337 556 1346 q 619 1300 619 1328 q 600 1272 619 1279 q 554 1256 581 1264 q 508 1232 528 1249 q 489 1178 489 1215 "},"Ẵ":{"ha":1056,"x_min":42,"x_max":1014,"o":"m 807 0 l 1014 0 l 589 972 l 467 972 l 42 0 l 250 0 l 353 250 l 704 250 l 807 0 m 428 432 l 519 653 l 538 653 l 629 432 l 428 432 m 528 1056 q 661 1076 601 1056 q 756 1133 721 1097 q 792 1210 792 1168 l 721 1210 q 663 1140 715 1167 q 528 1114 611 1114 q 394 1140 447 1114 q 333 1210 340 1167 l 264 1210 q 299 1133 264 1168 q 395 1076 335 1097 q 528 1056 456 1056 m 269 1261 l 333 1261 q 356 1324 336 1296 q 419 1356 376 1353 q 488 1337 456 1358 q 556 1292 519 1315 q 639 1261 592 1268 q 747 1285 708 1251 q 786 1396 786 1319 l 722 1396 q 715 1349 722 1371 q 689 1319 708 1328 q 631 1322 669 1310 q 565 1357 597 1335 q 497 1397 533 1379 q 411 1411 460 1415 q 326 1381 357 1407 q 282 1320 294 1354 q 269 1261 269 1286 "},"Â":{"ha":1056,"x_min":42,"x_max":1014,"o":"m 807 0 l 1014 0 l 589 972 l 467 972 l 42 0 l 250 0 l 353 250 l 704 250 l 807 0 m 428 432 l 519 653 l 538 653 l 629 432 l 428 432 m 261 972 l 514 1100 l 542 1100 l 794 972 l 824 1025 l 528 1174 l 232 1025 l 261 972 "},"Ấ":{"ha":1056,"x_min":42,"x_max":1081,"o":"m 807 0 l 1014 0 l 589 972 l 467 972 l 42 0 l 250 0 l 353 250 l 704 250 l 807 0 m 428 432 l 519 653 l 538 653 l 629 432 l 428 432 m 751 1172 l 782 1122 l 1081 1261 l 1054 1314 l 751 1172 m 261 972 l 514 1100 l 542 1100 l 794 972 l 824 1025 l 528 1174 l 232 1025 l 261 972 "},"Ậ":{"ha":1056,"x_min":42,"x_max":1014,"o":"m 807 0 l 1014 0 l 589 972 l 467 972 l 42 0 l 250 0 l 353 250 l 704 250 l 807 0 m 428 432 l 519 653 l 538 653 l 629 432 l 428 432 m 417 -64 l 417 -190 l 639 -190 l 639 -64 l 417 -64 m 261 972 l 514 1100 l 542 1100 l 794 972 l 824 1025 l 528 1174 l 232 1025 l 261 972 "},"Ầ":{"ha":1056,"x_min":42,"x_max":1014,"o":"m 807 0 l 1014 0 l 589 972 l 467 972 l 42 0 l 250 0 l 353 250 l 704 250 l 807 0 m 428 432 l 519 653 l 538 653 l 629 432 l 428 432 m 900 1163 l 599 1303 l 571 1251 l 871 1111 l 900 1163 m 261 972 l 514 1100 l 542 1100 l 794 972 l 824 1025 l 528 1174 l 232 1025 l 261 972 "},"Ẩ":{"ha":1056,"x_min":42,"x_max":1014,"o":"m 807 0 l 1014 0 l 589 972 l 467 972 l 42 0 l 250 0 l 353 250 l 704 250 l 807 0 m 428 432 l 519 653 l 538 653 l 629 432 l 428 432 m 686 1163 l 747 1163 q 760 1200 747 1188 q 790 1222 772 1213 q 819 1248 807 1232 q 832 1296 832 1264 q 797 1365 832 1338 q 713 1393 763 1393 q 626 1365 661 1393 q 592 1296 592 1336 l 592 1281 l 653 1281 l 653 1289 q 713 1338 653 1338 q 756 1326 740 1338 q 771 1296 771 1314 q 758 1267 771 1278 q 728 1247 746 1257 q 699 1217 711 1236 q 686 1163 686 1199 m 261 972 l 514 1100 l 542 1100 l 794 972 l 824 1025 l 528 1174 l 232 1025 l 261 972 "},"Ẫ":{"ha":1056,"x_min":42,"x_max":1014,"o":"m 807 0 l 1014 0 l 589 972 l 467 972 l 42 0 l 250 0 l 353 250 l 704 250 l 807 0 m 428 432 l 519 653 l 538 653 l 629 432 l 428 432 m 261 972 l 514 1100 l 542 1100 l 794 972 l 824 1025 l 528 1174 l 232 1025 l 261 972 m 269 1203 l 333 1203 q 356 1266 336 1238 q 419 1297 376 1294 q 488 1278 456 1300 q 556 1233 519 1257 q 639 1203 592 1210 q 747 1227 708 1193 q 786 1338 786 1261 l 722 1338 q 715 1291 722 1313 q 689 1260 708 1269 q 631 1264 669 1251 q 565 1299 597 1276 q 497 1339 533 1321 q 411 1353 460 1357 q 326 1322 357 1349 q 282 1262 294 1296 q 269 1203 269 1228 "},"Ä":{"ha":1056,"x_min":42,"x_max":1014,"o":"m 807 0 l 1014 0 l 589 972 l 467 972 l 42 0 l 250 0 l 353 250 l 704 250 l 807 0 m 428 432 l 519 653 l 538 653 l 629 432 l 428 432 m 363 1174 l 363 1029 l 493 1029 l 493 1174 l 363 1174 m 568 1174 l 568 1029 l 699 1029 l 699 1174 l 568 1174 "},"Ạ":{"ha":1056,"x_min":42,"x_max":1014,"o":"m 807 0 l 1014 0 l 589 972 l 467 972 l 42 0 l 250 0 l 353 250 l 704 250 l 807 0 m 428 432 l 519 653 l 538 653 l 629 432 l 428 432 m 417 -64 l 417 -190 l 639 -190 l 639 -64 l 417 -64 "},"À":{"ha":1056,"x_min":42,"x_max":1014,"o":"m 807 0 l 1014 0 l 589 972 l 467 972 l 42 0 l 250 0 l 353 250 l 704 250 l 807 0 m 428 432 l 519 653 l 538 653 l 629 432 l 428 432 m 779 1088 l 288 1178 l 276 1118 l 768 1028 l 779 1088 "},"Ả":{"ha":1056,"x_min":42,"x_max":1014,"o":"m 807 0 l 1014 0 l 589 972 l 467 972 l 42 0 l 250 0 l 353 250 l 704 250 l 807 0 m 428 432 l 519 653 l 538 653 l 629 432 l 428 432 m 489 1042 l 565 1042 q 584 1073 565 1065 q 627 1087 603 1081 q 670 1109 651 1093 q 689 1164 689 1125 q 642 1243 689 1214 q 528 1272 596 1272 q 413 1243 460 1272 q 365 1164 365 1214 l 365 1150 l 435 1150 l 435 1161 q 467 1200 435 1190 q 528 1210 499 1210 q 588 1201 556 1210 q 619 1164 619 1192 q 600 1135 619 1143 q 554 1120 581 1128 q 508 1096 528 1113 q 489 1042 489 1079 "},"Ā":{"ha":1056,"x_min":42,"x_max":1014,"o":"m 807 0 l 1014 0 l 589 972 l 467 972 l 42 0 l 250 0 l 353 250 l 704 250 l 807 0 m 428 432 l 519 653 l 538 653 l 629 432 l 428 432 m 246 1028 l 808 1028 l 808 1089 l 246 1089 l 246 1028 "},"Ą":{"ha":1056,"x_min":42,"x_max":1035,"o":"m 807 0 l 1014 0 l 589 972 l 467 972 l 42 0 l 250 0 l 353 250 l 704 250 l 807 0 m 428 432 l 519 653 l 538 653 l 629 432 l 428 432 m 940 0 l 896 0 q 887 -38 896 -24 q 865 -65 878 -53 q 844 -94 853 -78 q 835 -139 835 -111 q 860 -201 835 -171 q 929 -232 885 -232 q 992 -210 967 -232 q 1026 -153 1017 -187 q 1021 -82 1035 -118 l 978 -87 q 976 -158 993 -135 q 929 -182 960 -182 q 891 -164 904 -182 q 883 -122 878 -146 q 901 -90 888 -103 q 928 -58 915 -78 q 940 0 940 -37 "},"Å":{"ha":1056,"x_min":42,"x_max":1014,"o":"m 807 0 l 1014 0 l 589 972 l 467 972 l 42 0 l 250 0 l 353 250 l 704 250 l 807 0 m 428 432 l 519 653 l 538 653 l 629 432 l 428 432 m 528 1056 q 610 1090 576 1056 q 643 1171 643 1124 q 610 1253 643 1219 q 528 1286 576 1286 q 447 1253 481 1286 q 413 1171 413 1219 q 447 1090 413 1124 q 528 1056 481 1056 m 526 1104 q 480 1123 499 1104 q 461 1169 461 1142 q 480 1219 461 1200 q 526 1238 499 1238 q 576 1219 557 1238 q 594 1169 594 1200 q 576 1123 594 1142 q 526 1104 557 1104 "},"Ã":{"ha":1056,"x_min":42,"x_max":1014,"o":"m 807 0 l 1014 0 l 589 972 l 467 972 l 42 0 l 250 0 l 353 250 l 704 250 l 807 0 m 428 432 l 519 653 l 538 653 l 629 432 l 428 432 m 269 1039 l 333 1039 q 356 1102 336 1074 q 419 1133 376 1131 q 488 1115 456 1136 q 556 1069 519 1093 q 639 1039 592 1046 q 747 1063 708 1029 q 786 1174 786 1097 l 722 1174 q 715 1127 722 1149 q 689 1097 708 1106 q 631 1100 669 1088 q 565 1135 597 1113 q 497 1175 533 1157 q 411 1189 460 1193 q 326 1158 357 1185 q 282 1098 294 1132 q 269 1039 269 1064 "},"Æ":{"ha":764,"x_min":42,"x_max":722,"o":"m 42 0 l 238 0 l 253 179 l 333 179 l 333 0 l 722 0 l 722 179 l 540 179 l 540 382 l 661 382 l 661 590 l 540 590 l 540 792 l 722 792 l 722 972 l 160 972 l 42 0 m 271 388 l 306 792 l 333 792 l 333 388 l 271 388 "},"B":{"ha":569,"x_min":42,"x_max":528,"o":"m 42 0 l 285 0 q 408 33 353 0 q 495 120 463 65 q 528 243 528 175 l 528 365 q 494 468 528 418 q 403 540 460 518 l 403 554 q 469 594 442 565 q 513 662 497 624 q 528 736 528 700 q 495 857 528 804 q 408 941 463 910 q 285 972 353 972 l 42 972 l 42 0 m 249 668 l 249 792 l 265 792 q 303 774 288 792 q 319 729 319 756 q 303 685 319 703 q 265 668 288 668 l 249 668 m 249 179 l 249 432 l 258 432 q 301 405 283 432 q 319 338 319 378 l 319 274 q 301 207 319 235 q 258 179 283 179 l 249 179 "},"C":{"ha":583,"x_min":49,"x_max":535,"o":"m 292 -14 q 415 19 360 -14 q 502 106 469 51 q 535 229 535 161 l 535 382 l 329 382 l 329 215 q 318 190 329 201 q 292 179 307 179 q 267 190 278 179 q 256 215 256 201 l 256 756 q 267 781 256 771 q 292 792 278 792 q 318 781 307 792 q 329 756 329 771 l 329 590 l 535 590 l 535 743 q 502 866 535 811 q 415 953 469 921 q 292 986 360 986 q 169 953 225 986 q 81 866 114 921 q 49 743 49 811 l 49 229 q 81 106 49 161 q 169 19 114 51 q 292 -14 225 -14 "},"Ć":{"ha":1074,"x_min":42,"x_max":1032,"o":"m 843 382 q 733 228 813 288 q 542 169 653 169 q 376 211 449 169 q 263 324 304 253 q 222 486 222 396 q 263 650 222 578 q 376 764 304 722 q 542 806 449 806 q 733 746 653 806 q 843 590 813 686 l 1032 590 q 938 800 1008 711 q 766 938 868 889 q 542 986 664 986 q 341 948 432 986 q 183 842 250 910 q 78 684 115 775 q 42 486 42 593 q 78 289 42 381 q 183 130 115 197 q 341 24 250 63 q 542 -14 432 -14 q 730 19 646 -14 q 877 108 814 51 q 979 235 940 164 q 1032 382 1018 306 l 843 382 m 286 1088 l 297 1028 l 789 1118 l 778 1178 l 286 1088 "},"Č":{"ha":1074,"x_min":42,"x_max":1032,"o":"m 843 382 q 733 228 813 288 q 542 169 653 169 q 376 211 449 169 q 263 324 304 253 q 222 486 222 396 q 263 650 222 578 q 376 764 304 722 q 542 806 449 806 q 733 746 653 806 q 843 590 813 686 l 1032 590 q 938 800 1008 711 q 766 938 868 889 q 542 986 664 986 q 341 948 432 986 q 183 842 250 910 q 78 684 115 775 q 42 486 42 593 q 78 289 42 381 q 183 130 115 197 q 341 24 250 63 q 542 -14 432 -14 q 730 19 646 -14 q 877 108 814 51 q 979 235 940 164 q 1032 382 1018 306 l 843 382 m 269 1225 l 240 1172 l 536 1024 l 832 1172 l 803 1225 l 550 1097 l 522 1097 l 269 1225 "},"Ç":{"ha":1074,"x_min":42,"x_max":1032,"o":"m 843 382 q 733 228 813 288 q 542 169 653 169 q 376 211 449 169 q 263 324 304 253 q 222 486 222 396 q 263 650 222 578 q 376 764 304 722 q 542 806 449 806 q 733 746 653 806 q 843 590 813 686 l 1032 590 q 938 800 1008 711 q 766 938 868 889 q 542 986 664 986 q 341 948 432 986 q 183 842 250 910 q 78 684 115 775 q 42 486 42 593 q 78 289 42 381 q 183 130 115 197 q 341 24 250 63 q 542 -14 432 -14 q 730 19 646 -14 q 877 108 814 51 q 979 235 940 164 q 1032 382 1018 306 l 843 382 m 529 0 q 542 -58 529 -37 q 568 -90 554 -78 q 586 -122 582 -103 q 578 -164 592 -146 q 540 -182 565 -182 q 494 -158 510 -182 q 492 -87 478 -135 l 449 -82 q 444 -153 436 -118 q 478 -210 453 -187 q 540 -232 503 -232 q 610 -201 585 -232 q 635 -139 635 -171 q 626 -94 635 -111 q 604 -65 617 -78 q 583 -38 592 -53 q 574 0 574 -24 l 529 0 "},"Ċ":{"ha":1074,"x_min":42,"x_max":1032,"o":"m 843 382 q 733 228 813 288 q 542 169 653 169 q 376 211 449 169 q 263 324 304 253 q 222 486 222 396 q 263 650 222 578 q 376 764 304 722 q 542 806 449 806 q 733 746 653 806 q 843 590 813 686 l 1032 590 q 938 800 1008 711 q 766 938 868 889 q 542 986 664 986 q 341 948 432 986 q 183 842 250 910 q 78 684 115 775 q 42 486 42 593 q 78 289 42 381 q 183 130 115 197 q 341 24 250 63 q 542 -14 432 -14 q 730 19 646 -14 q 877 108 814 51 q 979 235 940 164 q 1032 382 1018 306 l 843 382 m 474 1201 l 474 1057 l 604 1057 l 604 1201 l 474 1201 "},"D":{"ha":575,"x_min":42,"x_max":528,"o":"m 42 0 l 285 0 q 408 33 353 0 q 495 120 463 65 q 528 243 528 175 l 528 729 q 495 852 528 797 q 408 940 463 907 q 285 972 353 972 l 42 972 l 42 0 m 249 179 l 249 792 l 288 792 q 310 782 301 792 q 319 760 319 772 l 319 211 q 310 189 319 199 q 288 179 301 179 l 249 179 "},"Ď":{"ha":933,"x_min":42,"x_max":892,"o":"m 154 1225 l 125 1172 l 421 1024 l 717 1172 l 688 1225 l 435 1097 l 407 1097 l 154 1225 m 42 0 l 406 0 q 594 38 506 0 q 749 142 682 75 q 854 298 817 210 q 892 486 892 386 q 854 674 892 586 q 749 830 817 763 q 594 935 682 897 q 406 972 506 972 l 42 972 l 42 0 m 246 182 l 246 792 l 382 792 q 535 750 467 792 q 645 640 604 708 q 686 486 686 571 q 645 333 686 403 q 535 223 604 264 q 382 182 467 182 l 246 182 "},"Đ":{"ha":1056,"x_min":42,"x_max":1014,"o":"m 164 0 l 528 0 q 716 38 628 0 q 872 142 804 75 q 976 298 939 210 q 1014 486 1014 386 q 976 674 1014 586 q 872 830 939 763 q 716 935 804 897 q 528 972 628 972 l 164 972 l 164 535 l 42 535 l 42 438 l 164 438 l 164 0 m 365 182 l 365 438 l 538 438 l 538 535 l 365 535 l 365 792 l 501 792 q 655 750 586 792 q 765 640 724 708 q 806 486 806 571 q 765 333 806 403 q 655 223 724 264 q 501 182 586 182 l 365 182 "},"Ð":{"ha":1056,"x_min":42,"x_max":1014,"o":"m 164 0 l 528 0 q 716 38 628 0 q 872 142 804 75 q 976 298 939 210 q 1014 486 1014 386 q 976 674 1014 586 q 872 830 939 763 q 716 935 804 897 q 528 972 628 972 l 164 972 l 164 535 l 42 535 l 42 438 l 164 438 l 164 0 m 365 182 l 365 438 l 538 438 l 538 535 l 365 535 l 365 792 l 501 792 q 655 750 586 792 q 765 640 724 708 q 806 486 806 571 q 765 333 806 403 q 655 223 724 264 q 501 182 586 182 l 365 182 "},"E":{"ha":472,"x_min":42,"x_max":431,"o":"m 42 0 l 431 0 l 431 179 l 249 179 l 249 382 l 369 382 l 369 590 l 249 590 l 249 792 l 431 792 l 431 972 l 42 972 l 42 0 "},"É":{"ha":958,"x_min":42,"x_max":917,"o":"m 917 792 l 917 972 l 42 972 l 42 0 l 917 0 l 917 179 l 250 179 l 250 382 l 796 382 l 796 590 l 250 590 l 250 792 l 917 792 m 228 1101 l 239 1042 l 731 1132 l 719 1192 l 228 1101 "},"Ě":{"ha":958,"x_min":42,"x_max":917,"o":"m 917 792 l 917 972 l 42 972 l 42 0 l 917 0 l 917 179 l 250 179 l 250 382 l 796 382 l 796 590 l 250 590 l 250 792 l 917 792 m 213 1225 l 183 1172 l 479 1024 l 775 1172 l 746 1225 l 493 1097 l 465 1097 l 213 1225 "},"Ê":{"ha":958,"x_min":42,"x_max":917,"o":"m 917 792 l 917 972 l 42 972 l 42 0 l 917 0 l 917 179 l 250 179 l 250 382 l 796 382 l 796 590 l 250 590 l 250 792 l 917 792 m 213 1028 l 465 1156 l 493 1156 l 746 1028 l 775 1081 l 479 1229 l 183 1081 l 213 1028 "},"Ế":{"ha":958,"x_min":42,"x_max":1032,"o":"m 917 792 l 917 972 l 42 972 l 42 0 l 917 0 l 917 179 l 250 179 l 250 382 l 796 382 l 796 590 l 250 590 l 250 792 l 917 792 m 703 1228 l 733 1178 l 1032 1317 l 1006 1369 l 703 1228 m 213 1028 l 465 1156 l 493 1156 l 746 1028 l 775 1081 l 479 1229 l 183 1081 l 213 1028 "},"Ệ":{"ha":958,"x_min":42,"x_max":917,"o":"m 917 792 l 917 972 l 42 972 l 42 0 l 917 0 l 917 179 l 250 179 l 250 382 l 796 382 l 796 590 l 250 590 l 250 792 l 917 792 m 368 -64 l 368 -190 l 590 -190 l 590 -64 l 368 -64 m 213 1028 l 465 1156 l 493 1156 l 746 1028 l 775 1081 l 479 1229 l 183 1081 l 213 1028 "},"Ề":{"ha":958,"x_min":42,"x_max":917,"o":"m 917 792 l 917 972 l 42 972 l 42 0 l 917 0 l 917 179 l 250 179 l 250 382 l 796 382 l 796 590 l 250 590 l 250 792 l 917 792 m 851 1218 l 550 1358 l 522 1307 l 822 1167 l 851 1218 m 213 1028 l 465 1156 l 493 1156 l 746 1028 l 775 1081 l 479 1229 l 183 1081 l 213 1028 "},"Ể":{"ha":958,"x_min":42,"x_max":917,"o":"m 917 792 l 917 972 l 42 972 l 42 0 l 917 0 l 917 179 l 250 179 l 250 382 l 796 382 l 796 590 l 250 590 l 250 792 l 917 792 m 638 1218 l 699 1218 q 711 1256 699 1243 q 741 1278 724 1268 q 771 1303 758 1288 q 783 1351 783 1319 q 749 1421 783 1393 q 664 1449 714 1449 q 578 1420 613 1449 q 543 1351 543 1392 l 543 1336 l 604 1336 l 604 1344 q 664 1393 604 1393 q 707 1381 692 1393 q 722 1351 722 1369 q 710 1323 722 1333 q 680 1302 697 1313 q 650 1273 663 1292 q 638 1218 638 1254 m 213 1028 l 465 1156 l 493 1156 l 746 1028 l 775 1081 l 479 1229 l 183 1081 l 213 1028 "},"Ễ":{"ha":958,"x_min":42,"x_max":917,"o":"m 917 792 l 917 972 l 42 972 l 42 0 l 917 0 l 917 179 l 250 179 l 250 382 l 796 382 l 796 590 l 250 590 l 250 792 l 917 792 m 213 1028 l 465 1156 l 493 1156 l 746 1028 l 775 1081 l 479 1229 l 183 1081 l 213 1028 m 221 1258 l 285 1258 q 308 1322 288 1293 q 371 1353 328 1350 q 439 1334 407 1356 q 507 1289 471 1313 q 590 1258 543 1265 q 699 1283 660 1249 q 738 1393 738 1317 l 674 1393 q 667 1347 674 1368 q 640 1316 660 1325 q 582 1319 621 1307 q 517 1354 549 1332 q 448 1394 485 1376 q 363 1408 411 1413 q 277 1378 308 1404 q 233 1317 246 1351 q 221 1258 221 1283 "},"Ë":{"ha":958,"x_min":42,"x_max":917,"o":"m 917 792 l 917 972 l 42 972 l 42 0 l 917 0 l 917 179 l 250 179 l 250 382 l 796 382 l 796 590 l 250 590 l 250 792 l 917 792 m 314 1201 l 314 1057 l 444 1057 l 444 1201 l 314 1201 m 519 1201 l 519 1057 l 650 1057 l 650 1201 l 519 1201 "},"Ė":{"ha":958,"x_min":42,"x_max":917,"o":"m 917 792 l 917 972 l 42 972 l 42 0 l 917 0 l 917 179 l 250 179 l 250 382 l 796 382 l 796 590 l 250 590 l 250 792 l 917 792 m 417 1201 l 417 1057 l 547 1057 l 547 1201 l 417 1201 "},"Ẹ":{"ha":958,"x_min":42,"x_max":917,"o":"m 917 792 l 917 972 l 42 972 l 42 0 l 917 0 l 917 179 l 250 179 l 250 382 l 796 382 l 796 590 l 250 590 l 250 792 l 917 792 m 368 -64 l 368 -190 l 590 -190 l 590 -64 l 368 -64 "},"È":{"ha":958,"x_min":42,"x_max":917,"o":"m 917 792 l 917 972 l 42 972 l 42 0 l 917 0 l 917 179 l 250 179 l 250 382 l 796 382 l 796 590 l 250 590 l 250 792 l 917 792 m 731 1101 l 239 1192 l 228 1132 l 719 1042 l 731 1101 "},"Ẻ":{"ha":958,"x_min":42,"x_max":917,"o":"m 917 792 l 917 972 l 42 972 l 42 0 l 917 0 l 917 179 l 250 179 l 250 382 l 796 382 l 796 590 l 250 590 l 250 792 l 917 792 m 463 1056 l 539 1056 q 558 1087 539 1079 q 601 1101 576 1094 q 644 1123 625 1107 q 663 1178 663 1139 q 616 1257 663 1228 q 501 1286 569 1286 q 386 1257 433 1286 q 339 1178 339 1228 l 339 1164 l 408 1164 l 408 1175 q 440 1214 408 1204 q 501 1224 472 1224 q 561 1215 529 1224 q 593 1178 593 1206 q 574 1149 593 1157 q 528 1134 554 1142 q 482 1110 501 1126 q 463 1056 463 1093 "},"Ē":{"ha":958,"x_min":42,"x_max":917,"o":"m 917 792 l 917 972 l 42 972 l 42 0 l 917 0 l 917 179 l 250 179 l 250 382 l 796 382 l 796 590 l 250 590 l 250 792 l 917 792 m 197 1056 l 760 1056 l 760 1117 l 197 1117 l 197 1056 "},"Ę":{"ha":958,"x_min":42,"x_max":917,"o":"m 917 792 l 917 972 l 42 972 l 42 0 l 917 0 l 917 179 l 250 179 l 250 382 l 796 382 l 796 590 l 250 590 l 250 792 l 917 792 m 488 0 l 443 0 q 434 -38 443 -24 q 413 -65 425 -53 q 391 -94 400 -78 q 382 -139 382 -111 q 407 -201 382 -171 q 476 -232 432 -232 q 539 -210 514 -232 q 573 -153 564 -187 q 568 -82 582 -118 l 525 -87 q 524 -158 540 -135 q 476 -182 507 -182 q 438 -164 451 -182 q 431 -122 425 -146 q 449 -90 435 -103 q 475 -58 463 -78 q 488 0 488 -37 "},"Ẽ":{"ha":958,"x_min":42,"x_max":917,"o":"m 917 792 l 917 972 l 42 972 l 42 0 l 917 0 l 917 179 l 250 179 l 250 382 l 796 382 l 796 590 l 250 590 l 250 792 l 917 792 m 221 1056 l 285 1056 q 308 1119 288 1090 q 371 1150 328 1147 q 439 1131 407 1153 q 507 1086 471 1110 q 590 1056 543 1063 q 699 1080 660 1046 q 738 1190 738 1114 l 674 1190 q 667 1144 674 1165 q 640 1113 660 1122 q 582 1117 621 1104 q 517 1151 549 1129 q 448 1192 485 1174 q 363 1206 411 1210 q 277 1175 308 1201 q 233 1115 246 1149 q 221 1056 221 1081 "},"F":{"ha":472,"x_min":42,"x_max":431,"o":"m 42 0 l 249 0 l 249 382 l 369 382 l 369 590 l 249 590 l 249 764 l 431 764 l 431 972 l 42 972 l 42 0 "},"G":{"ha":646,"x_min":42,"x_max":604,"o":"m 249 -14 q 306 -6 275 -14 q 363 17 338 3 q 396 49 389 31 l 417 49 l 417 0 l 604 0 l 604 540 l 322 540 l 322 346 l 417 346 l 417 257 q 390 203 417 226 q 332 179 364 179 q 275 203 301 179 q 249 257 249 226 l 249 722 q 273 773 249 754 q 324 792 297 792 q 374 773 350 792 q 399 722 399 754 l 399 644 l 604 644 l 604 743 q 562 866 604 811 q 456 953 519 921 q 324 986 392 986 q 224 967 274 986 q 133 915 174 949 q 67 838 92 882 q 42 743 42 793 l 42 229 q 65 106 42 161 q 135 19 89 51 q 249 -14 182 -14 "},"Ğ":{"ha":1074,"x_min":42,"x_max":1032,"o":"m 542 486 l 542 347 l 833 347 q 722 211 801 253 q 542 169 643 169 q 376 211 449 169 q 263 324 304 253 q 222 486 222 396 q 263 650 222 578 q 376 764 304 722 q 542 806 449 806 q 717 756 642 806 q 829 625 793 707 l 1024 625 q 924 817 994 736 q 756 942 854 897 q 542 986 657 986 q 341 948 432 986 q 183 842 250 910 q 78 684 115 775 q 42 486 42 593 q 78 289 42 381 q 183 130 115 197 q 341 24 250 63 q 542 -14 432 -14 q 686 9 629 -14 q 777 64 743 32 q 829 122 811 96 l 843 122 l 843 21 l 1032 21 l 1032 486 l 542 486 m 538 1028 q 671 1049 611 1028 q 766 1105 731 1069 q 801 1182 801 1140 l 731 1182 q 673 1113 725 1139 q 538 1086 621 1086 q 403 1113 457 1086 q 343 1182 350 1139 l 274 1182 q 309 1105 274 1140 q 405 1049 344 1069 q 538 1028 465 1028 "},"Ģ":{"ha":1074,"x_min":42,"x_max":1032,"o":"m 542 486 l 542 347 l 833 347 q 722 211 801 253 q 542 169 643 169 q 376 211 449 169 q 263 324 304 253 q 222 486 222 396 q 263 650 222 578 q 376 764 304 722 q 542 806 449 806 q 717 756 642 806 q 829 625 793 707 l 1024 625 q 924 817 994 736 q 756 942 854 897 q 542 986 657 986 q 341 948 432 986 q 183 842 250 910 q 78 684 115 775 q 42 486 42 593 q 78 289 42 381 q 183 130 115 197 q 341 24 250 63 q 542 -14 432 -14 q 686 9 629 -14 q 777 64 743 32 q 829 122 811 96 l 843 122 l 843 21 l 1032 21 l 1032 486 l 542 486 m 503 -236 l 544 -236 l 569 -78 l 569 -64 l 503 -64 l 503 -236 "},"Ġ":{"ha":1074,"x_min":42,"x_max":1032,"o":"m 542 486 l 542 347 l 833 347 q 722 211 801 253 q 542 169 643 169 q 376 211 449 169 q 263 324 304 253 q 222 486 222 396 q 263 650 222 578 q 376 764 304 722 q 542 806 449 806 q 717 756 642 806 q 829 625 793 707 l 1024 625 q 924 817 994 736 q 756 942 854 897 q 542 986 657 986 q 341 948 432 986 q 183 842 250 910 q 78 684 115 775 q 42 486 42 593 q 78 289 42 381 q 183 130 115 197 q 341 24 250 63 q 542 -14 432 -14 q 686 9 629 -14 q 777 64 743 32 q 829 122 811 96 l 843 122 l 843 21 l 1032 21 l 1032 486 l 542 486 m 474 1201 l 474 1057 l 604 1057 l 604 1201 l 474 1201 "},"H":{"ha":569,"x_min":42,"x_max":528,"o":"m 42 0 l 249 0 l 249 382 l 322 382 l 322 0 l 528 0 l 528 972 l 322 972 l 322 590 l 249 590 l 249 972 l 42 972 l 42 0 "},"Ħ":{"ha":1042,"x_min":0,"x_max":1042,"o":"m 83 0 l 290 0 l 290 382 l 753 382 l 753 0 l 958 0 l 958 750 l 1042 750 l 1042 811 l 958 811 l 958 972 l 753 972 l 753 811 l 290 811 l 290 972 l 83 972 l 83 811 l 0 811 l 0 750 l 83 750 l 83 0 m 290 590 l 290 750 l 753 750 l 753 590 l 290 590 "},"I":{"ha":293,"x_min":42,"x_max":251,"o":"m 42 0 l 251 0 l 251 972 l 42 972 l 42 0 "},"Ĳ":{"ha":569,"x_min":42,"x_max":528,"o":"m 285 -14 q 408 19 353 -14 q 495 106 463 51 q 528 229 528 161 l 528 972 l 322 972 l 322 215 q 311 190 322 201 q 285 179 300 179 q 260 190 271 179 q 249 215 249 201 l 249 382 l 42 382 l 42 229 q 74 106 42 161 q 163 19 107 51 q 285 -14 218 -14 m 42 972 l 42 540 l 249 540 l 249 972 l 42 972 "},"Í":{"ha":917,"x_min":42,"x_max":875,"o":"m 42 972 l 42 792 l 354 792 l 354 179 l 42 179 l 42 0 l 875 0 l 875 179 l 563 179 l 563 792 l 875 792 l 875 972 l 42 972 m 207 1115 l 218 1056 l 710 1146 l 699 1206 l 207 1115 "},"Î":{"ha":917,"x_min":42,"x_max":875,"o":"m 42 972 l 42 792 l 354 792 l 354 179 l 42 179 l 42 0 l 875 0 l 875 179 l 563 179 l 563 792 l 875 792 l 875 972 l 42 972 m 192 1028 l 444 1156 l 472 1156 l 725 1028 l 754 1081 l 458 1229 l 163 1081 l 192 1028 "},"Ï":{"ha":917,"x_min":42,"x_max":875,"o":"m 42 972 l 42 792 l 354 792 l 354 179 l 42 179 l 42 0 l 875 0 l 875 179 l 563 179 l 563 792 l 875 792 l 875 972 l 42 972 m 293 1201 l 293 1057 l 424 1057 l 424 1201 l 293 1201 m 499 1201 l 499 1057 l 629 1057 l 629 1201 l 499 1201 "},"İ":{"ha":917,"x_min":42,"x_max":875,"o":"m 42 972 l 42 792 l 354 792 l 354 179 l 42 179 l 42 0 l 875 0 l 875 179 l 563 179 l 563 792 l 875 792 l 875 972 l 42 972 m 396 1201 l 396 1057 l 526 1057 l 526 1201 l 396 1201 "},"Ị":{"ha":917,"x_min":42,"x_max":875,"o":"m 42 972 l 42 792 l 354 792 l 354 179 l 42 179 l 42 0 l 875 0 l 875 179 l 563 179 l 563 792 l 875 792 l 875 972 l 42 972 m 347 -64 l 347 -190 l 569 -190 l 569 -64 l 347 -64 "},"Ì":{"ha":917,"x_min":42,"x_max":875,"o":"m 42 972 l 42 792 l 354 792 l 354 179 l 42 179 l 42 0 l 875 0 l 875 179 l 563 179 l 563 792 l 875 792 l 875 972 l 42 972 m 710 1115 l 218 1206 l 207 1146 l 699 1056 l 710 1115 "},"Ỉ":{"ha":917,"x_min":42,"x_max":875,"o":"m 42 972 l 42 792 l 354 792 l 354 179 l 42 179 l 42 0 l 875 0 l 875 179 l 563 179 l 563 792 l 875 792 l 875 972 l 42 972 m 419 1056 l 496 1056 q 515 1087 496 1079 q 558 1101 533 1094 q 601 1123 582 1107 q 619 1178 619 1139 q 573 1257 619 1228 q 458 1286 526 1286 q 343 1257 390 1286 q 296 1178 296 1228 l 296 1164 l 365 1164 l 365 1175 q 397 1214 365 1204 q 458 1224 429 1224 q 518 1215 486 1224 q 550 1178 550 1206 q 531 1149 550 1157 q 485 1134 511 1142 q 439 1110 458 1126 q 419 1056 419 1093 "},"Ī":{"ha":917,"x_min":42,"x_max":875,"o":"m 42 972 l 42 792 l 354 792 l 354 179 l 42 179 l 42 0 l 875 0 l 875 179 l 563 179 l 563 792 l 875 792 l 875 972 l 42 972 m 178 1056 l 740 1056 l 740 1117 l 178 1117 l 178 1056 "},"Į":{"ha":917,"x_min":42,"x_max":875,"o":"m 42 972 l 42 792 l 354 792 l 354 179 l 42 179 l 42 0 l 875 0 l 875 179 l 563 179 l 563 792 l 875 792 l 875 972 l 42 972 m 467 0 l 422 0 q 413 -38 422 -24 q 392 -65 404 -53 q 370 -94 379 -78 q 361 -139 361 -111 q 386 -201 361 -171 q 456 -232 411 -232 q 518 -210 493 -232 q 552 -153 543 -187 q 547 -82 561 -118 l 504 -87 q 503 -158 519 -135 q 456 -182 486 -182 q 417 -164 431 -182 q 410 -122 404 -146 q 428 -90 414 -103 q 454 -58 442 -78 q 467 0 467 -37 "},"Ĩ":{"ha":917,"x_min":42,"x_max":875,"o":"m 42 972 l 42 792 l 354 792 l 354 179 l 42 179 l 42 0 l 875 0 l 875 179 l 563 179 l 563 792 l 875 792 l 875 972 l 42 972 m 200 1056 l 264 1056 q 287 1119 267 1090 q 350 1150 307 1147 q 418 1131 386 1153 q 486 1086 450 1110 q 569 1056 522 1063 q 678 1080 639 1046 q 717 1190 717 1114 l 653 1190 q 646 1144 653 1165 q 619 1113 639 1122 q 561 1117 600 1104 q 496 1151 528 1129 q 427 1192 464 1174 q 342 1206 390 1210 q 256 1175 288 1201 q 213 1115 225 1149 q 200 1056 200 1081 "},"J":{"ha":569,"x_min":42,"x_max":528,"o":"m 285 -14 q 408 19 353 -14 q 495 106 463 51 q 528 229 528 161 l 528 972 l 164 972 l 164 792 l 322 792 l 322 215 q 311 190 322 201 q 285 179 300 179 q 260 190 271 179 q 249 215 249 201 l 249 382 l 42 382 l 42 229 q 74 106 42 161 q 163 19 107 51 q 285 -14 218 -14 "},"K":{"ha":571,"x_min":42,"x_max":528,"o":"m 42 0 l 249 0 l 249 300 l 263 300 l 319 0 l 528 0 l 528 28 l 389 529 l 389 550 l 528 944 l 528 972 l 319 972 l 263 694 l 249 694 l 249 972 l 42 972 l 42 0 "},"Ķ":{"ha":958,"x_min":42,"x_max":917,"o":"m 432 -236 l 474 -236 l 499 -78 l 499 -64 l 432 -64 l 432 -236 m 42 0 l 249 0 l 249 382 l 263 382 l 681 0 l 917 0 l 917 28 l 422 479 l 422 493 l 917 944 l 917 972 l 681 972 l 263 590 l 249 590 l 249 972 l 42 972 l 42 0 "},"L":{"ha":472,"x_min":42,"x_max":431,"o":"m 42 0 l 431 0 l 431 179 l 249 179 l 249 972 l 42 972 l 42 0 "},"Ĺ":{"ha":958,"x_min":42,"x_max":917,"o":"m 42 0 l 917 0 l 917 179 l 249 179 l 249 972 l 42 972 l 42 0 m 42 1115 l 53 1056 l 544 1146 l 533 1206 l 42 1115 "},"Ľ":{"ha":958,"x_min":42,"x_max":917,"o":"m 346 688 l 389 688 l 401 944 l 401 972 l 332 972 l 332 944 l 346 688 m 42 0 l 917 0 l 917 179 l 249 179 l 249 972 l 42 972 l 42 0 "},"Ļ":{"ha":958,"x_min":42,"x_max":917,"o":"m 42 0 l 917 0 l 917 179 l 249 179 l 249 972 l 42 972 l 42 0 m 446 -236 l 488 -236 l 513 -78 l 513 -64 l 446 -64 l 446 -236 "},"Ł":{"ha":958,"x_min":-92,"x_max":917,"o":"m 42 0 l 917 0 l 917 179 l 249 179 l 249 501 l 382 549 l 382 610 l 249 563 l 249 972 l 42 972 l 42 490 l -92 443 l -92 382 l 42 429 l 42 0 "},"M":{"ha":690,"x_min":42,"x_max":649,"o":"m 42 0 l 222 0 l 222 432 l 231 432 l 285 0 l 406 0 l 460 432 l 468 432 l 468 0 l 649 0 l 649 972 l 410 972 l 350 540 l 342 540 l 279 972 l 42 972 l 42 0 "},"N":{"ha":569,"x_min":42,"x_max":528,"o":"m 42 0 l 222 0 l 222 382 l 243 382 l 361 0 l 528 0 l 528 972 l 347 972 l 347 590 l 326 590 l 208 972 l 42 972 l 42 0 "},"Ń":{"ha":958,"x_min":42,"x_max":917,"o":"m 42 0 l 249 0 l 249 604 l 269 604 l 696 0 l 917 0 l 917 972 l 696 972 l 696 368 l 675 368 l 249 972 l 42 972 l 42 0 m 228 1115 l 239 1056 l 731 1146 l 719 1206 l 228 1115 "},"Ň":{"ha":958,"x_min":42,"x_max":917,"o":"m 42 0 l 249 0 l 249 604 l 269 604 l 696 0 l 917 0 l 917 972 l 696 972 l 696 368 l 675 368 l 249 972 l 42 972 l 42 0 m 213 1225 l 183 1172 l 479 1024 l 775 1172 l 746 1225 l 493 1097 l 465 1097 l 213 1225 "},"Ņ":{"ha":958,"x_min":42,"x_max":917,"o":"m 42 0 l 249 0 l 249 604 l 269 604 l 696 0 l 917 0 l 917 972 l 696 972 l 696 368 l 675 368 l 249 972 l 42 972 l 42 0 m 439 -236 l 481 -236 l 506 -78 l 506 -64 l 439 -64 l 439 -236 "},"Ñ":{"ha":958,"x_min":42,"x_max":917,"o":"m 42 0 l 249 0 l 249 604 l 269 604 l 696 0 l 917 0 l 917 972 l 696 972 l 696 368 l 675 368 l 249 972 l 42 972 l 42 0 m 221 1094 l 285 1094 q 308 1158 288 1129 q 371 1189 328 1186 q 439 1170 407 1192 q 507 1125 471 1149 q 590 1094 543 1101 q 699 1119 660 1085 q 738 1229 738 1153 l 674 1229 q 667 1183 674 1204 q 640 1152 660 1161 q 582 1156 621 1143 q 517 1190 549 1168 q 448 1231 485 1213 q 363 1244 411 1249 q 277 1214 308 1240 q 233 1153 246 1188 q 221 1094 221 1119 "},"Ŋ":{"ha":958,"x_min":42,"x_max":917,"o":"m 42 0 l 249 0 l 249 604 l 269 604 l 696 0 l 696 -47 q 685 -74 696 -62 q 658 -85 674 -85 l 572 -85 l 572 -278 l 674 -278 q 797 -245 742 -278 q 884 -157 851 -212 q 917 -35 917 -101 l 917 972 l 696 972 l 696 368 l 675 368 l 249 972 l 42 972 l 42 0 "},"O":{"ha":571,"x_min":42,"x_max":528,"o":"m 285 -14 q 407 19 351 -14 q 495 106 463 51 q 528 229 528 161 l 528 743 q 495 866 528 811 q 407 953 463 921 q 285 986 351 986 q 163 953 218 986 q 74 866 107 921 q 42 743 42 811 l 42 229 q 74 106 42 161 q 163 19 107 51 q 285 -14 218 -14 m 285 169 q 259 180 269 169 q 249 204 249 190 l 249 769 q 259 795 249 785 q 285 806 269 806 q 310 795 300 806 q 319 769 319 785 l 319 204 q 310 180 319 190 q 285 169 300 169 "},"Ó":{"ha":1083,"x_min":42,"x_max":1042,"o":"m 542 986 q 341 948 432 986 q 183 842 250 910 q 78 684 115 775 q 42 486 42 593 q 78 289 42 381 q 183 130 115 197 q 341 24 250 63 q 542 -14 432 -14 q 742 24 650 -14 q 901 130 833 63 q 1005 289 968 197 q 1042 486 1042 381 q 1005 684 1042 593 q 901 842 968 775 q 742 948 833 910 q 542 986 650 986 m 858 486 q 817 324 858 396 q 706 211 776 253 q 542 169 635 169 q 376 211 449 169 q 263 324 304 253 q 222 486 222 396 q 263 650 222 578 q 376 764 304 722 q 542 806 449 806 q 706 764 635 806 q 817 650 776 722 q 858 486 858 578 m 290 1088 l 301 1028 l 793 1118 l 782 1178 l 290 1088 "},"Ô":{"ha":1083,"x_min":42,"x_max":1042,"o":"m 542 986 q 341 948 432 986 q 183 842 250 910 q 78 684 115 775 q 42 486 42 593 q 78 289 42 381 q 183 130 115 197 q 341 24 250 63 q 542 -14 432 -14 q 742 24 650 -14 q 901 130 833 63 q 1005 289 968 197 q 1042 486 1042 381 q 1005 684 1042 593 q 901 842 968 775 q 742 948 833 910 q 542 986 650 986 m 858 486 q 817 324 858 396 q 706 211 776 253 q 542 169 635 169 q 376 211 449 169 q 263 324 304 253 q 222 486 222 396 q 263 650 222 578 q 376 764 304 722 q 542 806 449 806 q 706 764 635 806 q 817 650 776 722 q 858 486 858 578 m 275 1000 l 528 1128 l 556 1128 l 808 1000 l 838 1053 l 542 1201 l 246 1053 l 275 1000 "},"Ố":{"ha":1083,"x_min":42,"x_max":1094,"o":"m 542 986 q 341 948 432 986 q 183 842 250 910 q 78 684 115 775 q 42 486 42 593 q 78 289 42 381 q 183 130 115 197 q 341 24 250 63 q 542 -14 432 -14 q 742 24 650 -14 q 901 130 833 63 q 1005 289 968 197 q 1042 486 1042 381 q 1005 684 1042 593 q 901 842 968 775 q 742 948 833 910 q 542 986 650 986 m 858 486 q 817 324 858 396 q 706 211 776 253 q 542 169 635 169 q 376 211 449 169 q 263 324 304 253 q 222 486 222 396 q 263 650 222 578 q 376 764 304 722 q 542 806 449 806 q 706 764 635 806 q 817 650 776 722 q 858 486 858 578 m 765 1200 l 796 1150 l 1094 1289 l 1068 1342 l 765 1200 m 275 1000 l 528 1128 l 556 1128 l 808 1000 l 838 1053 l 542 1201 l 246 1053 l 275 1000 "},"Ộ":{"ha":1083,"x_min":42,"x_max":1042,"o":"m 542 986 q 341 948 432 986 q 183 842 250 910 q 78 684 115 775 q 42 486 42 593 q 78 289 42 381 q 183 130 115 197 q 341 24 250 63 q 542 -14 432 -14 q 742 24 650 -14 q 901 130 833 63 q 1005 289 968 197 q 1042 486 1042 381 q 1005 684 1042 593 q 901 842 968 775 q 742 948 833 910 q 542 986 650 986 m 858 486 q 817 324 858 396 q 706 211 776 253 q 542 169 635 169 q 376 211 449 169 q 263 324 304 253 q 222 486 222 396 q 263 650 222 578 q 376 764 304 722 q 542 806 449 806 q 706 764 635 806 q 817 650 776 722 q 858 486 858 578 m 431 -64 l 431 -190 l 653 -190 l 653 -64 l 431 -64 m 275 1000 l 528 1128 l 556 1128 l 808 1000 l 838 1053 l 542 1201 l 246 1053 l 275 1000 "},"Ồ":{"ha":1083,"x_min":42,"x_max":1042,"o":"m 542 986 q 341 948 432 986 q 183 842 250 910 q 78 684 115 775 q 42 486 42 593 q 78 289 42 381 q 183 130 115 197 q 341 24 250 63 q 542 -14 432 -14 q 742 24 650 -14 q 901 130 833 63 q 1005 289 968 197 q 1042 486 1042 381 q 1005 684 1042 593 q 901 842 968 775 q 742 948 833 910 q 542 986 650 986 m 858 486 q 817 324 858 396 q 706 211 776 253 q 542 169 635 169 q 376 211 449 169 q 263 324 304 253 q 222 486 222 396 q 263 650 222 578 q 376 764 304 722 q 542 806 449 806 q 706 764 635 806 q 817 650 776 722 q 858 486 858 578 m 914 1190 l 613 1331 l 585 1279 l 885 1139 l 914 1190 m 275 1000 l 528 1128 l 556 1128 l 808 1000 l 838 1053 l 542 1201 l 246 1053 l 275 1000 "},"Ổ":{"ha":1083,"x_min":42,"x_max":1042,"o":"m 542 986 q 341 948 432 986 q 183 842 250 910 q 78 684 115 775 q 42 486 42 593 q 78 289 42 381 q 183 130 115 197 q 341 24 250 63 q 542 -14 432 -14 q 742 24 650 -14 q 901 130 833 63 q 1005 289 968 197 q 1042 486 1042 381 q 1005 684 1042 593 q 901 842 968 775 q 742 948 833 910 q 542 986 650 986 m 858 486 q 817 324 858 396 q 706 211 776 253 q 542 169 635 169 q 376 211 449 169 q 263 324 304 253 q 222 486 222 396 q 263 650 222 578 q 376 764 304 722 q 542 806 449 806 q 706 764 635 806 q 817 650 776 722 q 858 486 858 578 m 700 1190 l 761 1190 q 774 1228 761 1215 q 803 1250 786 1240 q 833 1276 821 1260 q 846 1324 846 1292 q 811 1393 846 1365 q 726 1421 776 1421 q 640 1392 675 1421 q 606 1324 606 1364 l 606 1308 l 667 1308 l 667 1317 q 726 1365 667 1365 q 769 1353 754 1365 q 785 1324 785 1342 q 772 1295 785 1306 q 742 1274 760 1285 q 713 1245 725 1264 q 700 1190 700 1226 m 275 1000 l 528 1128 l 556 1128 l 808 1000 l 838 1053 l 542 1201 l 246 1053 l 275 1000 "},"Ỗ":{"ha":1083,"x_min":42,"x_max":1042,"o":"m 542 986 q 341 948 432 986 q 183 842 250 910 q 78 684 115 775 q 42 486 42 593 q 78 289 42 381 q 183 130 115 197 q 341 24 250 63 q 542 -14 432 -14 q 742 24 650 -14 q 901 130 833 63 q 1005 289 968 197 q 1042 486 1042 381 q 1005 684 1042 593 q 901 842 968 775 q 742 948 833 910 q 542 986 650 986 m 858 486 q 817 324 858 396 q 706 211 776 253 q 542 169 635 169 q 376 211 449 169 q 263 324 304 253 q 222 486 222 396 q 263 650 222 578 q 376 764 304 722 q 542 806 449 806 q 706 764 635 806 q 817 650 776 722 q 858 486 858 578 m 275 1000 l 528 1128 l 556 1128 l 808 1000 l 838 1053 l 542 1201 l 246 1053 l 275 1000 m 283 1231 l 347 1231 q 370 1294 350 1265 q 433 1325 390 1322 q 501 1306 469 1328 q 569 1261 533 1285 q 653 1231 606 1238 q 761 1255 722 1221 q 800 1365 800 1289 l 736 1365 q 729 1319 736 1340 q 703 1288 722 1297 q 644 1292 683 1279 q 579 1326 611 1304 q 510 1367 547 1349 q 425 1381 474 1385 q 340 1350 371 1376 q 296 1290 308 1324 q 283 1231 283 1256 "},"Ö":{"ha":1083,"x_min":42,"x_max":1042,"o":"m 542 986 q 341 948 432 986 q 183 842 250 910 q 78 684 115 775 q 42 486 42 593 q 78 289 42 381 q 183 130 115 197 q 341 24 250 63 q 542 -14 432 -14 q 742 24 650 -14 q 901 130 833 63 q 1005 289 968 197 q 1042 486 1042 381 q 1005 684 1042 593 q 901 842 968 775 q 742 948 833 910 q 542 986 650 986 m 858 486 q 817 324 858 396 q 706 211 776 253 q 542 169 635 169 q 376 211 449 169 q 263 324 304 253 q 222 486 222 396 q 263 650 222 578 q 376 764 304 722 q 542 806 449 806 q 706 764 635 806 q 817 650 776 722 q 858 486 858 578 m 376 1201 l 376 1057 l 507 1057 l 507 1201 l 376 1201 m 582 1201 l 582 1057 l 713 1057 l 713 1201 l 582 1201 "},"Ọ":{"ha":1083,"x_min":42,"x_max":1042,"o":"m 542 986 q 341 948 432 986 q 183 842 250 910 q 78 684 115 775 q 42 486 42 593 q 78 289 42 381 q 183 130 115 197 q 341 24 250 63 q 542 -14 432 -14 q 742 24 650 -14 q 901 130 833 63 q 1005 289 968 197 q 1042 486 1042 381 q 1005 684 1042 593 q 901 842 968 775 q 742 948 833 910 q 542 986 650 986 m 858 486 q 817 324 858 396 q 706 211 776 253 q 542 169 635 169 q 376 211 449 169 q 263 324 304 253 q 222 486 222 396 q 263 650 222 578 q 376 764 304 722 q 542 806 449 806 q 706 764 635 806 q 817 650 776 722 q 858 486 858 578 m 431 -64 l 431 -190 l 653 -190 l 653 -64 l 431 -64 "},"Ò":{"ha":1083,"x_min":42,"x_max":1042,"o":"m 542 986 q 341 948 432 986 q 183 842 250 910 q 78 684 115 775 q 42 486 42 593 q 78 289 42 381 q 183 130 115 197 q 341 24 250 63 q 542 -14 432 -14 q 742 24 650 -14 q 901 130 833 63 q 1005 289 968 197 q 1042 486 1042 381 q 1005 684 1042 593 q 901 842 968 775 q 742 948 833 910 q 542 986 650 986 m 858 486 q 817 324 858 396 q 706 211 776 253 q 542 169 635 169 q 376 211 449 169 q 263 324 304 253 q 222 486 222 396 q 263 650 222 578 q 376 764 304 722 q 542 806 449 806 q 706 764 635 806 q 817 650 776 722 q 858 486 858 578 m 793 1088 l 301 1178 l 290 1118 l 782 1028 l 793 1088 "},"Ỏ":{"ha":1083,"x_min":42,"x_max":1042,"o":"m 542 986 q 341 948 432 986 q 183 842 250 910 q 78 684 115 775 q 42 486 42 593 q 78 289 42 381 q 183 130 115 197 q 341 24 250 63 q 542 -14 432 -14 q 742 24 650 -14 q 901 130 833 63 q 1005 289 968 197 q 1042 486 1042 381 q 1005 684 1042 593 q 901 842 968 775 q 742 948 833 910 q 542 986 650 986 m 858 486 q 817 324 858 396 q 706 211 776 253 q 542 169 635 169 q 376 211 449 169 q 263 324 304 253 q 222 486 222 396 q 263 650 222 578 q 376 764 304 722 q 542 806 449 806 q 706 764 635 806 q 817 650 776 722 q 858 486 858 578 m 503 1056 l 579 1056 q 598 1087 579 1079 q 641 1101 617 1094 q 684 1123 665 1107 q 703 1178 703 1139 q 656 1257 703 1228 q 542 1286 610 1286 q 426 1257 474 1286 q 379 1178 379 1228 l 379 1164 l 449 1164 l 449 1175 q 481 1214 449 1204 q 542 1224 513 1224 q 601 1215 569 1224 q 633 1178 633 1206 q 614 1149 633 1157 q 568 1134 594 1142 q 522 1110 542 1126 q 503 1056 503 1093 "},"Ơ":{"ha":1083,"x_min":42,"x_max":1042,"o":"m 975 735 q 1028 844 1015 785 q 1040 972 1040 904 l 915 972 q 908 880 915 917 q 885 811 901 843 l 871 811 q 819 888 858 847 q 711 958 779 929 q 542 986 643 986 q 347 947 438 986 q 188 840 257 908 q 81 681 119 771 q 42 486 42 590 q 81 292 42 382 q 188 133 119 201 q 347 25 257 64 q 542 -14 438 -14 q 736 25 646 -14 q 895 133 826 64 q 1003 292 964 201 q 1042 486 1042 382 q 975 735 1042 622 m 835 486 q 795 340 835 406 q 690 234 756 274 q 542 194 624 194 q 395 234 461 194 q 290 340 329 274 q 250 486 250 406 q 290 634 250 568 q 395 740 329 700 q 542 779 461 779 q 690 740 624 779 q 795 634 756 700 q 835 486 835 568 "},"Ớ":{"ha":1083,"x_min":42,"x_max":1042,"o":"m 975 735 q 1028 844 1015 785 q 1040 972 1040 904 l 915 972 q 908 880 915 917 q 885 811 901 843 l 871 811 q 819 888 858 847 q 711 958 779 929 q 542 986 643 986 q 347 947 438 986 q 188 840 257 908 q 81 681 119 771 q 42 486 42 590 q 81 292 42 382 q 188 133 119 201 q 347 25 257 64 q 542 -14 438 -14 q 736 25 646 -14 q 895 133 826 64 q 1003 292 964 201 q 1042 486 1042 382 q 975 735 1042 622 m 835 486 q 795 340 835 406 q 690 234 756 274 q 542 194 624 194 q 395 234 461 194 q 290 340 329 274 q 250 486 250 406 q 290 634 250 568 q 395 740 329 700 q 542 779 461 779 q 690 740 624 779 q 795 634 756 700 q 835 486 835 568 m 290 1088 l 301 1028 l 793 1118 l 782 1178 l 290 1088 "},"Ợ":{"ha":1083,"x_min":42,"x_max":1042,"o":"m 975 735 q 1028 844 1015 785 q 1040 972 1040 904 l 915 972 q 908 880 915 917 q 885 811 901 843 l 871 811 q 819 888 858 847 q 711 958 779 929 q 542 986 643 986 q 347 947 438 986 q 188 840 257 908 q 81 681 119 771 q 42 486 42 590 q 81 292 42 382 q 188 133 119 201 q 347 25 257 64 q 542 -14 438 -14 q 736 25 646 -14 q 895 133 826 64 q 1003 292 964 201 q 1042 486 1042 382 q 975 735 1042 622 m 835 486 q 795 340 835 406 q 690 234 756 274 q 542 194 624 194 q 395 234 461 194 q 290 340 329 274 q 250 486 250 406 q 290 634 250 568 q 395 740 329 700 q 542 779 461 779 q 690 740 624 779 q 795 634 756 700 q 835 486 835 568 m 431 -64 l 431 -190 l 653 -190 l 653 -64 l 431 -64 "},"Ờ":{"ha":1083,"x_min":42,"x_max":1042,"o":"m 975 735 q 1028 844 1015 785 q 1040 972 1040 904 l 915 972 q 908 880 915 917 q 885 811 901 843 l 871 811 q 819 888 858 847 q 711 958 779 929 q 542 986 643 986 q 347 947 438 986 q 188 840 257 908 q 81 681 119 771 q 42 486 42 590 q 81 292 42 382 q 188 133 119 201 q 347 25 257 64 q 542 -14 438 -14 q 736 25 646 -14 q 895 133 826 64 q 1003 292 964 201 q 1042 486 1042 382 q 975 735 1042 622 m 835 486 q 795 340 835 406 q 690 234 756 274 q 542 194 624 194 q 395 234 461 194 q 290 340 329 274 q 250 486 250 406 q 290 634 250 568 q 395 740 329 700 q 542 779 461 779 q 690 740 624 779 q 795 634 756 700 q 835 486 835 568 m 793 1088 l 301 1178 l 290 1118 l 782 1028 l 793 1088 "},"Ở":{"ha":1083,"x_min":42,"x_max":1042,"o":"m 975 735 q 1028 844 1015 785 q 1040 972 1040 904 l 915 972 q 908 880 915 917 q 885 811 901 843 l 871 811 q 819 888 858 847 q 711 958 779 929 q 542 986 643 986 q 347 947 438 986 q 188 840 257 908 q 81 681 119 771 q 42 486 42 590 q 81 292 42 382 q 188 133 119 201 q 347 25 257 64 q 542 -14 438 -14 q 736 25 646 -14 q 895 133 826 64 q 1003 292 964 201 q 1042 486 1042 382 q 975 735 1042 622 m 835 486 q 795 340 835 406 q 690 234 756 274 q 542 194 624 194 q 395 234 461 194 q 290 340 329 274 q 250 486 250 406 q 290 634 250 568 q 395 740 329 700 q 542 779 461 779 q 690 740 624 779 q 795 634 756 700 q 835 486 835 568 m 525 1042 l 601 1042 q 620 1073 601 1065 q 663 1087 639 1081 q 706 1109 688 1093 q 725 1164 725 1125 q 678 1243 725 1214 q 564 1272 632 1272 q 449 1243 496 1272 q 401 1164 401 1214 l 401 1150 l 471 1150 l 471 1161 q 503 1200 471 1190 q 564 1210 535 1210 q 624 1201 592 1210 q 656 1164 656 1192 q 636 1135 656 1143 q 590 1120 617 1128 q 544 1096 564 1113 q 525 1042 525 1079 "},"Ỡ":{"ha":1083,"x_min":42,"x_max":1042,"o":"m 975 735 q 1028 844 1015 785 q 1040 972 1040 904 l 915 972 q 908 880 915 917 q 885 811 901 843 l 871 811 q 819 888 858 847 q 711 958 779 929 q 542 986 643 986 q 347 947 438 986 q 188 840 257 908 q 81 681 119 771 q 42 486 42 590 q 81 292 42 382 q 188 133 119 201 q 347 25 257 64 q 542 -14 438 -14 q 736 25 646 -14 q 895 133 826 64 q 1003 292 964 201 q 1042 486 1042 382 q 975 735 1042 622 m 835 486 q 795 340 835 406 q 690 234 756 274 q 542 194 624 194 q 395 234 461 194 q 290 340 329 274 q 250 486 250 406 q 290 634 250 568 q 395 740 329 700 q 542 779 461 779 q 690 740 624 779 q 795 634 756 700 q 835 486 835 568 m 283 1039 l 347 1039 q 370 1102 350 1074 q 433 1133 390 1131 q 501 1115 469 1136 q 569 1069 533 1093 q 653 1039 606 1046 q 761 1063 722 1029 q 800 1174 800 1097 l 736 1174 q 729 1127 736 1149 q 703 1097 722 1106 q 644 1100 683 1088 q 579 1135 611 1113 q 510 1175 547 1157 q 425 1189 474 1193 q 340 1158 371 1185 q 296 1098 308 1132 q 283 1039 283 1064 "},"Ő":{"ha":1083,"x_min":42,"x_max":1042,"o":"m 542 986 q 341 948 432 986 q 183 842 250 910 q 78 684 115 775 q 42 486 42 593 q 78 289 42 381 q 183 130 115 197 q 341 24 250 63 q 542 -14 432 -14 q 742 24 650 -14 q 901 130 833 63 q 1005 289 968 197 q 1042 486 1042 381 q 1005 684 1042 593 q 901 842 968 775 q 742 948 833 910 q 542 986 650 986 m 858 486 q 817 324 858 396 q 706 211 776 253 q 542 169 635 169 q 376 211 449 169 q 263 324 304 253 q 222 486 222 396 q 263 650 222 578 q 376 764 304 722 q 542 806 449 806 q 706 764 635 806 q 817 650 776 722 q 858 486 858 578 m 417 1088 l 464 1056 l 649 1286 l 600 1318 l 417 1088 m 601 1088 l 649 1056 l 833 1286 l 785 1318 l 601 1088 "},"Ō":{"ha":1083,"x_min":42,"x_max":1042,"o":"m 542 986 q 341 948 432 986 q 183 842 250 910 q 78 684 115 775 q 42 486 42 593 q 78 289 42 381 q 183 130 115 197 q 341 24 250 63 q 542 -14 432 -14 q 742 24 650 -14 q 901 130 833 63 q 1005 289 968 197 q 1042 486 1042 381 q 1005 684 1042 593 q 901 842 968 775 q 742 948 833 910 q 542 986 650 986 m 858 486 q 817 324 858 396 q 706 211 776 253 q 542 169 635 169 q 376 211 449 169 q 263 324 304 253 q 222 486 222 396 q 263 650 222 578 q 376 764 304 722 q 542 806 449 806 q 706 764 635 806 q 817 650 776 722 q 858 486 858 578 m 261 1056 l 824 1056 l 824 1117 l 261 1117 l 261 1056 "},"Ø":{"ha":1083,"x_min":42,"x_max":1042,"o":"m 542 986 q 341 948 432 986 q 183 842 250 910 q 78 684 115 775 q 42 486 42 593 q 92 257 42 361 q 233 86 143 153 l 163 -14 l 213 -14 l 267 63 q 394 6 325 26 q 542 -14 464 -14 q 742 24 650 -14 q 901 130 833 63 q 1005 289 968 197 q 1042 486 1042 381 q 990 715 1042 611 q 850 886 939 819 l 921 986 l 872 986 l 818 910 q 690 966 760 946 q 542 986 619 986 m 222 486 q 263 650 222 578 q 376 764 304 722 q 542 806 449 806 q 711 760 636 806 l 339 236 q 253 343 285 278 q 222 486 222 408 m 858 486 q 817 324 858 396 q 706 211 776 253 q 542 169 635 169 q 374 213 447 169 l 744 738 q 828 629 797 694 q 858 486 858 564 "},"Õ":{"ha":1083,"x_min":42,"x_max":1042,"o":"m 542 986 q 341 948 432 986 q 183 842 250 910 q 78 684 115 775 q 42 486 42 593 q 78 289 42 381 q 183 130 115 197 q 341 24 250 63 q 542 -14 432 -14 q 742 24 650 -14 q 901 130 833 63 q 1005 289 968 197 q 1042 486 1042 381 q 1005 684 1042 593 q 901 842 968 775 q 742 948 833 910 q 542 986 650 986 m 858 486 q 817 324 858 396 q 706 211 776 253 q 542 169 635 169 q 376 211 449 169 q 263 324 304 253 q 222 486 222 396 q 263 650 222 578 q 376 764 304 722 q 542 806 449 806 q 706 764 635 806 q 817 650 776 722 q 858 486 858 578 m 283 1039 l 347 1039 q 370 1102 350 1074 q 433 1133 390 1131 q 501 1115 469 1136 q 569 1069 533 1093 q 653 1039 606 1046 q 761 1063 722 1029 q 800 1174 800 1097 l 736 1174 q 729 1127 736 1149 q 703 1097 722 1106 q 644 1100 683 1088 q 579 1135 611 1113 q 510 1175 547 1157 q 425 1189 474 1193 q 340 1158 371 1185 q 296 1098 308 1132 q 283 1039 283 1064 "},"Œ":{"ha":751,"x_min":42,"x_max":710,"o":"m 285 0 l 710 0 l 710 179 l 528 179 l 528 382 l 649 382 l 649 590 l 528 590 l 528 792 l 710 792 l 710 972 l 285 972 q 163 940 218 972 q 74 852 107 907 q 42 729 42 797 l 42 243 q 74 120 42 175 q 163 33 107 65 q 285 0 218 0 m 285 183 q 259 194 269 183 q 249 218 249 204 l 249 756 q 259 781 249 771 q 285 792 269 792 q 310 781 300 792 q 319 756 319 771 l 319 218 q 310 194 319 204 q 285 183 300 183 "},"P":{"ha":569,"x_min":42,"x_max":528,"o":"m 42 0 l 249 0 l 249 267 l 257 267 q 393 303 332 267 q 491 400 454 339 q 528 536 528 461 l 528 703 q 491 839 528 778 q 393 936 454 900 q 257 972 332 972 l 42 972 l 42 0 m 249 447 l 249 792 l 253 792 q 286 788 271 792 q 310 764 301 783 q 319 697 319 744 l 319 540 q 310 475 319 494 q 286 451 301 456 q 253 447 271 447 l 249 447 "},"Þ":{"ha":569,"x_min":42,"x_max":528,"o":"m 42 0 l 249 0 l 249 133 l 257 133 q 393 169 332 133 q 491 267 454 206 q 528 403 528 328 l 528 569 q 491 706 528 644 q 393 803 454 767 q 257 839 332 839 l 257 972 l 42 972 l 42 0 m 249 314 l 249 658 l 253 658 q 286 654 271 658 q 310 631 301 650 q 319 564 319 611 l 319 407 q 310 342 319 361 q 286 318 301 322 q 253 314 271 314 l 249 314 "},"Q":{"ha":571,"x_min":42,"x_max":528,"o":"m 351 -122 l 528 -122 l 528 -101 l 439 33 l 439 54 q 503 138 479 89 q 528 243 528 186 l 528 743 q 495 865 528 810 q 408 953 463 921 q 285 986 353 986 q 163 953 218 986 q 74 865 107 921 q 42 743 42 810 l 42 243 q 74 120 42 175 q 163 33 107 65 q 285 0 218 0 l 286 0 l 351 -122 m 285 179 q 260 190 271 179 q 249 215 249 200 l 249 756 q 260 781 249 771 q 285 792 271 792 q 311 781 300 792 q 322 756 322 771 l 322 215 q 311 190 322 200 q 285 179 300 179 "},"R":{"ha":569,"x_min":42,"x_max":528,"o":"m 42 0 l 249 0 l 249 268 l 261 268 l 319 0 l 528 0 l 442 318 l 442 339 q 510 442 492 385 q 528 536 528 500 l 528 699 q 491 837 528 775 q 392 935 454 899 q 254 972 329 972 l 42 972 l 42 0 m 249 447 l 249 792 l 260 792 q 302 776 285 792 q 319 703 319 761 l 319 536 q 302 462 319 476 q 260 447 285 447 l 249 447 "},"Ŕ":{"ha":958,"x_min":42,"x_max":917,"o":"m 42 0 l 249 0 l 249 268 l 611 268 l 708 0 l 917 0 l 794 318 l 794 339 q 886 468 856 396 q 917 619 917 540 q 869 797 917 717 q 741 924 821 876 q 564 972 661 972 l 42 972 l 42 0 m 249 447 l 249 792 l 515 792 q 661 743 614 792 q 708 621 708 694 q 661 497 708 547 q 515 447 614 447 l 249 447 m 228 1115 l 239 1056 l 731 1146 l 719 1206 l 228 1115 "},"Ř":{"ha":958,"x_min":42,"x_max":917,"o":"m 42 0 l 249 0 l 249 268 l 611 268 l 708 0 l 917 0 l 794 318 l 794 339 q 886 468 856 396 q 917 619 917 540 q 869 797 917 717 q 741 924 821 876 q 564 972 661 972 l 42 972 l 42 0 m 249 447 l 249 792 l 515 792 q 661 743 614 792 q 708 621 708 694 q 661 497 708 547 q 515 447 614 447 l 249 447 m 186 1225 l 157 1172 l 453 1024 l 749 1172 l 719 1225 l 467 1097 l 439 1097 l 186 1225 "},"Ŗ":{"ha":958,"x_min":42,"x_max":917,"o":"m 42 0 l 249 0 l 249 268 l 611 268 l 708 0 l 917 0 l 794 318 l 794 339 q 886 468 856 396 q 917 619 917 540 q 869 797 917 717 q 741 924 821 876 q 564 972 661 972 l 42 972 l 42 0 m 249 447 l 249 792 l 515 792 q 661 743 614 792 q 708 621 708 694 q 661 497 708 547 q 515 447 614 447 l 249 447 m 446 -236 l 488 -236 l 513 -78 l 513 -64 l 446 -64 l 446 -236 "},"S":{"ha":569,"x_min":42,"x_max":528,"o":"m 285 -14 q 408 19 353 -14 q 495 106 463 51 q 528 229 528 161 l 528 235 q 497 341 528 290 q 435 443 467 392 l 263 717 q 252 735 256 729 q 249 751 249 742 q 260 778 249 767 q 285 789 271 789 q 311 778 300 789 q 322 751 322 767 l 322 644 l 528 644 l 528 743 q 495 866 528 811 q 408 953 463 921 q 285 986 353 986 q 163 953 218 986 q 74 866 107 921 q 42 743 42 811 l 42 738 q 58 673 42 707 q 99 605 75 639 q 140 540 122 571 l 307 268 q 319 244 317 253 q 322 222 322 235 q 311 197 322 208 q 285 185 300 185 q 259 197 269 185 q 249 222 249 208 l 249 340 l 42 340 l 42 229 q 74 106 42 161 q 163 19 107 51 q 285 -14 218 -14 "},"Ś":{"ha":996,"x_min":42,"x_max":954,"o":"m 515 -14 q 738 16 639 -14 q 896 101 838 46 q 954 235 954 157 q 910 378 954 324 q 791 466 867 432 q 619 526 715 500 q 463 565 533 550 q 342 594 393 579 q 264 631 292 608 q 236 694 236 654 q 305 787 236 754 q 510 819 374 819 q 697 777 635 819 q 760 663 760 735 l 760 644 l 954 644 l 954 694 q 895 844 954 779 q 737 948 836 910 q 515 986 638 986 q 253 945 358 986 q 94 838 147 904 q 42 694 42 771 q 62 603 42 642 q 112 539 82 565 q 174 497 142 513 q 231 474 206 482 q 448 414 350 436 q 615 373 546 392 q 722 331 685 354 q 760 268 760 307 q 693 185 760 204 q 515 167 626 167 q 391 178 446 167 q 305 224 336 190 q 274 324 274 258 l 274 340 l 79 340 l 79 296 q 138 117 79 186 q 297 17 197 49 q 515 -14 396 -14 m 247 1088 l 258 1028 l 750 1118 l 739 1178 l 247 1088 "},"Š":{"ha":996,"x_min":42,"x_max":954,"o":"m 515 -14 q 738 16 639 -14 q 896 101 838 46 q 954 235 954 157 q 910 378 954 324 q 791 466 867 432 q 619 526 715 500 q 463 565 533 550 q 342 594 393 579 q 264 631 292 608 q 236 694 236 654 q 305 787 236 754 q 510 819 374 819 q 697 777 635 819 q 760 663 760 735 l 760 644 l 954 644 l 954 694 q 895 844 954 779 q 737 948 836 910 q 515 986 638 986 q 253 945 358 986 q 94 838 147 904 q 42 694 42 771 q 62 603 42 642 q 112 539 82 565 q 174 497 142 513 q 231 474 206 482 q 448 414 350 436 q 615 373 546 392 q 722 331 685 354 q 760 268 760 307 q 693 185 760 204 q 515 167 626 167 q 391 178 446 167 q 305 224 336 190 q 274 324 274 258 l 274 340 l 79 340 l 79 296 q 138 117 79 186 q 297 17 197 49 q 515 -14 396 -14 m 232 1225 l 203 1172 l 499 1024 l 794 1172 l 765 1225 l 513 1097 l 485 1097 l 232 1225 "},"Ş":{"ha":996,"x_min":42,"x_max":954,"o":"m 515 -14 q 738 16 639 -14 q 896 101 838 46 q 954 235 954 157 q 910 378 954 324 q 791 466 867 432 q 619 526 715 500 q 463 565 533 550 q 342 594 393 579 q 264 631 292 608 q 236 694 236 654 q 305 787 236 754 q 510 819 374 819 q 697 777 635 819 q 760 663 760 735 l 760 644 l 954 644 l 954 694 q 895 844 954 779 q 737 948 836 910 q 515 986 638 986 q 253 945 358 986 q 94 838 147 904 q 42 694 42 771 q 62 603 42 642 q 112 539 82 565 q 174 497 142 513 q 231 474 206 482 q 448 414 350 436 q 615 373 546 392 q 722 331 685 354 q 760 268 760 307 q 693 185 760 204 q 515 167 626 167 q 391 178 446 167 q 305 224 336 190 q 274 324 274 258 l 274 340 l 79 340 l 79 296 q 138 117 79 186 q 297 17 197 49 q 515 -14 396 -14 m 506 0 q 518 -58 506 -37 q 544 -90 531 -78 q 563 -122 558 -103 q 555 -164 568 -146 q 517 -182 542 -182 q 470 -158 486 -182 q 468 -87 454 -135 l 425 -82 q 421 -153 413 -118 q 454 -210 429 -187 q 517 -232 479 -232 q 586 -201 561 -232 q 611 -139 611 -171 q 602 -94 611 -111 q 581 -65 593 -78 q 559 -38 568 -53 q 550 0 550 -24 l 506 0 "},"Ș":{"ha":996,"x_min":42,"x_max":954,"o":"m 515 -14 q 738 16 639 -14 q 896 101 838 46 q 954 235 954 157 q 910 378 954 324 q 791 466 867 432 q 619 526 715 500 q 463 565 533 550 q 342 594 393 579 q 264 631 292 608 q 236 694 236 654 q 305 787 236 754 q 510 819 374 819 q 697 777 635 819 q 760 663 760 735 l 760 644 l 954 644 l 954 694 q 895 844 954 779 q 737 948 836 910 q 515 986 638 986 q 253 945 358 986 q 94 838 147 904 q 42 694 42 771 q 62 603 42 642 q 112 539 82 565 q 174 497 142 513 q 231 474 206 482 q 448 414 350 436 q 615 373 546 392 q 722 331 685 354 q 760 268 760 307 q 693 185 760 204 q 515 167 626 167 q 391 178 446 167 q 305 224 336 190 q 274 324 274 258 l 274 340 l 79 340 l 79 296 q 138 117 79 186 q 297 17 197 49 q 515 -14 396 -14 m 464 -236 l 506 -236 l 531 -78 l 531 -64 l 464 -64 l 464 -236 "},"ẞ":{"ha":951,"x_min":42,"x_max":910,"o":"m 624 -14 q 767 18 703 -14 q 871 115 832 50 q 910 281 910 181 q 873 424 910 360 q 766 522 836 488 q 596 549 696 557 l 596 569 l 826 792 l 826 972 l 42 972 l 42 -14 l 243 -14 l 243 792 l 604 792 l 604 778 l 410 590 l 410 382 l 618 382 q 687 351 658 382 q 715 281 715 321 q 687 208 715 238 q 618 179 658 179 l 410 179 l 410 -14 l 624 -14 "},"T":{"ha":556,"x_min":42,"x_max":514,"o":"m 174 0 l 382 0 l 382 792 l 514 792 l 514 972 l 42 972 l 42 792 l 174 792 l 174 0 "},"Ť":{"ha":958,"x_min":42,"x_max":917,"o":"m 375 0 l 583 0 l 583 792 l 917 792 l 917 972 l 42 972 l 42 792 l 375 792 l 375 0 m 213 1225 l 183 1172 l 479 1024 l 775 1172 l 746 1225 l 493 1097 l 465 1097 l 213 1225 "},"Ț":{"ha":958,"x_min":42,"x_max":917,"o":"m 375 0 l 583 0 l 583 792 l 917 792 l 917 972 l 42 972 l 42 792 l 375 792 l 375 0 m 446 -236 l 488 -236 l 513 -78 l 513 -64 l 446 -64 l 446 -236 "},"U":{"ha":569,"x_min":42,"x_max":528,"o":"m 285 -14 q 408 19 353 -14 q 495 106 463 51 q 528 229 528 161 l 528 972 l 322 972 l 322 217 q 311 190 322 201 q 285 179 300 179 q 260 190 271 179 q 249 217 249 201 l 249 972 l 42 972 l 42 229 q 74 106 42 161 q 163 19 107 51 q 285 -14 218 -14 "},"Ú":{"ha":1056,"x_min":42,"x_max":1014,"o":"m 807 472 q 769 331 807 394 q 667 231 731 268 q 528 194 604 194 q 388 231 451 194 q 288 331 325 268 q 250 472 250 394 l 250 972 l 42 972 l 42 472 q 79 284 42 372 q 184 128 117 196 q 340 24 251 61 q 528 -14 428 -14 q 716 24 628 -14 q 872 128 804 61 q 976 284 939 196 q 1014 472 1014 372 l 1014 972 l 807 972 l 807 472 m 276 1088 l 288 1028 l 779 1118 l 768 1178 l 276 1088 "},"Ŭ":{"ha":1056,"x_min":42,"x_max":1014,"o":"m 807 472 q 769 331 807 394 q 667 231 731 268 q 528 194 604 194 q 388 231 451 194 q 288 331 325 268 q 250 472 250 394 l 250 972 l 42 972 l 42 472 q 79 284 42 372 q 184 128 117 196 q 340 24 251 61 q 528 -14 428 -14 q 716 24 628 -14 q 872 128 804 61 q 976 284 939 196 q 1014 472 1014 372 l 1014 972 l 807 972 l 807 472 m 528 1028 q 661 1049 601 1028 q 756 1105 721 1069 q 792 1182 792 1140 l 721 1182 q 663 1113 715 1139 q 528 1086 611 1086 q 394 1113 447 1086 q 333 1182 340 1139 l 264 1182 q 299 1105 264 1140 q 395 1049 335 1069 q 528 1028 456 1028 "},"Û":{"ha":1056,"x_min":42,"x_max":1014,"o":"m 807 472 q 769 331 807 394 q 667 231 731 268 q 528 194 604 194 q 388 231 451 194 q 288 331 325 268 q 250 472 250 394 l 250 972 l 42 972 l 42 472 q 79 284 42 372 q 184 128 117 196 q 340 24 251 61 q 528 -14 428 -14 q 716 24 628 -14 q 872 128 804 61 q 976 284 939 196 q 1014 472 1014 372 l 1014 972 l 807 972 l 807 472 m 261 1028 l 514 1156 l 542 1156 l 794 1028 l 824 1081 l 528 1229 l 232 1081 l 261 1028 "},"Ü":{"ha":1056,"x_min":42,"x_max":1014,"o":"m 807 472 q 769 331 807 394 q 667 231 731 268 q 528 194 604 194 q 388 231 451 194 q 288 331 325 268 q 250 472 250 394 l 250 972 l 42 972 l 42 472 q 79 284 42 372 q 184 128 117 196 q 340 24 251 61 q 528 -14 428 -14 q 716 24 628 -14 q 872 128 804 61 q 976 284 939 196 q 1014 472 1014 372 l 1014 972 l 807 972 l 807 472 m 363 1201 l 363 1057 l 493 1057 l 493 1201 l 363 1201 m 568 1201 l 568 1057 l 699 1057 l 699 1201 l 568 1201 "},"Ụ":{"ha":1056,"x_min":42,"x_max":1014,"o":"m 807 472 q 769 331 807 394 q 667 231 731 268 q 528 194 604 194 q 388 231 451 194 q 288 331 325 268 q 250 472 250 394 l 250 972 l 42 972 l 42 472 q 79 284 42 372 q 184 128 117 196 q 340 24 251 61 q 528 -14 428 -14 q 716 24 628 -14 q 872 128 804 61 q 976 284 939 196 q 1014 472 1014 372 l 1014 972 l 807 972 l 807 472 m 417 -64 l 417 -190 l 639 -190 l 639 -64 l 417 -64 "},"Ù":{"ha":1056,"x_min":42,"x_max":1014,"o":"m 807 472 q 769 331 807 394 q 667 231 731 268 q 528 194 604 194 q 388 231 451 194 q 288 331 325 268 q 250 472 250 394 l 250 972 l 42 972 l 42 472 q 79 284 42 372 q 184 128 117 196 q 340 24 251 61 q 528 -14 428 -14 q 716 24 628 -14 q 872 128 804 61 q 976 284 939 196 q 1014 472 1014 372 l 1014 972 l 807 972 l 807 472 m 779 1088 l 288 1178 l 276 1118 l 768 1028 l 779 1088 "},"Ủ":{"ha":1056,"x_min":42,"x_max":1014,"o":"m 807 472 q 769 331 807 394 q 667 231 731 268 q 528 194 604 194 q 388 231 451 194 q 288 331 325 268 q 250 472 250 394 l 250 972 l 42 972 l 42 472 q 79 284 42 372 q 184 128 117 196 q 340 24 251 61 q 528 -14 428 -14 q 716 24 628 -14 q 872 128 804 61 q 976 284 939 196 q 1014 472 1014 372 l 1014 972 l 807 972 l 807 472 m 489 1014 l 565 1014 q 584 1045 565 1038 q 627 1059 603 1053 q 670 1081 651 1065 q 689 1136 689 1097 q 642 1215 689 1186 q 528 1244 596 1244 q 413 1215 460 1244 q 365 1136 365 1186 l 365 1122 l 435 1122 l 435 1133 q 467 1172 435 1163 q 528 1182 499 1182 q 588 1173 556 1182 q 619 1136 619 1164 q 600 1108 619 1115 q 554 1092 581 1100 q 508 1068 528 1085 q 489 1014 489 1051 "},"Ư":{"ha":1082,"x_min":42,"x_max":1040,"o":"m 915 972 q 909 886 915 928 q 888 818 903 844 q 846 792 872 792 l 846 972 l 636 972 l 636 372 q 610 275 636 319 q 541 205 585 231 q 443 179 497 179 q 345 205 389 179 q 275 275 301 231 q 249 372 249 319 l 249 972 l 42 972 l 42 388 q 73 231 42 304 q 160 103 104 158 q 288 17 215 49 q 444 -14 361 -14 q 601 17 528 -14 q 728 103 674 49 q 815 231 783 158 q 846 388 846 304 l 846 682 q 950 711 911 682 q 1008 786 989 740 q 1034 882 1028 832 q 1040 972 1040 932 l 915 972 "},"Ứ":{"ha":1082,"x_min":42,"x_max":1040,"o":"m 915 972 q 909 886 915 928 q 888 818 903 844 q 846 792 872 792 l 846 972 l 636 972 l 636 372 q 610 275 636 319 q 541 205 585 231 q 443 179 497 179 q 345 205 389 179 q 275 275 301 231 q 249 372 249 319 l 249 972 l 42 972 l 42 388 q 73 231 42 304 q 160 103 104 158 q 288 17 215 49 q 444 -14 361 -14 q 601 17 528 -14 q 728 103 674 49 q 815 231 783 158 q 846 388 846 304 l 846 682 q 950 711 911 682 q 1008 786 989 740 q 1034 882 1028 832 q 1040 972 1040 932 l 915 972 m 192 1088 l 203 1028 l 694 1118 l 683 1178 l 192 1088 "},"Ự":{"ha":1082,"x_min":42,"x_max":1040,"o":"m 915 972 q 909 886 915 928 q 888 818 903 844 q 846 792 872 792 l 846 972 l 636 972 l 636 372 q 610 275 636 319 q 541 205 585 231 q 443 179 497 179 q 345 205 389 179 q 275 275 301 231 q 249 372 249 319 l 249 972 l 42 972 l 42 388 q 73 231 42 304 q 160 103 104 158 q 288 17 215 49 q 444 -14 361 -14 q 601 17 528 -14 q 728 103 674 49 q 815 231 783 158 q 846 388 846 304 l 846 682 q 950 711 911 682 q 1008 786 989 740 q 1034 882 1028 832 q 1040 972 1040 932 l 915 972 m 332 -64 l 332 -190 l 554 -190 l 554 -64 l 332 -64 "},"Ừ":{"ha":1082,"x_min":42,"x_max":1040,"o":"m 915 972 q 909 886 915 928 q 888 818 903 844 q 846 792 872 792 l 846 972 l 636 972 l 636 372 q 610 275 636 319 q 541 205 585 231 q 443 179 497 179 q 345 205 389 179 q 275 275 301 231 q 249 372 249 319 l 249 972 l 42 972 l 42 388 q 73 231 42 304 q 160 103 104 158 q 288 17 215 49 q 444 -14 361 -14 q 601 17 528 -14 q 728 103 674 49 q 815 231 783 158 q 846 388 846 304 l 846 682 q 950 711 911 682 q 1008 786 989 740 q 1034 882 1028 832 q 1040 972 1040 932 l 915 972 m 696 1088 l 204 1178 l 193 1118 l 685 1028 l 696 1088 "},"Ử":{"ha":1082,"x_min":42,"x_max":1040,"o":"m 915 972 q 909 886 915 928 q 888 818 903 844 q 846 792 872 792 l 846 972 l 636 972 l 636 372 q 610 275 636 319 q 541 205 585 231 q 443 179 497 179 q 345 205 389 179 q 275 275 301 231 q 249 372 249 319 l 249 972 l 42 972 l 42 388 q 73 231 42 304 q 160 103 104 158 q 288 17 215 49 q 444 -14 361 -14 q 601 17 528 -14 q 728 103 674 49 q 815 231 783 158 q 846 388 846 304 l 846 682 q 950 711 911 682 q 1008 786 989 740 q 1034 882 1028 832 q 1040 972 1040 932 l 915 972 m 406 1014 l 482 1014 q 501 1045 482 1038 q 544 1059 519 1053 q 587 1081 568 1065 q 606 1136 606 1097 q 559 1215 606 1186 q 444 1244 513 1244 q 329 1215 376 1244 q 282 1136 282 1186 l 282 1122 l 351 1122 l 351 1133 q 383 1172 351 1163 q 444 1182 415 1182 q 504 1173 472 1182 q 536 1136 536 1164 q 517 1108 536 1115 q 471 1092 497 1100 q 425 1068 444 1085 q 406 1014 406 1051 "},"Ữ":{"ha":1082,"x_min":42,"x_max":1040,"o":"m 915 972 q 909 886 915 928 q 888 818 903 844 q 846 792 872 792 l 846 972 l 636 972 l 636 372 q 610 275 636 319 q 541 205 585 231 q 443 179 497 179 q 345 205 389 179 q 275 275 301 231 q 249 372 249 319 l 249 972 l 42 972 l 42 388 q 73 231 42 304 q 160 103 104 158 q 288 17 215 49 q 444 -14 361 -14 q 601 17 528 -14 q 728 103 674 49 q 815 231 783 158 q 846 388 846 304 l 846 682 q 950 711 911 682 q 1008 786 989 740 q 1034 882 1028 832 q 1040 972 1040 932 l 915 972 m 186 1039 l 250 1039 q 273 1102 253 1074 q 336 1133 293 1131 q 404 1115 372 1136 q 472 1069 436 1093 q 556 1039 508 1046 q 664 1063 625 1029 q 703 1174 703 1097 l 639 1174 q 632 1127 639 1149 q 606 1097 625 1106 q 547 1100 586 1088 q 482 1135 514 1113 q 413 1175 450 1157 q 328 1189 376 1193 q 242 1158 274 1185 q 199 1098 211 1132 q 186 1039 186 1064 "},"Ű":{"ha":1056,"x_min":42,"x_max":1014,"o":"m 807 472 q 769 331 807 394 q 667 231 731 268 q 528 194 604 194 q 388 231 451 194 q 288 331 325 268 q 250 472 250 394 l 250 972 l 42 972 l 42 472 q 79 284 42 372 q 184 128 117 196 q 340 24 251 61 q 528 -14 428 -14 q 716 24 628 -14 q 872 128 804 61 q 976 284 939 196 q 1014 472 1014 372 l 1014 972 l 807 972 l 807 472 m 369 1060 l 417 1028 l 601 1258 l 553 1290 l 369 1060 m 554 1060 l 601 1028 l 786 1258 l 738 1290 l 554 1060 "},"Ū":{"ha":1056,"x_min":42,"x_max":1014,"o":"m 807 472 q 769 331 807 394 q 667 231 731 268 q 528 194 604 194 q 388 231 451 194 q 288 331 325 268 q 250 472 250 394 l 250 972 l 42 972 l 42 472 q 79 284 42 372 q 184 128 117 196 q 340 24 251 61 q 528 -14 428 -14 q 716 24 628 -14 q 872 128 804 61 q 976 284 939 196 q 1014 472 1014 372 l 1014 972 l 807 972 l 807 472 m 247 1056 l 810 1056 l 810 1117 l 247 1117 l 247 1056 "},"Ų":{"ha":1056,"x_min":42,"x_max":1014,"o":"m 807 472 q 769 331 807 394 q 667 231 731 268 q 528 194 604 194 q 388 231 451 194 q 288 331 325 268 q 250 472 250 394 l 250 972 l 42 972 l 42 472 q 79 284 42 372 q 184 128 117 196 q 340 24 251 61 q 528 -14 428 -14 q 716 24 628 -14 q 872 128 804 61 q 976 284 939 196 q 1014 472 1014 372 l 1014 972 l 807 972 l 807 472 m 554 0 l 510 0 q 501 -38 510 -24 q 479 -65 492 -53 q 458 -94 467 -78 q 449 -139 449 -111 q 474 -201 449 -171 q 543 -232 499 -232 q 606 -210 581 -232 q 640 -153 631 -187 q 635 -82 649 -118 l 592 -87 q 590 -158 607 -135 q 543 -182 574 -182 q 505 -164 518 -182 q 497 -122 492 -146 q 515 -90 501 -103 q 542 -58 529 -78 q 554 0 554 -37 "},"Ů":{"ha":1056,"x_min":42,"x_max":1014,"o":"m 807 472 q 769 331 807 394 q 667 231 731 268 q 528 194 604 194 q 388 231 451 194 q 288 331 325 268 q 250 472 250 394 l 250 972 l 42 972 l 42 472 q 79 284 42 372 q 184 128 117 196 q 340 24 251 61 q 528 -14 428 -14 q 716 24 628 -14 q 872 128 804 61 q 976 284 939 196 q 1014 472 1014 372 l 1014 972 l 807 972 l 807 472 m 528 1056 q 610 1090 576 1056 q 643 1171 643 1124 q 610 1253 643 1219 q 528 1286 576 1286 q 447 1253 481 1286 q 413 1171 413 1219 q 447 1090 413 1124 q 528 1056 481 1056 m 526 1104 q 480 1123 499 1104 q 461 1169 461 1142 q 480 1219 461 1200 q 526 1238 499 1238 q 576 1219 557 1238 q 594 1169 594 1200 q 576 1123 594 1142 q 526 1104 557 1104 "},"Ũ":{"ha":1056,"x_min":42,"x_max":1014,"o":"m 807 472 q 769 331 807 394 q 667 231 731 268 q 528 194 604 194 q 388 231 451 194 q 288 331 325 268 q 250 472 250 394 l 250 972 l 42 972 l 42 472 q 79 284 42 372 q 184 128 117 196 q 340 24 251 61 q 528 -14 428 -14 q 716 24 628 -14 q 872 128 804 61 q 976 284 939 196 q 1014 472 1014 372 l 1014 972 l 807 972 l 807 472 m 269 1039 l 333 1039 q 356 1102 336 1074 q 419 1133 376 1131 q 488 1115 456 1136 q 556 1069 519 1093 q 639 1039 592 1046 q 747 1063 708 1029 q 786 1174 786 1097 l 722 1174 q 715 1127 722 1149 q 689 1097 708 1106 q 631 1100 669 1088 q 565 1135 597 1113 q 497 1175 533 1157 q 411 1189 460 1193 q 326 1158 357 1185 q 282 1098 294 1132 q 269 1039 269 1064 "},"V":{"ha":571,"x_min":42,"x_max":528,"o":"m 167 0 l 403 0 l 528 951 l 528 972 l 319 972 l 293 278 l 275 278 l 249 972 l 42 972 l 42 951 l 167 0 "},"W":{"ha":690,"x_min":42,"x_max":649,"o":"m 103 0 l 311 0 l 335 347 l 357 347 l 379 0 l 589 0 l 649 951 l 649 972 l 494 972 l 475 540 l 457 540 l 406 972 l 285 972 l 233 540 l 215 540 l 196 972 l 42 972 l 42 951 l 103 0 "},"Ẃ":{"ha":958,"x_min":42,"x_max":917,"o":"m 129 0 l 444 0 l 469 306 l 490 306 l 514 0 l 831 0 l 917 951 l 917 972 l 696 972 l 661 243 l 643 243 l 565 969 l 392 969 l 317 243 l 294 243 l 263 972 l 42 972 l 42 951 l 129 0 m 228 1088 l 239 1028 l 731 1118 l 719 1178 l 228 1088 "},"Ŵ":{"ha":958,"x_min":42,"x_max":917,"o":"m 129 0 l 444 0 l 469 306 l 490 306 l 514 0 l 831 0 l 917 951 l 917 972 l 696 972 l 661 243 l 643 243 l 565 969 l 392 969 l 317 243 l 294 243 l 263 972 l 42 972 l 42 951 l 129 0 m 213 1028 l 465 1156 l 493 1156 l 746 1028 l 775 1081 l 479 1229 l 183 1081 l 213 1028 "},"Ẅ":{"ha":958,"x_min":42,"x_max":917,"o":"m 129 0 l 444 0 l 469 306 l 490 306 l 514 0 l 831 0 l 917 951 l 917 972 l 696 972 l 661 243 l 643 243 l 565 969 l 392 969 l 317 243 l 294 243 l 263 972 l 42 972 l 42 951 l 129 0 m 314 1201 l 314 1057 l 444 1057 l 444 1201 l 314 1201 m 519 1201 l 519 1057 l 650 1057 l 650 1201 l 519 1201 "},"Ẁ":{"ha":958,"x_min":42,"x_max":917,"o":"m 129 0 l 444 0 l 469 306 l 490 306 l 514 0 l 831 0 l 917 951 l 917 972 l 696 972 l 661 243 l 643 243 l 565 969 l 392 969 l 317 243 l 294 243 l 263 972 l 42 972 l 42 951 l 129 0 m 731 1088 l 239 1178 l 228 1118 l 719 1028 l 731 1088 "},"X":{"ha":569,"x_min":42,"x_max":528,"o":"m 42 0 l 249 0 l 276 313 l 294 313 l 322 0 l 528 0 l 528 21 l 396 486 l 528 951 l 528 972 l 324 972 l 294 660 l 276 660 l 247 972 l 42 972 l 42 951 l 175 486 l 42 21 l 42 0 "},"Y":{"ha":571,"x_min":42,"x_max":528,"o":"m 182 0 l 389 0 l 389 432 l 528 951 l 528 972 l 322 972 l 294 611 l 276 611 l 249 972 l 42 972 l 42 951 l 182 432 l 182 0 "},"Ý":{"ha":1056,"x_min":42,"x_max":1014,"o":"m 779 972 l 538 611 l 518 611 l 278 972 l 42 972 l 42 951 l 424 432 l 424 0 l 632 0 l 632 432 l 1014 951 l 1014 972 l 779 972 m 276 1088 l 288 1028 l 779 1118 l 768 1178 l 276 1088 "},"Ŷ":{"ha":1056,"x_min":42,"x_max":1014,"o":"m 779 972 l 538 611 l 518 611 l 278 972 l 42 972 l 42 951 l 424 432 l 424 0 l 632 0 l 632 432 l 1014 951 l 1014 972 l 779 972 m 261 1028 l 514 1156 l 542 1156 l 794 1028 l 824 1081 l 528 1229 l 232 1081 l 261 1028 "},"Ÿ":{"ha":1056,"x_min":42,"x_max":1014,"o":"m 779 972 l 538 611 l 518 611 l 278 972 l 42 972 l 42 951 l 424 432 l 424 0 l 632 0 l 632 432 l 1014 951 l 1014 972 l 779 972 m 363 1201 l 363 1057 l 493 1057 l 493 1201 l 363 1201 m 568 1201 l 568 1057 l 699 1057 l 699 1201 l 568 1201 "},"Ỵ":{"ha":1056,"x_min":42,"x_max":1014,"o":"m 779 972 l 538 611 l 518 611 l 278 972 l 42 972 l 42 951 l 424 432 l 424 0 l 632 0 l 632 432 l 1014 951 l 1014 972 l 779 972 m 417 -64 l 417 -190 l 639 -190 l 639 -64 l 417 -64 "},"Ỳ":{"ha":1056,"x_min":42,"x_max":1014,"o":"m 779 972 l 538 611 l 518 611 l 278 972 l 42 972 l 42 951 l 424 432 l 424 0 l 632 0 l 632 432 l 1014 951 l 1014 972 l 779 972 m 779 1088 l 288 1178 l 276 1118 l 768 1028 l 779 1088 "},"Ỷ":{"ha":1056,"x_min":42,"x_max":1014,"o":"m 779 972 l 538 611 l 518 611 l 278 972 l 42 972 l 42 951 l 424 432 l 424 0 l 632 0 l 632 432 l 1014 951 l 1014 972 l 779 972 m 489 1028 l 565 1028 q 584 1059 565 1051 q 627 1073 603 1067 q 670 1095 651 1079 q 689 1150 689 1111 q 642 1229 689 1200 q 528 1258 596 1258 q 413 1229 460 1258 q 365 1150 365 1200 l 365 1136 l 435 1136 l 435 1147 q 467 1186 435 1176 q 528 1196 499 1196 q 588 1187 556 1196 q 619 1150 619 1178 q 600 1122 619 1129 q 554 1106 581 1114 q 508 1082 528 1099 q 489 1028 489 1065 "},"Ỹ":{"ha":1056,"x_min":42,"x_max":1014,"o":"m 779 972 l 538 611 l 518 611 l 278 972 l 42 972 l 42 951 l 424 432 l 424 0 l 632 0 l 632 432 l 1014 951 l 1014 972 l 779 972 m 269 1056 l 333 1056 q 356 1119 336 1090 q 419 1150 376 1147 q 488 1131 456 1153 q 556 1086 519 1110 q 639 1056 592 1063 q 747 1080 708 1046 q 786 1190 786 1114 l 722 1190 q 715 1144 722 1165 q 689 1113 708 1122 q 631 1117 669 1104 q 565 1151 597 1129 q 497 1192 533 1174 q 411 1206 460 1210 q 326 1175 357 1201 q 282 1115 294 1149 q 269 1056 269 1081 "},"Z":{"ha":503,"x_min":42,"x_max":458,"o":"m 42 0 l 458 0 l 458 179 l 250 179 l 250 207 l 458 792 l 458 972 l 42 972 l 42 792 l 250 792 l 250 764 l 42 186 l 42 0 "},"Ź":{"ha":958,"x_min":42,"x_max":917,"o":"m 42 0 l 917 0 l 917 179 l 306 179 l 306 200 l 917 792 l 917 972 l 42 972 l 42 792 l 653 792 l 653 771 l 42 186 l 42 0 m 228 1115 l 239 1056 l 731 1146 l 719 1206 l 228 1115 "},"Ž":{"ha":958,"x_min":42,"x_max":917,"o":"m 42 0 l 917 0 l 917 179 l 306 179 l 306 200 l 917 792 l 917 972 l 42 972 l 42 792 l 653 792 l 653 771 l 42 186 l 42 0 m 213 1225 l 183 1172 l 479 1024 l 775 1172 l 746 1225 l 493 1097 l 465 1097 l 213 1225 "},"Ż":{"ha":958,"x_min":42,"x_max":917,"o":"m 42 0 l 917 0 l 917 179 l 306 179 l 306 200 l 917 792 l 917 972 l 42 972 l 42 792 l 653 792 l 653 771 l 42 186 l 42 0 m 417 1201 l 417 1057 l 547 1057 l 547 1201 l 417 1201 "},"a":{"ha":569,"x_min":42,"x_max":528,"o":"m 260 -14 q 322 2 290 -14 q 368 49 354 18 l 382 49 l 382 0 l 528 0 l 528 743 q 495 866 528 811 q 408 953 463 921 q 285 986 353 986 q 163 953 218 986 q 74 866 107 921 q 42 743 42 811 l 42 644 l 249 644 l 249 786 q 260 812 249 801 q 285 822 271 822 q 311 812 300 822 q 322 786 322 801 l 322 608 l 285 608 q 163 576 218 608 q 74 488 107 543 q 42 365 42 432 l 42 229 q 68 106 42 161 q 144 19 94 51 q 260 -14 193 -14 m 285 179 q 260 190 271 179 q 249 215 249 200 l 249 378 q 260 403 249 393 q 285 414 271 414 l 322 414 l 322 215 q 311 190 322 200 q 285 179 300 179 "},"á":{"ha":1054,"x_min":42,"x_max":1013,"o":"m 819 972 l 819 851 l 799 851 q 674 957 749 928 q 528 986 600 986 q 342 947 431 986 q 187 840 254 908 q 81 681 119 771 q 42 486 42 590 q 81 292 42 382 q 187 133 119 201 q 342 25 254 64 q 528 -14 431 -14 q 674 16 600 -14 q 799 122 747 46 l 819 122 l 819 0 l 1013 0 l 1013 972 l 819 972 m 542 183 q 390 224 460 183 q 280 335 321 265 q 239 486 239 404 q 280 639 239 569 q 390 750 321 708 q 542 792 460 792 q 694 750 625 792 q 806 639 764 708 q 847 486 847 569 q 806 335 847 404 q 694 224 764 265 q 542 183 625 183 m 275 1088 l 286 1028 l 778 1118 l 767 1178 l 275 1088 "},"ă":{"ha":1054,"x_min":42,"x_max":1013,"o":"m 819 972 l 819 851 l 799 851 q 674 957 749 928 q 528 986 600 986 q 342 947 431 986 q 187 840 254 908 q 81 681 119 771 q 42 486 42 590 q 81 292 42 382 q 187 133 119 201 q 342 25 254 64 q 528 -14 431 -14 q 674 16 600 -14 q 799 122 747 46 l 819 122 l 819 0 l 1013 0 l 1013 972 l 819 972 m 542 183 q 390 224 460 183 q 280 335 321 265 q 239 486 239 404 q 280 639 239 569 q 390 750 321 708 q 542 792 460 792 q 694 750 625 792 q 806 639 764 708 q 847 486 847 569 q 806 335 847 404 q 694 224 764 265 q 542 183 625 183 m 526 1042 q 660 1063 600 1042 q 755 1119 719 1083 q 790 1196 790 1154 l 719 1196 q 662 1126 714 1153 q 526 1100 610 1100 q 392 1126 446 1100 q 332 1196 339 1153 l 263 1196 q 298 1119 263 1154 q 394 1063 333 1083 q 526 1042 454 1042 "},"ắ":{"ha":1054,"x_min":42,"x_max":1013,"o":"m 819 972 l 819 851 l 799 851 q 674 957 749 928 q 528 986 600 986 q 342 947 431 986 q 187 840 254 908 q 81 681 119 771 q 42 486 42 590 q 81 292 42 382 q 187 133 119 201 q 342 25 254 64 q 528 -14 431 -14 q 674 16 600 -14 q 799 122 747 46 l 819 122 l 819 0 l 1013 0 l 1013 972 l 819 972 m 542 183 q 390 224 460 183 q 280 335 321 265 q 239 486 239 404 q 280 639 239 569 q 390 750 321 708 q 542 792 460 792 q 694 750 625 792 q 806 639 764 708 q 847 486 847 569 q 806 335 847 404 q 694 224 764 265 q 542 183 625 183 m 443 1242 l 474 1192 l 772 1331 l 746 1383 l 443 1242 m 526 1042 q 660 1063 600 1042 q 755 1119 719 1083 q 790 1196 790 1154 l 719 1196 q 662 1126 714 1153 q 526 1100 610 1100 q 392 1126 446 1100 q 332 1196 339 1153 l 263 1196 q 298 1119 263 1154 q 394 1063 333 1083 q 526 1042 454 1042 "},"ặ":{"ha":1054,"x_min":42,"x_max":1013,"o":"m 819 972 l 819 851 l 799 851 q 674 957 749 928 q 528 986 600 986 q 342 947 431 986 q 187 840 254 908 q 81 681 119 771 q 42 486 42 590 q 81 292 42 382 q 187 133 119 201 q 342 25 254 64 q 528 -14 431 -14 q 674 16 600 -14 q 799 122 747 46 l 819 122 l 819 0 l 1013 0 l 1013 972 l 819 972 m 542 183 q 390 224 460 183 q 280 335 321 265 q 239 486 239 404 q 280 639 239 569 q 390 750 321 708 q 542 792 460 792 q 694 750 625 792 q 806 639 764 708 q 847 486 847 569 q 806 335 847 404 q 694 224 764 265 q 542 183 625 183 m 526 1042 q 660 1063 600 1042 q 755 1119 719 1083 q 790 1196 790 1154 l 719 1196 q 662 1126 714 1153 q 526 1100 610 1100 q 392 1126 446 1100 q 332 1196 339 1153 l 263 1196 q 298 1119 263 1154 q 394 1063 333 1083 q 526 1042 454 1042 m 417 -64 l 417 -190 l 639 -190 l 639 -64 l 417 -64 "},"ằ":{"ha":1054,"x_min":42,"x_max":1013,"o":"m 819 972 l 819 851 l 799 851 q 674 957 749 928 q 528 986 600 986 q 342 947 431 986 q 187 840 254 908 q 81 681 119 771 q 42 486 42 590 q 81 292 42 382 q 187 133 119 201 q 342 25 254 64 q 528 -14 431 -14 q 674 16 600 -14 q 799 122 747 46 l 819 122 l 819 0 l 1013 0 l 1013 972 l 819 972 m 542 183 q 390 224 460 183 q 280 335 321 265 q 239 486 239 404 q 280 639 239 569 q 390 750 321 708 q 542 792 460 792 q 694 750 625 792 q 806 639 764 708 q 847 486 847 569 q 806 335 847 404 q 694 224 764 265 q 542 183 625 183 m 638 1242 l 335 1383 l 308 1331 l 607 1192 l 638 1242 m 526 1042 q 660 1063 600 1042 q 755 1119 719 1083 q 790 1196 790 1154 l 719 1196 q 662 1126 714 1153 q 526 1100 610 1100 q 392 1126 446 1100 q 332 1196 339 1153 l 263 1196 q 298 1119 263 1154 q 394 1063 333 1083 q 526 1042 454 1042 "},"ẳ":{"ha":1054,"x_min":42,"x_max":1013,"o":"m 819 972 l 819 851 l 799 851 q 674 957 749 928 q 528 986 600 986 q 342 947 431 986 q 187 840 254 908 q 81 681 119 771 q 42 486 42 590 q 81 292 42 382 q 187 133 119 201 q 342 25 254 64 q 528 -14 431 -14 q 674 16 600 -14 q 799 122 747 46 l 819 122 l 819 0 l 1013 0 l 1013 972 l 819 972 m 542 183 q 390 224 460 183 q 280 335 321 265 q 239 486 239 404 q 280 639 239 569 q 390 750 321 708 q 542 792 460 792 q 694 750 625 792 q 806 639 764 708 q 847 486 847 569 q 806 335 847 404 q 694 224 764 265 q 542 183 625 183 m 526 1042 q 660 1063 600 1042 q 755 1119 719 1083 q 790 1196 790 1154 l 719 1196 q 662 1126 714 1153 q 526 1100 610 1100 q 392 1126 446 1100 q 332 1196 339 1153 l 263 1196 q 298 1119 263 1154 q 394 1063 333 1083 q 526 1042 454 1042 m 488 1178 l 564 1178 q 583 1209 564 1201 q 626 1223 601 1217 q 669 1245 650 1229 q 688 1300 688 1261 q 641 1379 688 1350 q 526 1408 594 1408 q 411 1379 458 1408 q 364 1300 364 1350 l 364 1286 l 433 1286 l 433 1297 q 465 1336 433 1326 q 526 1346 497 1346 q 586 1337 554 1346 q 618 1300 618 1328 q 599 1272 618 1279 q 553 1256 579 1264 q 507 1232 526 1249 q 488 1178 488 1215 "},"ẵ":{"ha":1054,"x_min":42,"x_max":1013,"o":"m 819 972 l 819 851 l 799 851 q 674 957 749 928 q 528 986 600 986 q 342 947 431 986 q 187 840 254 908 q 81 681 119 771 q 42 486 42 590 q 81 292 42 382 q 187 133 119 201 q 342 25 254 64 q 528 -14 431 -14 q 674 16 600 -14 q 799 122 747 46 l 819 122 l 819 0 l 1013 0 l 1013 972 l 819 972 m 542 183 q 390 224 460 183 q 280 335 321 265 q 239 486 239 404 q 280 639 239 569 q 390 750 321 708 q 542 792 460 792 q 694 750 625 792 q 806 639 764 708 q 847 486 847 569 q 806 335 847 404 q 694 224 764 265 q 542 183 625 183 m 526 1042 q 660 1063 600 1042 q 755 1119 719 1083 q 790 1196 790 1154 l 719 1196 q 662 1126 714 1153 q 526 1100 610 1100 q 392 1126 446 1100 q 332 1196 339 1153 l 263 1196 q 298 1119 263 1154 q 394 1063 333 1083 q 526 1042 454 1042 m 268 1247 l 332 1247 q 355 1310 335 1282 q 418 1342 375 1339 q 486 1323 454 1344 q 554 1278 518 1301 q 638 1247 590 1254 q 746 1272 707 1238 q 785 1382 785 1306 l 721 1382 q 714 1335 721 1357 q 688 1305 707 1314 q 629 1308 668 1296 q 564 1343 596 1321 q 495 1383 532 1365 q 410 1397 458 1401 q 324 1367 356 1393 q 281 1306 293 1340 q 268 1247 268 1272 "},"â":{"ha":1054,"x_min":42,"x_max":1013,"o":"m 819 972 l 819 851 l 799 851 q 674 957 749 928 q 528 986 600 986 q 342 947 431 986 q 187 840 254 908 q 81 681 119 771 q 42 486 42 590 q 81 292 42 382 q 187 133 119 201 q 342 25 254 64 q 528 -14 431 -14 q 674 16 600 -14 q 799 122 747 46 l 819 122 l 819 0 l 1013 0 l 1013 972 l 819 972 m 542 183 q 390 224 460 183 q 280 335 321 265 q 239 486 239 404 q 280 639 239 569 q 390 750 321 708 q 542 792 460 792 q 694 750 625 792 q 806 639 764 708 q 847 486 847 569 q 806 335 847 404 q 694 224 764 265 q 542 183 625 183 m 260 1000 l 513 1128 l 540 1128 l 793 1000 l 822 1053 l 526 1201 l 231 1053 l 260 1000 "},"ấ":{"ha":1054,"x_min":42,"x_max":1079,"o":"m 819 972 l 819 851 l 799 851 q 674 957 749 928 q 528 986 600 986 q 342 947 431 986 q 187 840 254 908 q 81 681 119 771 q 42 486 42 590 q 81 292 42 382 q 187 133 119 201 q 342 25 254 64 q 528 -14 431 -14 q 674 16 600 -14 q 799 122 747 46 l 819 122 l 819 0 l 1013 0 l 1013 972 l 819 972 m 542 183 q 390 224 460 183 q 280 335 321 265 q 239 486 239 404 q 280 639 239 569 q 390 750 321 708 q 542 792 460 792 q 694 750 625 792 q 806 639 764 708 q 847 486 847 569 q 806 335 847 404 q 694 224 764 265 q 542 183 625 183 m 750 1200 l 781 1150 l 1079 1289 l 1053 1342 l 750 1200 m 260 1000 l 513 1128 l 540 1128 l 793 1000 l 822 1053 l 526 1201 l 231 1053 l 260 1000 "},"ậ":{"ha":1054,"x_min":42,"x_max":1013,"o":"m 819 972 l 819 851 l 799 851 q 674 957 749 928 q 528 986 600 986 q 342 947 431 986 q 187 840 254 908 q 81 681 119 771 q 42 486 42 590 q 81 292 42 382 q 187 133 119 201 q 342 25 254 64 q 528 -14 431 -14 q 674 16 600 -14 q 799 122 747 46 l 819 122 l 819 0 l 1013 0 l 1013 972 l 819 972 m 542 183 q 390 224 460 183 q 280 335 321 265 q 239 486 239 404 q 280 639 239 569 q 390 750 321 708 q 542 792 460 792 q 694 750 625 792 q 806 639 764 708 q 847 486 847 569 q 806 335 847 404 q 694 224 764 265 q 542 183 625 183 m 415 -64 l 415 -190 l 638 -190 l 638 -64 l 415 -64 m 260 1000 l 513 1128 l 540 1128 l 793 1000 l 822 1053 l 526 1201 l 231 1053 l 260 1000 "},"ầ":{"ha":1054,"x_min":42,"x_max":1013,"o":"m 819 972 l 819 851 l 799 851 q 674 957 749 928 q 528 986 600 986 q 342 947 431 986 q 187 840 254 908 q 81 681 119 771 q 42 486 42 590 q 81 292 42 382 q 187 133 119 201 q 342 25 254 64 q 528 -14 431 -14 q 674 16 600 -14 q 799 122 747 46 l 819 122 l 819 0 l 1013 0 l 1013 972 l 819 972 m 542 183 q 390 224 460 183 q 280 335 321 265 q 239 486 239 404 q 280 639 239 569 q 390 750 321 708 q 542 792 460 792 q 694 750 625 792 q 806 639 764 708 q 847 486 847 569 q 806 335 847 404 q 694 224 764 265 q 542 183 625 183 m 899 1190 l 597 1331 l 569 1279 l 869 1139 l 899 1190 m 260 1000 l 513 1128 l 540 1128 l 793 1000 l 822 1053 l 526 1201 l 231 1053 l 260 1000 "},"ẩ":{"ha":1054,"x_min":42,"x_max":1013,"o":"m 819 972 l 819 851 l 799 851 q 674 957 749 928 q 528 986 600 986 q 342 947 431 986 q 187 840 254 908 q 81 681 119 771 q 42 486 42 590 q 81 292 42 382 q 187 133 119 201 q 342 25 254 64 q 528 -14 431 -14 q 674 16 600 -14 q 799 122 747 46 l 819 122 l 819 0 l 1013 0 l 1013 972 l 819 972 m 542 183 q 390 224 460 183 q 280 335 321 265 q 239 486 239 404 q 280 639 239 569 q 390 750 321 708 q 542 792 460 792 q 694 750 625 792 q 806 639 764 708 q 847 486 847 569 q 806 335 847 404 q 694 224 764 265 q 542 183 625 183 m 685 1190 l 746 1190 q 758 1228 746 1215 q 788 1250 771 1240 q 818 1276 806 1260 q 831 1324 831 1292 q 796 1393 831 1365 q 711 1421 761 1421 q 625 1392 660 1421 q 590 1324 590 1364 l 590 1308 l 651 1308 l 651 1317 q 711 1365 651 1365 q 754 1353 739 1365 q 769 1324 769 1342 q 757 1295 769 1306 q 727 1274 744 1285 q 697 1245 710 1264 q 685 1190 685 1226 m 260 1000 l 513 1128 l 540 1128 l 793 1000 l 822 1053 l 526 1201 l 231 1053 l 260 1000 "},"ẫ":{"ha":1054,"x_min":42,"x_max":1013,"o":"m 819 972 l 819 851 l 799 851 q 674 957 749 928 q 528 986 600 986 q 342 947 431 986 q 187 840 254 908 q 81 681 119 771 q 42 486 42 590 q 81 292 42 382 q 187 133 119 201 q 342 25 254 64 q 528 -14 431 -14 q 674 16 600 -14 q 799 122 747 46 l 819 122 l 819 0 l 1013 0 l 1013 972 l 819 972 m 542 183 q 390 224 460 183 q 280 335 321 265 q 239 486 239 404 q 280 639 239 569 q 390 750 321 708 q 542 792 460 792 q 694 750 625 792 q 806 639 764 708 q 847 486 847 569 q 806 335 847 404 q 694 224 764 265 q 542 183 625 183 m 261 1000 l 514 1128 l 542 1128 l 794 1000 l 824 1053 l 528 1201 l 232 1053 l 261 1000 m 269 1231 l 333 1231 q 356 1294 336 1265 q 419 1325 376 1322 q 488 1306 456 1328 q 556 1261 519 1285 q 639 1231 592 1238 q 747 1255 708 1221 q 786 1365 786 1289 l 722 1365 q 715 1319 722 1340 q 689 1288 708 1297 q 631 1292 669 1279 q 565 1326 597 1304 q 497 1367 533 1349 q 411 1381 460 1385 q 326 1350 357 1376 q 282 1290 294 1324 q 269 1231 269 1256 "},"ä":{"ha":1054,"x_min":42,"x_max":1013,"o":"m 819 972 l 819 851 l 799 851 q 674 957 749 928 q 528 986 600 986 q 342 947 431 986 q 187 840 254 908 q 81 681 119 771 q 42 486 42 590 q 81 292 42 382 q 187 133 119 201 q 342 25 254 64 q 528 -14 431 -14 q 674 16 600 -14 q 799 122 747 46 l 819 122 l 819 0 l 1013 0 l 1013 972 l 819 972 m 542 183 q 390 224 460 183 q 280 335 321 265 q 239 486 239 404 q 280 639 239 569 q 390 750 321 708 q 542 792 460 792 q 694 750 625 792 q 806 639 764 708 q 847 486 847 569 q 806 335 847 404 q 694 224 764 265 q 542 183 625 183 m 361 1174 l 361 1029 l 492 1029 l 492 1174 l 361 1174 m 567 1174 l 567 1029 l 697 1029 l 697 1174 l 567 1174 "},"ạ":{"ha":1054,"x_min":42,"x_max":1013,"o":"m 819 972 l 819 851 l 799 851 q 674 957 749 928 q 528 986 600 986 q 342 947 431 986 q 187 840 254 908 q 81 681 119 771 q 42 486 42 590 q 81 292 42 382 q 187 133 119 201 q 342 25 254 64 q 528 -14 431 -14 q 674 16 600 -14 q 799 122 747 46 l 819 122 l 819 0 l 1013 0 l 1013 972 l 819 972 m 542 183 q 390 224 460 183 q 280 335 321 265 q 239 486 239 404 q 280 639 239 569 q 390 750 321 708 q 542 792 460 792 q 694 750 625 792 q 806 639 764 708 q 847 486 847 569 q 806 335 847 404 q 694 224 764 265 q 542 183 625 183 m 415 -64 l 415 -190 l 638 -190 l 638 -64 l 415 -64 "},"à":{"ha":1054,"x_min":42,"x_max":1013,"o":"m 819 972 l 819 851 l 799 851 q 674 957 749 928 q 528 986 600 986 q 342 947 431 986 q 187 840 254 908 q 81 681 119 771 q 42 486 42 590 q 81 292 42 382 q 187 133 119 201 q 342 25 254 64 q 528 -14 431 -14 q 674 16 600 -14 q 799 122 747 46 l 819 122 l 819 0 l 1013 0 l 1013 972 l 819 972 m 542 183 q 390 224 460 183 q 280 335 321 265 q 239 486 239 404 q 280 639 239 569 q 390 750 321 708 q 542 792 460 792 q 694 750 625 792 q 806 639 764 708 q 847 486 847 569 q 806 335 847 404 q 694 224 764 265 q 542 183 625 183 m 778 1088 l 286 1178 l 275 1118 l 767 1028 l 778 1088 "},"ả":{"ha":1054,"x_min":42,"x_max":1013,"o":"m 819 972 l 819 851 l 799 851 q 674 957 749 928 q 528 986 600 986 q 342 947 431 986 q 187 840 254 908 q 81 681 119 771 q 42 486 42 590 q 81 292 42 382 q 187 133 119 201 q 342 25 254 64 q 528 -14 431 -14 q 674 16 600 -14 q 799 122 747 46 l 819 122 l 819 0 l 1013 0 l 1013 972 l 819 972 m 542 183 q 390 224 460 183 q 280 335 321 265 q 239 486 239 404 q 280 639 239 569 q 390 750 321 708 q 542 792 460 792 q 694 750 625 792 q 806 639 764 708 q 847 486 847 569 q 806 335 847 404 q 694 224 764 265 q 542 183 625 183 m 489 1056 l 565 1056 q 584 1087 565 1079 q 627 1101 603 1094 q 670 1123 651 1107 q 689 1178 689 1139 q 642 1257 689 1228 q 528 1286 596 1286 q 413 1257 460 1286 q 365 1178 365 1228 l 365 1164 l 435 1164 l 435 1175 q 467 1214 435 1204 q 528 1224 499 1224 q 588 1215 556 1224 q 619 1178 619 1206 q 600 1149 619 1157 q 554 1134 581 1142 q 508 1110 528 1126 q 489 1056 489 1093 "},"ā":{"ha":1054,"x_min":42,"x_max":1013,"o":"m 819 972 l 819 851 l 799 851 q 674 957 749 928 q 528 986 600 986 q 342 947 431 986 q 187 840 254 908 q 81 681 119 771 q 42 486 42 590 q 81 292 42 382 q 187 133 119 201 q 342 25 254 64 q 528 -14 431 -14 q 674 16 600 -14 q 799 122 747 46 l 819 122 l 819 0 l 1013 0 l 1013 972 l 819 972 m 542 183 q 390 224 460 183 q 280 335 321 265 q 239 486 239 404 q 280 639 239 569 q 390 750 321 708 q 542 792 460 792 q 694 750 625 792 q 806 639 764 708 q 847 486 847 569 q 806 335 847 404 q 694 224 764 265 q 542 183 625 183 m 246 1056 l 808 1056 l 808 1117 l 246 1117 l 246 1056 "},"ą":{"ha":1054,"x_min":42,"x_max":1019,"o":"m 819 972 l 819 851 l 799 851 q 674 957 749 928 q 528 986 600 986 q 342 947 431 986 q 187 840 254 908 q 81 681 119 771 q 42 486 42 590 q 81 292 42 382 q 187 133 119 201 q 342 25 254 64 q 528 -14 431 -14 q 674 16 600 -14 q 799 122 747 46 l 819 122 l 819 0 l 1013 0 l 1013 972 l 819 972 m 542 183 q 390 224 460 183 q 280 335 321 265 q 239 486 239 404 q 280 639 239 569 q 390 750 321 708 q 542 792 460 792 q 694 750 625 792 q 806 639 764 708 q 847 486 847 569 q 806 335 847 404 q 694 224 764 265 q 542 183 625 183 m 925 0 l 881 0 q 872 -38 881 -24 q 850 -65 863 -53 q 828 -94 838 -78 q 819 -139 819 -111 q 844 -201 819 -171 q 914 -232 869 -232 q 976 -210 951 -232 q 1010 -153 1001 -187 q 1006 -82 1019 -118 l 963 -87 q 961 -158 978 -135 q 914 -182 944 -182 q 876 -164 889 -182 q 868 -122 863 -146 q 886 -90 872 -103 q 913 -58 900 -78 q 925 0 925 -37 "},"å":{"ha":1054,"x_min":42,"x_max":1013,"o":"m 819 972 l 819 851 l 799 851 q 674 957 749 928 q 528 986 600 986 q 342 947 431 986 q 187 840 254 908 q 81 681 119 771 q 42 486 42 590 q 81 292 42 382 q 187 133 119 201 q 342 25 254 64 q 528 -14 431 -14 q 674 16 600 -14 q 799 122 747 46 l 819 122 l 819 0 l 1013 0 l 1013 972 l 819 972 m 542 183 q 390 224 460 183 q 280 335 321 265 q 239 486 239 404 q 280 639 239 569 q 390 750 321 708 q 542 792 460 792 q 694 750 625 792 q 806 639 764 708 q 847 486 847 569 q 806 335 847 404 q 694 224 764 265 q 542 183 625 183 m 528 1056 q 610 1090 576 1056 q 643 1171 643 1124 q 610 1253 643 1219 q 528 1286 576 1286 q 447 1253 481 1286 q 413 1171 413 1219 q 447 1090 413 1124 q 528 1056 481 1056 m 526 1104 q 480 1123 499 1104 q 461 1169 461 1142 q 480 1219 461 1200 q 526 1238 499 1238 q 576 1219 557 1238 q 594 1169 594 1200 q 576 1123 594 1142 q 526 1104 557 1104 "},"ã":{"ha":1054,"x_min":42,"x_max":1013,"o":"m 819 972 l 819 851 l 799 851 q 674 957 749 928 q 528 986 600 986 q 342 947 431 986 q 187 840 254 908 q 81 681 119 771 q 42 486 42 590 q 81 292 42 382 q 187 133 119 201 q 342 25 254 64 q 528 -14 431 -14 q 674 16 600 -14 q 799 122 747 46 l 819 122 l 819 0 l 1013 0 l 1013 972 l 819 972 m 542 183 q 390 224 460 183 q 280 335 321 265 q 239 486 239 404 q 280 639 239 569 q 390 750 321 708 q 542 792 460 792 q 694 750 625 792 q 806 639 764 708 q 847 486 847 569 q 806 335 847 404 q 694 224 764 265 q 542 183 625 183 m 268 1039 l 332 1039 q 355 1102 335 1074 q 418 1133 375 1131 q 486 1115 454 1136 q 554 1069 518 1093 q 638 1039 590 1046 q 746 1063 707 1029 q 785 1174 785 1097 l 721 1174 q 714 1127 721 1149 q 688 1097 707 1106 q 629 1100 668 1088 q 564 1135 596 1113 q 495 1175 532 1157 q 410 1189 458 1193 q 324 1158 356 1185 q 281 1098 293 1132 q 268 1039 268 1064 "},"æ":{"ha":850,"x_min":42,"x_max":808,"o":"m 260 -14 q 322 2 290 -14 q 368 49 354 18 l 403 49 q 476 3 435 19 q 565 -14 518 -14 q 684 17 631 -14 q 772 99 738 47 q 808 214 806 150 l 808 361 l 600 361 l 600 215 q 590 190 600 201 q 565 179 581 179 q 540 190 550 179 q 529 215 529 201 l 529 432 l 808 432 l 808 743 q 776 866 808 811 q 688 953 743 921 q 565 986 632 986 q 425 942 488 986 q 285 986 363 986 q 163 953 218 986 q 74 866 107 921 q 42 743 42 811 l 42 644 l 249 644 l 249 786 q 260 812 249 801 q 285 822 271 822 q 311 812 300 822 q 322 786 322 801 l 322 608 l 285 608 q 163 576 218 608 q 74 488 107 543 q 42 365 42 432 l 42 229 q 68 106 42 161 q 144 19 94 51 q 260 -14 193 -14 m 529 626 l 529 771 q 540 796 529 786 q 565 806 550 806 q 590 796 581 806 q 600 771 600 786 l 600 626 l 529 626 m 285 179 q 260 190 271 179 q 249 215 249 200 l 249 364 q 260 390 249 379 q 285 400 271 400 l 322 400 l 322 215 q 311 190 322 200 q 285 179 300 179 "},"b":{"ha":569,"x_min":42,"x_max":528,"o":"m 42 0 l 285 0 q 408 33 353 0 q 495 120 463 65 q 528 243 528 175 l 528 365 q 494 468 528 418 q 403 540 460 518 l 403 554 q 469 594 442 565 q 513 662 497 624 q 528 736 528 700 q 495 857 528 804 q 408 941 463 910 q 285 972 353 972 l 42 972 l 42 0 m 249 668 l 249 792 l 265 792 q 303 774 288 792 q 319 729 319 756 q 303 685 319 703 q 265 668 288 668 l 249 668 m 249 179 l 249 432 l 258 432 q 301 405 283 432 q 319 338 319 378 l 319 274 q 301 207 319 235 q 258 179 283 179 l 249 179 "},"c":{"ha":583,"x_min":49,"x_max":535,"o":"m 292 -14 q 415 19 360 -14 q 502 106 469 51 q 535 229 535 161 l 535 382 l 329 382 l 329 215 q 318 190 329 201 q 292 179 307 179 q 267 190 278 179 q 256 215 256 201 l 256 756 q 267 781 256 771 q 292 792 278 792 q 318 781 307 792 q 329 756 329 771 l 329 590 l 535 590 l 535 743 q 502 866 535 811 q 415 953 469 921 q 292 986 360 986 q 169 953 225 986 q 81 866 114 921 q 49 743 49 811 l 49 229 q 81 106 49 161 q 169 19 114 51 q 292 -14 225 -14 "},"ć":{"ha":1074,"x_min":42,"x_max":1032,"o":"m 843 382 q 733 228 813 288 q 542 169 653 169 q 376 211 449 169 q 263 324 304 253 q 222 486 222 396 q 263 650 222 578 q 376 764 304 722 q 542 806 449 806 q 733 746 653 806 q 843 590 813 686 l 1032 590 q 938 800 1008 711 q 766 938 868 889 q 542 986 664 986 q 341 948 432 986 q 183 842 250 910 q 78 684 115 775 q 42 486 42 593 q 78 289 42 381 q 183 130 115 197 q 341 24 250 63 q 542 -14 432 -14 q 730 19 646 -14 q 877 108 814 51 q 979 235 940 164 q 1032 382 1018 306 l 843 382 m 286 1088 l 297 1028 l 789 1118 l 778 1178 l 286 1088 "},"č":{"ha":1074,"x_min":42,"x_max":1032,"o":"m 843 382 q 733 228 813 288 q 542 169 653 169 q 376 211 449 169 q 263 324 304 253 q 222 486 222 396 q 263 650 222 578 q 376 764 304 722 q 542 806 449 806 q 733 746 653 806 q 843 590 813 686 l 1032 590 q 938 800 1008 711 q 766 938 868 889 q 542 986 664 986 q 341 948 432 986 q 183 842 250 910 q 78 684 115 775 q 42 486 42 593 q 78 289 42 381 q 183 130 115 197 q 341 24 250 63 q 542 -14 432 -14 q 730 19 646 -14 q 877 108 814 51 q 979 235 940 164 q 1032 382 1018 306 l 843 382 m 269 1225 l 240 1172 l 536 1024 l 832 1172 l 803 1225 l 550 1097 l 522 1097 l 269 1225 "},"ç":{"ha":1074,"x_min":42,"x_max":1032,"o":"m 843 382 q 733 228 813 288 q 542 169 653 169 q 376 211 449 169 q 263 324 304 253 q 222 486 222 396 q 263 650 222 578 q 376 764 304 722 q 542 806 449 806 q 733 746 653 806 q 843 590 813 686 l 1032 590 q 938 800 1008 711 q 766 938 868 889 q 542 986 664 986 q 341 948 432 986 q 183 842 250 910 q 78 684 115 775 q 42 486 42 593 q 78 289 42 381 q 183 130 115 197 q 341 24 250 63 q 542 -14 432 -14 q 730 19 646 -14 q 877 108 814 51 q 979 235 940 164 q 1032 382 1018 306 l 843 382 m 529 0 q 542 -58 529 -37 q 568 -90 554 -78 q 586 -122 582 -103 q 578 -164 592 -146 q 540 -182 565 -182 q 494 -158 510 -182 q 492 -87 478 -135 l 449 -82 q 444 -153 436 -118 q 478 -210 453 -187 q 540 -232 503 -232 q 610 -201 585 -232 q 635 -139 635 -171 q 626 -94 635 -111 q 604 -65 617 -78 q 583 -38 592 -53 q 574 0 574 -24 l 529 0 "},"ċ":{"ha":1074,"x_min":42,"x_max":1032,"o":"m 843 382 q 733 228 813 288 q 542 169 653 169 q 376 211 449 169 q 263 324 304 253 q 222 486 222 396 q 263 650 222 578 q 376 764 304 722 q 542 806 449 806 q 733 746 653 806 q 843 590 813 686 l 1032 590 q 938 800 1008 711 q 766 938 868 889 q 542 986 664 986 q 341 948 432 986 q 183 842 250 910 q 78 684 115 775 q 42 486 42 593 q 78 289 42 381 q 183 130 115 197 q 341 24 250 63 q 542 -14 432 -14 q 730 19 646 -14 q 877 108 814 51 q 979 235 940 164 q 1032 382 1018 306 l 843 382 m 474 1201 l 474 1057 l 604 1057 l 604 1201 l 474 1201 "},"d":{"ha":575,"x_min":42,"x_max":528,"o":"m 42 0 l 285 0 q 408 33 353 0 q 495 120 463 65 q 528 243 528 175 l 528 729 q 495 852 528 797 q 408 940 463 907 q 285 972 353 972 l 42 972 l 42 0 m 249 179 l 249 792 l 288 792 q 310 782 301 792 q 319 760 319 772 l 319 211 q 310 189 319 199 q 288 179 301 179 l 249 179 "},"ď":{"ha":933,"x_min":42,"x_max":892,"o":"m 154 1225 l 125 1172 l 421 1024 l 717 1172 l 688 1225 l 435 1097 l 407 1097 l 154 1225 m 42 0 l 406 0 q 594 38 506 0 q 749 142 682 75 q 854 298 817 210 q 892 486 892 386 q 854 674 892 586 q 749 830 817 763 q 594 935 682 897 q 406 972 506 972 l 42 972 l 42 0 m 246 182 l 246 792 l 382 792 q 535 750 467 792 q 645 640 604 708 q 686 486 686 571 q 645 333 686 403 q 535 223 604 264 q 382 182 467 182 l 246 182 "},"đ":{"ha":1056,"x_min":42,"x_max":1014,"o":"m 164 0 l 528 0 q 716 38 628 0 q 872 142 804 75 q 976 298 939 210 q 1014 486 1014 386 q 976 674 1014 586 q 872 830 939 763 q 716 935 804 897 q 528 972 628 972 l 164 972 l 164 535 l 42 535 l 42 438 l 164 438 l 164 0 m 365 182 l 365 438 l 538 438 l 538 535 l 365 535 l 365 792 l 501 792 q 655 750 586 792 q 765 640 724 708 q 806 486 806 571 q 765 333 806 403 q 655 223 724 264 q 501 182 586 182 l 365 182 "},"ð":{"ha":1056,"x_min":42,"x_max":1014,"o":"m 164 0 l 528 0 q 716 38 628 0 q 872 142 804 75 q 976 298 939 210 q 1014 486 1014 386 q 976 674 1014 586 q 872 830 939 763 q 716 935 804 897 q 528 972 628 972 l 164 972 l 164 535 l 42 535 l 42 438 l 164 438 l 164 0 m 365 182 l 365 438 l 538 438 l 538 535 l 365 535 l 365 792 l 501 792 q 655 750 586 792 q 765 640 724 708 q 806 486 806 571 q 765 333 806 403 q 655 223 724 264 q 501 182 586 182 l 365 182 "},"e":{"ha":569,"x_min":42,"x_max":528,"o":"m 285 -14 q 403 17 350 -14 q 491 99 457 47 q 528 214 525 150 l 528 361 l 319 361 l 319 215 q 310 190 319 201 q 285 179 300 179 q 259 190 269 179 q 249 215 249 201 l 249 432 l 528 432 l 528 743 q 495 866 528 811 q 407 953 463 921 q 285 986 351 986 q 163 953 218 986 q 74 866 107 921 q 42 743 42 811 l 42 229 q 74 106 42 161 q 163 19 107 51 q 285 -14 218 -14 m 249 626 l 249 771 q 259 796 249 786 q 285 806 269 806 q 310 796 300 806 q 319 771 319 786 l 319 626 l 249 626 "},"é":{"ha":1083,"x_min":42,"x_max":1042,"o":"m 1042 486 q 1003 693 1042 601 q 894 851 964 785 q 735 951 825 917 q 542 986 644 986 q 349 951 440 986 q 190 849 258 915 q 81 692 121 783 q 42 486 42 600 q 81 283 42 375 q 188 125 119 192 q 347 22 257 58 q 542 -14 438 -14 q 728 19 639 -14 q 888 117 817 53 q 1003 272 960 182 l 1003 293 l 797 293 q 702 210 767 250 q 542 169 638 169 q 394 201 457 169 q 293 279 332 232 q 240 375 254 326 l 1042 375 l 1042 486 m 236 593 q 296 695 256 646 q 399 776 336 744 q 542 808 461 808 q 682 777 621 808 q 785 697 743 746 q 844 593 826 647 l 236 593 m 290 1088 l 301 1028 l 793 1118 l 782 1178 l 290 1088 "},"ě":{"ha":1083,"x_min":42,"x_max":1042,"o":"m 1042 486 q 1003 693 1042 601 q 894 851 964 785 q 735 951 825 917 q 542 986 644 986 q 349 951 440 986 q 190 849 258 915 q 81 692 121 783 q 42 486 42 600 q 81 283 42 375 q 188 125 119 192 q 347 22 257 58 q 542 -14 438 -14 q 728 19 639 -14 q 888 117 817 53 q 1003 272 960 182 l 1003 293 l 797 293 q 702 210 767 250 q 542 169 638 169 q 394 201 457 169 q 293 279 332 232 q 240 375 254 326 l 1042 375 l 1042 486 m 236 593 q 296 695 256 646 q 399 776 336 744 q 542 808 461 808 q 682 777 621 808 q 785 697 743 746 q 844 593 826 647 l 236 593 m 275 1225 l 246 1172 l 542 1024 l 838 1172 l 808 1225 l 556 1097 l 528 1097 l 275 1225 "},"ê":{"ha":1083,"x_min":42,"x_max":1042,"o":"m 1042 486 q 1003 693 1042 601 q 894 851 964 785 q 735 951 825 917 q 542 986 644 986 q 349 951 440 986 q 190 849 258 915 q 81 692 121 783 q 42 486 42 600 q 81 283 42 375 q 188 125 119 192 q 347 22 257 58 q 542 -14 438 -14 q 728 19 639 -14 q 888 117 817 53 q 1003 272 960 182 l 1003 293 l 797 293 q 702 210 767 250 q 542 169 638 169 q 394 201 457 169 q 293 279 332 232 q 240 375 254 326 l 1042 375 l 1042 486 m 236 593 q 296 695 256 646 q 399 776 336 744 q 542 808 461 808 q 682 777 621 808 q 785 697 743 746 q 844 593 826 647 l 236 593 m 275 1000 l 528 1128 l 556 1128 l 808 1000 l 838 1053 l 542 1201 l 246 1053 l 275 1000 "},"ế":{"ha":1083,"x_min":42,"x_max":1094,"o":"m 1042 486 q 1003 693 1042 601 q 894 851 964 785 q 735 951 825 917 q 542 986 644 986 q 349 951 440 986 q 190 849 258 915 q 81 692 121 783 q 42 486 42 600 q 81 283 42 375 q 188 125 119 192 q 347 22 257 58 q 542 -14 438 -14 q 728 19 639 -14 q 888 117 817 53 q 1003 272 960 182 l 1003 293 l 797 293 q 702 210 767 250 q 542 169 638 169 q 394 201 457 169 q 293 279 332 232 q 240 375 254 326 l 1042 375 l 1042 486 m 236 593 q 296 695 256 646 q 399 776 336 744 q 542 808 461 808 q 682 777 621 808 q 785 697 743 746 q 844 593 826 647 l 236 593 m 765 1200 l 796 1150 l 1094 1289 l 1068 1342 l 765 1200 m 275 1000 l 528 1128 l 556 1128 l 808 1000 l 838 1053 l 542 1201 l 246 1053 l 275 1000 "},"ệ":{"ha":1083,"x_min":42,"x_max":1042,"o":"m 1042 486 q 1003 693 1042 601 q 894 851 964 785 q 735 951 825 917 q 542 986 644 986 q 349 951 440 986 q 190 849 258 915 q 81 692 121 783 q 42 486 42 600 q 81 283 42 375 q 188 125 119 192 q 347 22 257 58 q 542 -14 438 -14 q 728 19 639 -14 q 888 117 817 53 q 1003 272 960 182 l 1003 293 l 797 293 q 702 210 767 250 q 542 169 638 169 q 394 201 457 169 q 293 279 332 232 q 240 375 254 326 l 1042 375 l 1042 486 m 236 593 q 296 695 256 646 q 399 776 336 744 q 542 808 461 808 q 682 777 621 808 q 785 697 743 746 q 844 593 826 647 l 236 593 m 431 -64 l 431 -190 l 653 -190 l 653 -64 l 431 -64 m 275 1000 l 528 1128 l 556 1128 l 808 1000 l 838 1053 l 542 1201 l 246 1053 l 275 1000 "},"ề":{"ha":1083,"x_min":42,"x_max":1042,"o":"m 1042 486 q 1003 693 1042 601 q 894 851 964 785 q 735 951 825 917 q 542 986 644 986 q 349 951 440 986 q 190 849 258 915 q 81 692 121 783 q 42 486 42 600 q 81 283 42 375 q 188 125 119 192 q 347 22 257 58 q 542 -14 438 -14 q 728 19 639 -14 q 888 117 817 53 q 1003 272 960 182 l 1003 293 l 797 293 q 702 210 767 250 q 542 169 638 169 q 394 201 457 169 q 293 279 332 232 q 240 375 254 326 l 1042 375 l 1042 486 m 236 593 q 296 695 256 646 q 399 776 336 744 q 542 808 461 808 q 682 777 621 808 q 785 697 743 746 q 844 593 826 647 l 236 593 m 914 1190 l 613 1331 l 585 1279 l 885 1139 l 914 1190 m 275 1000 l 528 1128 l 556 1128 l 808 1000 l 838 1053 l 542 1201 l 246 1053 l 275 1000 "},"ể":{"ha":1083,"x_min":42,"x_max":1042,"o":"m 1042 486 q 1003 693 1042 601 q 894 851 964 785 q 735 951 825 917 q 542 986 644 986 q 349 951 440 986 q 190 849 258 915 q 81 692 121 783 q 42 486 42 600 q 81 283 42 375 q 188 125 119 192 q 347 22 257 58 q 542 -14 438 -14 q 728 19 639 -14 q 888 117 817 53 q 1003 272 960 182 l 1003 293 l 797 293 q 702 210 767 250 q 542 169 638 169 q 394 201 457 169 q 293 279 332 232 q 240 375 254 326 l 1042 375 l 1042 486 m 236 593 q 296 695 256 646 q 399 776 336 744 q 542 808 461 808 q 682 777 621 808 q 785 697 743 746 q 844 593 826 647 l 236 593 m 700 1190 l 761 1190 q 774 1228 761 1215 q 803 1250 786 1240 q 833 1276 821 1260 q 846 1324 846 1292 q 811 1393 846 1365 q 726 1421 776 1421 q 640 1392 675 1421 q 606 1324 606 1364 l 606 1308 l 667 1308 l 667 1317 q 726 1365 667 1365 q 769 1353 754 1365 q 785 1324 785 1342 q 772 1295 785 1306 q 742 1274 760 1285 q 713 1245 725 1264 q 700 1190 700 1226 m 275 1000 l 528 1128 l 556 1128 l 808 1000 l 838 1053 l 542 1201 l 246 1053 l 275 1000 "},"ễ":{"ha":1083,"x_min":42,"x_max":1042,"o":"m 1042 486 q 1003 693 1042 601 q 894 851 964 785 q 735 951 825 917 q 542 986 644 986 q 349 951 440 986 q 190 849 258 915 q 81 692 121 783 q 42 486 42 600 q 81 283 42 375 q 188 125 119 192 q 347 22 257 58 q 542 -14 438 -14 q 728 19 639 -14 q 888 117 817 53 q 1003 272 960 182 l 1003 293 l 797 293 q 702 210 767 250 q 542 169 638 169 q 394 201 457 169 q 293 279 332 232 q 240 375 254 326 l 1042 375 l 1042 486 m 236 593 q 296 695 256 646 q 399 776 336 744 q 542 808 461 808 q 682 777 621 808 q 785 697 743 746 q 844 593 826 647 l 236 593 m 275 1000 l 528 1128 l 556 1128 l 808 1000 l 838 1053 l 542 1201 l 246 1053 l 275 1000 m 283 1231 l 347 1231 q 370 1294 350 1265 q 433 1325 390 1322 q 501 1306 469 1328 q 569 1261 533 1285 q 653 1231 606 1238 q 761 1255 722 1221 q 800 1365 800 1289 l 736 1365 q 729 1319 736 1340 q 703 1288 722 1297 q 644 1292 683 1279 q 579 1326 611 1304 q 510 1367 547 1349 q 425 1381 474 1385 q 340 1350 371 1376 q 296 1290 308 1324 q 283 1231 283 1256 "},"ë":{"ha":1083,"x_min":42,"x_max":1042,"o":"m 1042 486 q 1003 693 1042 601 q 894 851 964 785 q 735 951 825 917 q 542 986 644 986 q 349 951 440 986 q 190 849 258 915 q 81 692 121 783 q 42 486 42 600 q 81 283 42 375 q 188 125 119 192 q 347 22 257 58 q 542 -14 438 -14 q 728 19 639 -14 q 888 117 817 53 q 1003 272 960 182 l 1003 293 l 797 293 q 702 210 767 250 q 542 169 638 169 q 394 201 457 169 q 293 279 332 232 q 240 375 254 326 l 1042 375 l 1042 486 m 236 593 q 296 695 256 646 q 399 776 336 744 q 542 808 461 808 q 682 777 621 808 q 785 697 743 746 q 844 593 826 647 l 236 593 m 376 1201 l 376 1057 l 507 1057 l 507 1201 l 376 1201 m 582 1201 l 582 1057 l 713 1057 l 713 1201 l 582 1201 "},"ė":{"ha":1083,"x_min":42,"x_max":1042,"o":"m 1042 486 q 1003 693 1042 601 q 894 851 964 785 q 735 951 825 917 q 542 986 644 986 q 349 951 440 986 q 190 849 258 915 q 81 692 121 783 q 42 486 42 600 q 81 283 42 375 q 188 125 119 192 q 347 22 257 58 q 542 -14 438 -14 q 728 19 639 -14 q 888 117 817 53 q 1003 272 960 182 l 1003 293 l 797 293 q 702 210 767 250 q 542 169 638 169 q 394 201 457 169 q 293 279 332 232 q 240 375 254 326 l 1042 375 l 1042 486 m 236 593 q 296 695 256 646 q 399 776 336 744 q 542 808 461 808 q 682 777 621 808 q 785 697 743 746 q 844 593 826 647 l 236 593 m 479 1201 l 479 1057 l 610 1057 l 610 1201 l 479 1201 "},"ẹ":{"ha":1083,"x_min":42,"x_max":1042,"o":"m 1042 486 q 1003 693 1042 601 q 894 851 964 785 q 735 951 825 917 q 542 986 644 986 q 349 951 440 986 q 190 849 258 915 q 81 692 121 783 q 42 486 42 600 q 81 283 42 375 q 188 125 119 192 q 347 22 257 58 q 542 -14 438 -14 q 728 19 639 -14 q 888 117 817 53 q 1003 272 960 182 l 1003 293 l 797 293 q 702 210 767 250 q 542 169 638 169 q 394 201 457 169 q 293 279 332 232 q 240 375 254 326 l 1042 375 l 1042 486 m 236 593 q 296 695 256 646 q 399 776 336 744 q 542 808 461 808 q 682 777 621 808 q 785 697 743 746 q 844 593 826 647 l 236 593 m 431 -64 l 431 -190 l 653 -190 l 653 -64 l 431 -64 "},"è":{"ha":1083,"x_min":42,"x_max":1042,"o":"m 1042 486 q 1003 693 1042 601 q 894 851 964 785 q 735 951 825 917 q 542 986 644 986 q 349 951 440 986 q 190 849 258 915 q 81 692 121 783 q 42 486 42 600 q 81 283 42 375 q 188 125 119 192 q 347 22 257 58 q 542 -14 438 -14 q 728 19 639 -14 q 888 117 817 53 q 1003 272 960 182 l 1003 293 l 797 293 q 702 210 767 250 q 542 169 638 169 q 394 201 457 169 q 293 279 332 232 q 240 375 254 326 l 1042 375 l 1042 486 m 236 593 q 296 695 256 646 q 399 776 336 744 q 542 808 461 808 q 682 777 621 808 q 785 697 743 746 q 844 593 826 647 l 236 593 m 793 1088 l 301 1178 l 290 1118 l 782 1028 l 793 1088 "},"ẻ":{"ha":1083,"x_min":42,"x_max":1042,"o":"m 1042 486 q 1003 693 1042 601 q 894 851 964 785 q 735 951 825 917 q 542 986 644 986 q 349 951 440 986 q 190 849 258 915 q 81 692 121 783 q 42 486 42 600 q 81 283 42 375 q 188 125 119 192 q 347 22 257 58 q 542 -14 438 -14 q 728 19 639 -14 q 888 117 817 53 q 1003 272 960 182 l 1003 293 l 797 293 q 702 210 767 250 q 542 169 638 169 q 394 201 457 169 q 293 279 332 232 q 240 375 254 326 l 1042 375 l 1042 486 m 236 593 q 296 695 256 646 q 399 776 336 744 q 542 808 461 808 q 682 777 621 808 q 785 697 743 746 q 844 593 826 647 l 236 593 m 504 1056 l 581 1056 q 599 1087 581 1079 q 642 1101 618 1094 q 685 1123 667 1107 q 704 1178 704 1139 q 658 1257 704 1228 q 543 1286 611 1286 q 428 1257 475 1286 q 381 1178 381 1228 l 381 1164 l 450 1164 l 450 1175 q 482 1214 450 1204 q 543 1224 514 1224 q 603 1215 571 1224 q 635 1178 635 1206 q 615 1149 635 1157 q 569 1134 596 1142 q 524 1110 543 1126 q 504 1056 504 1093 "},"ē":{"ha":1083,"x_min":42,"x_max":1042,"o":"m 1042 486 q 1003 693 1042 601 q 894 851 964 785 q 735 951 825 917 q 542 986 644 986 q 349 951 440 986 q 190 849 258 915 q 81 692 121 783 q 42 486 42 600 q 81 283 42 375 q 188 125 119 192 q 347 22 257 58 q 542 -14 438 -14 q 728 19 639 -14 q 888 117 817 53 q 1003 272 960 182 l 1003 293 l 797 293 q 702 210 767 250 q 542 169 638 169 q 394 201 457 169 q 293 279 332 232 q 240 375 254 326 l 1042 375 l 1042 486 m 236 593 q 296 695 256 646 q 399 776 336 744 q 542 808 461 808 q 682 777 621 808 q 785 697 743 746 q 844 593 826 647 l 236 593 m 260 1056 l 822 1056 l 822 1117 l 260 1117 l 260 1056 "},"ę":{"ha":1083,"x_min":42,"x_max":1042,"o":"m 1042 486 q 1003 693 1042 601 q 894 851 964 785 q 735 951 825 917 q 542 986 644 986 q 349 951 440 986 q 190 849 258 915 q 81 692 121 783 q 42 486 42 600 q 81 283 42 375 q 188 125 119 192 q 347 22 257 58 q 542 -14 438 -14 q 728 19 639 -14 q 888 117 817 53 q 1003 272 960 182 l 1003 293 l 797 293 q 702 210 767 250 q 542 169 638 169 q 394 201 457 169 q 293 279 332 232 q 240 375 254 326 l 1042 375 l 1042 486 m 236 593 q 296 695 256 646 q 399 776 336 744 q 542 808 461 808 q 682 777 621 808 q 785 697 743 746 q 844 593 826 647 l 236 593 m 574 0 l 529 0 q 520 -38 529 -24 q 499 -65 511 -53 q 477 -94 486 -78 q 468 -139 468 -111 q 493 -201 468 -171 q 563 -232 518 -232 q 625 -210 600 -232 q 659 -153 650 -187 q 654 -82 668 -118 l 611 -87 q 610 -158 626 -135 q 563 -182 593 -182 q 524 -164 538 -182 q 517 -122 511 -146 q 535 -90 521 -103 q 561 -58 549 -78 q 574 0 574 -37 "},"ẽ":{"ha":1083,"x_min":42,"x_max":1042,"o":"m 1042 486 q 1003 693 1042 601 q 894 851 964 785 q 735 951 825 917 q 542 986 644 986 q 349 951 440 986 q 190 849 258 915 q 81 692 121 783 q 42 486 42 600 q 81 283 42 375 q 188 125 119 192 q 347 22 257 58 q 542 -14 438 -14 q 728 19 639 -14 q 888 117 817 53 q 1003 272 960 182 l 1003 293 l 797 293 q 702 210 767 250 q 542 169 638 169 q 394 201 457 169 q 293 279 332 232 q 240 375 254 326 l 1042 375 l 1042 486 m 236 593 q 296 695 256 646 q 399 776 336 744 q 542 808 461 808 q 682 777 621 808 q 785 697 743 746 q 844 593 826 647 l 236 593 m 283 1039 l 347 1039 q 370 1102 350 1074 q 433 1133 390 1131 q 501 1115 469 1136 q 569 1069 533 1093 q 653 1039 606 1046 q 761 1063 722 1029 q 800 1174 800 1097 l 736 1174 q 729 1127 736 1149 q 703 1097 722 1106 q 644 1100 683 1088 q 579 1135 611 1113 q 510 1175 547 1157 q 425 1189 474 1193 q 340 1158 371 1185 q 296 1098 308 1132 q 283 1039 283 1064 "},"f":{"ha":472,"x_min":42,"x_max":431,"o":"m 42 0 l 249 0 l 249 382 l 369 382 l 369 590 l 249 590 l 249 764 l 431 764 l 431 972 l 42 972 l 42 0 "},"g":{"ha":646,"x_min":42,"x_max":604,"o":"m 249 -14 q 306 -6 275 -14 q 363 17 338 3 q 396 49 389 31 l 417 49 l 417 0 l 604 0 l 604 540 l 322 540 l 322 346 l 417 346 l 417 257 q 390 203 417 226 q 332 179 364 179 q 275 203 301 179 q 249 257 249 226 l 249 722 q 273 773 249 754 q 324 792 297 792 q 374 773 350 792 q 399 722 399 754 l 399 644 l 604 644 l 604 743 q 562 866 604 811 q 456 953 519 921 q 324 986 392 986 q 224 967 274 986 q 133 915 174 949 q 67 838 92 882 q 42 743 42 793 l 42 229 q 65 106 42 161 q 135 19 89 51 q 249 -14 182 -14 "},"ğ":{"ha":1074,"x_min":42,"x_max":1032,"o":"m 542 486 l 542 347 l 833 347 q 722 211 801 253 q 542 169 643 169 q 376 211 449 169 q 263 324 304 253 q 222 486 222 396 q 263 650 222 578 q 376 764 304 722 q 542 806 449 806 q 717 756 642 806 q 829 625 793 707 l 1024 625 q 924 817 994 736 q 756 942 854 897 q 542 986 657 986 q 341 948 432 986 q 183 842 250 910 q 78 684 115 775 q 42 486 42 593 q 78 289 42 381 q 183 130 115 197 q 341 24 250 63 q 542 -14 432 -14 q 686 9 629 -14 q 777 64 743 32 q 829 122 811 96 l 843 122 l 843 21 l 1032 21 l 1032 486 l 542 486 m 538 1028 q 671 1049 611 1028 q 766 1105 731 1069 q 801 1182 801 1140 l 731 1182 q 673 1113 725 1139 q 538 1086 621 1086 q 403 1113 457 1086 q 343 1182 350 1139 l 274 1182 q 309 1105 274 1140 q 405 1049 344 1069 q 538 1028 465 1028 "},"ģ":{"ha":1074,"x_min":42,"x_max":1032,"o":"m 542 486 l 542 347 l 833 347 q 722 211 801 253 q 542 169 643 169 q 376 211 449 169 q 263 324 304 253 q 222 486 222 396 q 263 650 222 578 q 376 764 304 722 q 542 806 449 806 q 717 756 642 806 q 829 625 793 707 l 1024 625 q 924 817 994 736 q 756 942 854 897 q 542 986 657 986 q 341 948 432 986 q 183 842 250 910 q 78 684 115 775 q 42 486 42 593 q 78 289 42 381 q 183 130 115 197 q 341 24 250 63 q 542 -14 432 -14 q 686 9 629 -14 q 777 64 743 32 q 829 122 811 96 l 843 122 l 843 21 l 1032 21 l 1032 486 l 542 486 m 503 -236 l 544 -236 l 569 -78 l 569 -64 l 503 -64 l 503 -236 "},"ġ":{"ha":1074,"x_min":42,"x_max":1032,"o":"m 542 486 l 542 347 l 833 347 q 722 211 801 253 q 542 169 643 169 q 376 211 449 169 q 263 324 304 253 q 222 486 222 396 q 263 650 222 578 q 376 764 304 722 q 542 806 449 806 q 717 756 642 806 q 829 625 793 707 l 1024 625 q 924 817 994 736 q 756 942 854 897 q 542 986 657 986 q 341 948 432 986 q 183 842 250 910 q 78 684 115 775 q 42 486 42 593 q 78 289 42 381 q 183 130 115 197 q 341 24 250 63 q 542 -14 432 -14 q 686 9 629 -14 q 777 64 743 32 q 829 122 811 96 l 843 122 l 843 21 l 1032 21 l 1032 486 l 542 486 m 474 1201 l 474 1057 l 604 1057 l 604 1201 l 474 1201 "},"h":{"ha":569,"x_min":42,"x_max":528,"o":"m 42 0 l 249 0 l 249 382 l 322 382 l 322 0 l 528 0 l 528 972 l 322 972 l 322 590 l 249 590 l 249 972 l 42 972 l 42 0 "},"ħ":{"ha":1042,"x_min":0,"x_max":1042,"o":"m 83 0 l 290 0 l 290 382 l 753 382 l 753 0 l 958 0 l 958 750 l 1042 750 l 1042 811 l 958 811 l 958 972 l 753 972 l 753 811 l 290 811 l 290 972 l 83 972 l 83 811 l 0 811 l 0 750 l 83 750 l 83 0 m 290 590 l 290 750 l 753 750 l 753 590 l 290 590 "},"i":{"ha":293,"x_min":42,"x_max":251,"o":"m 42 1014 l 251 1014 l 251 1075 l 42 1075 l 42 1014 m 42 0 l 251 0 l 251 972 l 42 972 l 42 0 "},"ı":{"ha":293,"x_min":42,"x_max":251,"o":"m 42 0 l 251 0 l 251 972 l 42 972 l 42 0 "},"í":{"ha":917,"x_min":42,"x_max":875,"o":"m 42 972 l 42 792 l 354 792 l 354 179 l 42 179 l 42 0 l 875 0 l 875 179 l 563 179 l 563 792 l 875 792 l 875 972 l 42 972 m 207 1101 l 218 1042 l 710 1132 l 699 1192 l 207 1101 "},"î":{"ha":917,"x_min":42,"x_max":875,"o":"m 42 972 l 42 792 l 354 792 l 354 179 l 42 179 l 42 0 l 875 0 l 875 179 l 563 179 l 563 792 l 875 792 l 875 972 l 42 972 m 192 1028 l 444 1156 l 472 1156 l 725 1028 l 754 1081 l 458 1229 l 163 1081 l 192 1028 "},"ï":{"ha":917,"x_min":42,"x_max":875,"o":"m 42 972 l 42 792 l 354 792 l 354 179 l 42 179 l 42 0 l 875 0 l 875 179 l 563 179 l 563 792 l 875 792 l 875 972 l 42 972 m 293 1201 l 293 1057 l 424 1057 l 424 1201 l 293 1201 m 499 1201 l 499 1057 l 629 1057 l 629 1201 l 499 1201 "},"ị":{"ha":917,"x_min":42,"x_max":875,"o":"m 42 972 l 42 792 l 354 792 l 354 179 l 42 179 l 42 0 l 875 0 l 875 179 l 563 179 l 563 792 l 875 792 l 875 972 l 42 972 m 347 -64 l 347 -190 l 569 -190 l 569 -64 l 347 -64 "},"ì":{"ha":917,"x_min":42,"x_max":875,"o":"m 42 972 l 42 792 l 354 792 l 354 179 l 42 179 l 42 0 l 875 0 l 875 179 l 563 179 l 563 792 l 875 792 l 875 972 l 42 972 m 710 1101 l 218 1192 l 207 1132 l 699 1042 l 710 1101 "},"ỉ":{"ha":917,"x_min":42,"x_max":875,"o":"m 42 972 l 42 792 l 354 792 l 354 179 l 42 179 l 42 0 l 875 0 l 875 179 l 563 179 l 563 792 l 875 792 l 875 972 l 42 972 m 419 1056 l 496 1056 q 515 1087 496 1079 q 558 1101 533 1094 q 601 1123 582 1107 q 619 1178 619 1139 q 573 1257 619 1228 q 458 1286 526 1286 q 343 1257 390 1286 q 296 1178 296 1228 l 296 1164 l 365 1164 l 365 1175 q 397 1214 365 1204 q 458 1224 429 1224 q 518 1215 486 1224 q 550 1178 550 1206 q 531 1149 550 1157 q 485 1134 511 1142 q 439 1110 458 1126 q 419 1056 419 1093 "},"ī":{"ha":917,"x_min":42,"x_max":875,"o":"m 42 972 l 42 792 l 354 792 l 354 179 l 42 179 l 42 0 l 875 0 l 875 179 l 563 179 l 563 792 l 875 792 l 875 972 l 42 972 m 178 1056 l 740 1056 l 740 1117 l 178 1117 l 178 1056 "},"į":{"ha":917,"x_min":42,"x_max":875,"o":"m 42 972 l 42 792 l 354 792 l 354 179 l 42 179 l 42 0 l 875 0 l 875 179 l 563 179 l 563 792 l 875 792 l 875 972 l 42 972 m 490 0 l 446 0 q 437 -38 446 -24 q 415 -65 428 -53 q 394 -94 403 -78 q 385 -139 385 -111 q 410 -201 385 -171 q 479 -232 435 -232 q 542 -210 517 -232 q 576 -153 567 -187 q 571 -82 585 -118 l 528 -87 q 526 -158 543 -135 q 479 -182 510 -182 q 441 -164 454 -182 q 433 -122 428 -146 q 451 -90 438 -103 q 478 -58 465 -78 q 490 0 490 -37 "},"ĩ":{"ha":917,"x_min":42,"x_max":875,"o":"m 42 972 l 42 792 l 354 792 l 354 179 l 42 179 l 42 0 l 875 0 l 875 179 l 563 179 l 563 792 l 875 792 l 875 972 l 42 972 m 200 1056 l 264 1056 q 287 1119 267 1090 q 350 1150 307 1147 q 418 1131 386 1153 q 486 1086 450 1110 q 569 1056 522 1063 q 678 1080 639 1046 q 717 1190 717 1114 l 653 1190 q 646 1144 653 1165 q 619 1113 639 1122 q 561 1117 600 1104 q 496 1151 528 1129 q 427 1192 464 1174 q 342 1206 390 1210 q 256 1175 288 1201 q 213 1115 225 1149 q 200 1056 200 1081 "},"ĳ":{"ha":569,"x_min":42,"x_max":528,"o":"m 285 -14 q 408 19 353 -14 q 495 106 463 51 q 528 229 528 161 l 528 972 l 322 972 l 322 215 q 311 190 322 201 q 285 179 300 179 q 260 190 271 179 q 249 215 249 201 l 249 382 l 42 382 l 42 229 q 74 106 42 161 q 163 19 107 51 q 285 -14 218 -14 m 42 972 l 42 540 l 249 540 l 249 972 l 42 972 "},"j":{"ha":569,"x_min":42,"x_max":528,"o":"m 322 1014 l 528 1014 l 528 1075 l 322 1075 l 322 1014 m 285 -14 q 408 19 353 -14 q 495 106 463 51 q 528 229 528 161 l 528 972 l 322 972 l 322 217 q 311 190 322 201 q 285 179 300 179 q 259 190 269 179 q 249 217 249 201 l 249 382 l 42 382 l 42 229 q 74 106 42 161 q 163 19 107 51 q 285 -14 218 -14 "},"ȷ":{"ha":569,"x_min":42,"x_max":528,"o":"m 322 1014 l 528 1014 l 528 1075 l 322 1075 l 322 1014 m 285 -14 q 408 19 353 -14 q 495 106 463 51 q 528 229 528 161 l 528 972 l 322 972 l 322 217 q 311 190 322 201 q 285 179 300 179 q 259 190 269 179 q 249 217 249 201 l 249 382 l 42 382 l 42 229 q 74 106 42 161 q 163 19 107 51 q 285 -14 218 -14 "},"k":{"ha":571,"x_min":42,"x_max":528,"o":"m 42 0 l 249 0 l 249 300 l 263 300 l 319 0 l 528 0 l 528 28 l 389 529 l 389 550 l 528 944 l 528 972 l 319 972 l 263 694 l 249 694 l 249 972 l 42 972 l 42 0 "},"ķ":{"ha":958,"x_min":42,"x_max":917,"o":"m 432 -236 l 474 -236 l 499 -78 l 499 -64 l 432 -64 l 432 -236 m 42 0 l 249 0 l 249 382 l 263 382 l 681 0 l 917 0 l 917 28 l 422 479 l 422 493 l 917 944 l 917 972 l 681 972 l 263 590 l 249 590 l 249 972 l 42 972 l 42 0 "},"l":{"ha":472,"x_min":42,"x_max":431,"o":"m 42 0 l 431 0 l 431 179 l 249 179 l 249 972 l 42 972 l 42 0 "},"ĺ":{"ha":958,"x_min":42,"x_max":917,"o":"m 42 0 l 917 0 l 917 179 l 249 179 l 249 972 l 42 972 l 42 0 m 42 1115 l 53 1056 l 544 1146 l 533 1206 l 42 1115 "},"ľ":{"ha":958,"x_min":42,"x_max":917,"o":"m 346 688 l 389 688 l 401 944 l 401 972 l 332 972 l 332 944 l 346 688 m 42 0 l 917 0 l 917 179 l 249 179 l 249 972 l 42 972 l 42 0 "},"ļ":{"ha":958,"x_min":42,"x_max":917,"o":"m 42 0 l 917 0 l 917 179 l 249 179 l 249 972 l 42 972 l 42 0 m 382 -236 l 424 -236 l 449 -78 l 449 -64 l 382 -64 l 382 -236 "},"ł":{"ha":958,"x_min":-92,"x_max":917,"o":"m 42 0 l 917 0 l 917 179 l 249 179 l 249 501 l 382 549 l 382 610 l 249 563 l 249 972 l 42 972 l 42 490 l -92 443 l -92 382 l 42 429 l 42 0 "},"m":{"ha":775,"x_min":42,"x_max":733,"o":"m 42 0 l 244 0 l 244 769 q 265 792 244 792 q 286 769 286 792 l 286 0 l 488 0 l 488 772 q 494 787 488 781 q 508 793 500 793 q 523 787 517 793 q 529 772 529 781 l 529 0 l 733 0 l 733 804 q 692 940 733 894 q 582 986 651 986 q 499 965 525 986 q 458 924 472 944 l 444 924 q 404 967 435 949 q 332 986 374 986 q 260 968 293 986 q 221 924 228 950 l 207 924 l 207 972 l 42 972 l 42 0 "},"n":{"ha":569,"x_min":42,"x_max":528,"o":"m 349 986 q 269 967 306 986 q 221 924 232 947 l 207 924 l 207 972 l 42 972 l 42 0 l 250 0 l 250 757 q 260 783 250 772 q 285 793 271 793 q 310 783 300 793 q 321 757 321 772 l 321 0 l 528 0 l 528 743 q 510 866 528 811 q 453 953 493 921 q 349 986 414 986 "},"ń":{"ha":958,"x_min":42,"x_max":917,"o":"m 542 986 q 381 951 449 986 q 263 851 313 917 l 249 851 l 249 972 l 42 972 l 42 0 l 249 0 l 249 563 q 310 727 249 661 q 479 793 371 793 q 649 727 588 793 q 710 563 710 661 l 710 0 l 917 0 l 917 563 q 870 774 917 678 q 740 928 824 869 q 542 986 656 986 m 228 1088 l 239 1028 l 731 1118 l 719 1178 l 228 1088 "},"ň":{"ha":958,"x_min":42,"x_max":917,"o":"m 542 986 q 381 951 449 986 q 263 851 313 917 l 249 851 l 249 972 l 42 972 l 42 0 l 249 0 l 249 563 q 310 727 249 661 q 479 793 371 793 q 649 727 588 793 q 710 563 710 661 l 710 0 l 917 0 l 917 563 q 870 774 917 678 q 740 928 824 869 q 542 986 656 986 m 213 1225 l 183 1172 l 479 1024 l 775 1172 l 746 1225 l 493 1097 l 465 1097 l 213 1225 "},"ņ":{"ha":958,"x_min":42,"x_max":917,"o":"m 542 986 q 381 951 449 986 q 263 851 313 917 l 249 851 l 249 972 l 42 972 l 42 0 l 249 0 l 249 563 q 310 727 249 661 q 479 793 371 793 q 649 727 588 793 q 710 563 710 661 l 710 0 l 917 0 l 917 563 q 870 774 917 678 q 740 928 824 869 q 542 986 656 986 m 446 -236 l 488 -236 l 513 -78 l 513 -64 l 446 -64 l 446 -236 "},"ñ":{"ha":958,"x_min":42,"x_max":917,"o":"m 542 986 q 381 951 449 986 q 263 851 313 917 l 249 851 l 249 972 l 42 972 l 42 0 l 249 0 l 249 563 q 310 727 249 661 q 479 793 371 793 q 649 727 588 793 q 710 563 710 661 l 710 0 l 917 0 l 917 563 q 870 774 917 678 q 740 928 824 869 q 542 986 656 986 m 269 1039 l 333 1039 q 356 1102 336 1074 q 419 1133 376 1131 q 488 1115 456 1136 q 556 1069 519 1093 q 639 1039 592 1046 q 747 1063 708 1029 q 786 1174 786 1097 l 722 1174 q 715 1127 722 1149 q 689 1097 708 1106 q 631 1100 669 1088 q 565 1135 597 1113 q 497 1175 533 1157 q 411 1189 460 1193 q 326 1158 357 1185 q 282 1098 294 1132 q 269 1039 269 1064 "},"ŋ":{"ha":958,"x_min":42,"x_max":917,"o":"m 674 -278 q 797 -245 742 -278 q 884 -157 851 -212 q 917 -35 917 -101 l 917 563 q 870 774 917 678 q 740 928 824 869 q 542 986 656 986 q 381 951 449 986 q 263 851 313 917 l 249 851 l 249 972 l 42 972 l 42 0 l 249 0 l 249 563 q 310 727 249 661 q 479 793 371 793 q 649 727 588 793 q 710 563 710 661 l 710 -47 q 699 -74 710 -62 q 672 -85 688 -85 l 586 -85 l 572 -278 l 674 -278 "},"o":{"ha":571,"x_min":42,"x_max":528,"o":"m 285 -14 q 407 19 351 -14 q 495 106 463 51 q 528 229 528 161 l 528 743 q 495 866 528 811 q 407 953 463 921 q 285 986 351 986 q 163 953 218 986 q 74 866 107 921 q 42 743 42 811 l 42 229 q 74 106 42 161 q 163 19 107 51 q 285 -14 218 -14 m 285 169 q 259 180 269 169 q 249 204 249 190 l 249 769 q 259 795 249 785 q 285 806 269 806 q 310 795 300 806 q 319 769 319 785 l 319 204 q 310 180 319 190 q 285 169 300 169 "},"ó":{"ha":1083,"x_min":42,"x_max":1042,"o":"m 542 986 q 341 948 432 986 q 183 842 250 910 q 78 684 115 775 q 42 486 42 593 q 78 289 42 381 q 183 130 115 197 q 341 24 250 63 q 542 -14 432 -14 q 742 24 650 -14 q 901 130 833 63 q 1005 289 968 197 q 1042 486 1042 381 q 1005 684 1042 593 q 901 842 968 775 q 742 948 833 910 q 542 986 650 986 m 858 486 q 817 324 858 396 q 706 211 776 253 q 542 169 635 169 q 376 211 449 169 q 263 324 304 253 q 222 486 222 396 q 263 650 222 578 q 376 764 304 722 q 542 806 449 806 q 706 764 635 806 q 817 650 776 722 q 858 486 858 578 m 290 1088 l 301 1028 l 793 1118 l 782 1178 l 290 1088 "},"ô":{"ha":1083,"x_min":42,"x_max":1042,"o":"m 542 986 q 341 948 432 986 q 183 842 250 910 q 78 684 115 775 q 42 486 42 593 q 78 289 42 381 q 183 130 115 197 q 341 24 250 63 q 542 -14 432 -14 q 742 24 650 -14 q 901 130 833 63 q 1005 289 968 197 q 1042 486 1042 381 q 1005 684 1042 593 q 901 842 968 775 q 742 948 833 910 q 542 986 650 986 m 858 486 q 817 324 858 396 q 706 211 776 253 q 542 169 635 169 q 376 211 449 169 q 263 324 304 253 q 222 486 222 396 q 263 650 222 578 q 376 764 304 722 q 542 806 449 806 q 706 764 635 806 q 817 650 776 722 q 858 486 858 578 m 275 1000 l 528 1128 l 556 1128 l 808 1000 l 838 1053 l 542 1201 l 246 1053 l 275 1000 "},"ố":{"ha":1083,"x_min":42,"x_max":1094,"o":"m 542 986 q 341 948 432 986 q 183 842 250 910 q 78 684 115 775 q 42 486 42 593 q 78 289 42 381 q 183 130 115 197 q 341 24 250 63 q 542 -14 432 -14 q 742 24 650 -14 q 901 130 833 63 q 1005 289 968 197 q 1042 486 1042 381 q 1005 684 1042 593 q 901 842 968 775 q 742 948 833 910 q 542 986 650 986 m 858 486 q 817 324 858 396 q 706 211 776 253 q 542 169 635 169 q 376 211 449 169 q 263 324 304 253 q 222 486 222 396 q 263 650 222 578 q 376 764 304 722 q 542 806 449 806 q 706 764 635 806 q 817 650 776 722 q 858 486 858 578 m 765 1200 l 796 1150 l 1094 1289 l 1068 1342 l 765 1200 m 275 1000 l 528 1128 l 556 1128 l 808 1000 l 838 1053 l 542 1201 l 246 1053 l 275 1000 "},"ộ":{"ha":1083,"x_min":42,"x_max":1042,"o":"m 542 986 q 341 948 432 986 q 183 842 250 910 q 78 684 115 775 q 42 486 42 593 q 78 289 42 381 q 183 130 115 197 q 341 24 250 63 q 542 -14 432 -14 q 742 24 650 -14 q 901 130 833 63 q 1005 289 968 197 q 1042 486 1042 381 q 1005 684 1042 593 q 901 842 968 775 q 742 948 833 910 q 542 986 650 986 m 858 486 q 817 324 858 396 q 706 211 776 253 q 542 169 635 169 q 376 211 449 169 q 263 324 304 253 q 222 486 222 396 q 263 650 222 578 q 376 764 304 722 q 542 806 449 806 q 706 764 635 806 q 817 650 776 722 q 858 486 858 578 m 431 -64 l 431 -190 l 653 -190 l 653 -64 l 431 -64 m 275 1000 l 528 1128 l 556 1128 l 808 1000 l 838 1053 l 542 1201 l 246 1053 l 275 1000 "},"ồ":{"ha":1083,"x_min":42,"x_max":1042,"o":"m 542 986 q 341 948 432 986 q 183 842 250 910 q 78 684 115 775 q 42 486 42 593 q 78 289 42 381 q 183 130 115 197 q 341 24 250 63 q 542 -14 432 -14 q 742 24 650 -14 q 901 130 833 63 q 1005 289 968 197 q 1042 486 1042 381 q 1005 684 1042 593 q 901 842 968 775 q 742 948 833 910 q 542 986 650 986 m 858 486 q 817 324 858 396 q 706 211 776 253 q 542 169 635 169 q 376 211 449 169 q 263 324 304 253 q 222 486 222 396 q 263 650 222 578 q 376 764 304 722 q 542 806 449 806 q 706 764 635 806 q 817 650 776 722 q 858 486 858 578 m 914 1190 l 613 1331 l 585 1279 l 885 1139 l 914 1190 m 275 1000 l 528 1128 l 556 1128 l 808 1000 l 838 1053 l 542 1201 l 246 1053 l 275 1000 "},"ổ":{"ha":1083,"x_min":42,"x_max":1042,"o":"m 542 986 q 341 948 432 986 q 183 842 250 910 q 78 684 115 775 q 42 486 42 593 q 78 289 42 381 q 183 130 115 197 q 341 24 250 63 q 542 -14 432 -14 q 742 24 650 -14 q 901 130 833 63 q 1005 289 968 197 q 1042 486 1042 381 q 1005 684 1042 593 q 901 842 968 775 q 742 948 833 910 q 542 986 650 986 m 858 486 q 817 324 858 396 q 706 211 776 253 q 542 169 635 169 q 376 211 449 169 q 263 324 304 253 q 222 486 222 396 q 263 650 222 578 q 376 764 304 722 q 542 806 449 806 q 706 764 635 806 q 817 650 776 722 q 858 486 858 578 m 700 1190 l 761 1190 q 774 1228 761 1215 q 803 1250 786 1240 q 833 1276 821 1260 q 846 1324 846 1292 q 811 1393 846 1365 q 726 1421 776 1421 q 640 1392 675 1421 q 606 1324 606 1364 l 606 1308 l 667 1308 l 667 1317 q 726 1365 667 1365 q 769 1353 754 1365 q 785 1324 785 1342 q 772 1295 785 1306 q 742 1274 760 1285 q 713 1245 725 1264 q 700 1190 700 1226 m 275 1000 l 528 1128 l 556 1128 l 808 1000 l 838 1053 l 542 1201 l 246 1053 l 275 1000 "},"ỗ":{"ha":1083,"x_min":42,"x_max":1042,"o":"m 542 986 q 341 948 432 986 q 183 842 250 910 q 78 684 115 775 q 42 486 42 593 q 78 289 42 381 q 183 130 115 197 q 341 24 250 63 q 542 -14 432 -14 q 742 24 650 -14 q 901 130 833 63 q 1005 289 968 197 q 1042 486 1042 381 q 1005 684 1042 593 q 901 842 968 775 q 742 948 833 910 q 542 986 650 986 m 858 486 q 817 324 858 396 q 706 211 776 253 q 542 169 635 169 q 376 211 449 169 q 263 324 304 253 q 222 486 222 396 q 263 650 222 578 q 376 764 304 722 q 542 806 449 806 q 706 764 635 806 q 817 650 776 722 q 858 486 858 578 m 275 1000 l 528 1128 l 556 1128 l 808 1000 l 838 1053 l 542 1201 l 246 1053 l 275 1000 m 283 1231 l 347 1231 q 370 1294 350 1265 q 433 1325 390 1322 q 501 1306 469 1328 q 569 1261 533 1285 q 653 1231 606 1238 q 761 1255 722 1221 q 800 1365 800 1289 l 736 1365 q 729 1319 736 1340 q 703 1288 722 1297 q 644 1292 683 1279 q 579 1326 611 1304 q 510 1367 547 1349 q 425 1381 474 1385 q 340 1350 371 1376 q 296 1290 308 1324 q 283 1231 283 1256 "},"ö":{"ha":1083,"x_min":42,"x_max":1042,"o":"m 542 986 q 341 948 432 986 q 183 842 250 910 q 78 684 115 775 q 42 486 42 593 q 78 289 42 381 q 183 130 115 197 q 341 24 250 63 q 542 -14 432 -14 q 742 24 650 -14 q 901 130 833 63 q 1005 289 968 197 q 1042 486 1042 381 q 1005 684 1042 593 q 901 842 968 775 q 742 948 833 910 q 542 986 650 986 m 858 486 q 817 324 858 396 q 706 211 776 253 q 542 169 635 169 q 376 211 449 169 q 263 324 304 253 q 222 486 222 396 q 263 650 222 578 q 376 764 304 722 q 542 806 449 806 q 706 764 635 806 q 817 650 776 722 q 858 486 858 578 m 376 1201 l 376 1057 l 507 1057 l 507 1201 l 376 1201 m 582 1201 l 582 1057 l 713 1057 l 713 1201 l 582 1201 "},"ọ":{"ha":1083,"x_min":42,"x_max":1042,"o":"m 542 986 q 341 948 432 986 q 183 842 250 910 q 78 684 115 775 q 42 486 42 593 q 78 289 42 381 q 183 130 115 197 q 341 24 250 63 q 542 -14 432 -14 q 742 24 650 -14 q 901 130 833 63 q 1005 289 968 197 q 1042 486 1042 381 q 1005 684 1042 593 q 901 842 968 775 q 742 948 833 910 q 542 986 650 986 m 858 486 q 817 324 858 396 q 706 211 776 253 q 542 169 635 169 q 376 211 449 169 q 263 324 304 253 q 222 486 222 396 q 263 650 222 578 q 376 764 304 722 q 542 806 449 806 q 706 764 635 806 q 817 650 776 722 q 858 486 858 578 m 431 -64 l 431 -190 l 653 -190 l 653 -64 l 431 -64 "},"ò":{"ha":1083,"x_min":42,"x_max":1042,"o":"m 542 986 q 341 948 432 986 q 183 842 250 910 q 78 684 115 775 q 42 486 42 593 q 78 289 42 381 q 183 130 115 197 q 341 24 250 63 q 542 -14 432 -14 q 742 24 650 -14 q 901 130 833 63 q 1005 289 968 197 q 1042 486 1042 381 q 1005 684 1042 593 q 901 842 968 775 q 742 948 833 910 q 542 986 650 986 m 858 486 q 817 324 858 396 q 706 211 776 253 q 542 169 635 169 q 376 211 449 169 q 263 324 304 253 q 222 486 222 396 q 263 650 222 578 q 376 764 304 722 q 542 806 449 806 q 706 764 635 806 q 817 650 776 722 q 858 486 858 578 m 793 1088 l 301 1178 l 290 1118 l 782 1028 l 793 1088 "},"ỏ":{"ha":1083,"x_min":42,"x_max":1042,"o":"m 542 986 q 341 948 432 986 q 183 842 250 910 q 78 684 115 775 q 42 486 42 593 q 78 289 42 381 q 183 130 115 197 q 341 24 250 63 q 542 -14 432 -14 q 742 24 650 -14 q 901 130 833 63 q 1005 289 968 197 q 1042 486 1042 381 q 1005 684 1042 593 q 901 842 968 775 q 742 948 833 910 q 542 986 650 986 m 858 486 q 817 324 858 396 q 706 211 776 253 q 542 169 635 169 q 376 211 449 169 q 263 324 304 253 q 222 486 222 396 q 263 650 222 578 q 376 764 304 722 q 542 806 449 806 q 706 764 635 806 q 817 650 776 722 q 858 486 858 578 m 504 1056 l 581 1056 q 599 1087 581 1079 q 642 1101 618 1094 q 685 1123 667 1107 q 704 1178 704 1139 q 658 1257 704 1228 q 543 1286 611 1286 q 428 1257 475 1286 q 381 1178 381 1228 l 381 1164 l 450 1164 l 450 1175 q 482 1214 450 1204 q 543 1224 514 1224 q 603 1215 571 1224 q 635 1178 635 1206 q 615 1149 635 1157 q 569 1134 596 1142 q 524 1110 543 1126 q 504 1056 504 1093 "},"ơ":{"ha":1083,"x_min":42,"x_max":1042,"o":"m 975 735 q 1028 844 1015 785 q 1040 972 1040 904 l 915 972 q 908 880 915 917 q 885 811 901 843 l 871 811 q 819 888 858 847 q 711 958 779 929 q 542 986 643 986 q 347 947 438 986 q 188 840 257 908 q 81 681 119 771 q 42 486 42 590 q 81 292 42 382 q 188 133 119 201 q 347 25 257 64 q 542 -14 438 -14 q 736 25 646 -14 q 895 133 826 64 q 1003 292 964 201 q 1042 486 1042 382 q 975 735 1042 622 m 835 486 q 795 340 835 406 q 690 234 756 274 q 542 194 624 194 q 395 234 461 194 q 290 340 329 274 q 250 486 250 406 q 290 634 250 568 q 395 740 329 700 q 542 779 461 779 q 690 740 624 779 q 795 634 756 700 q 835 486 835 568 "},"ớ":{"ha":1083,"x_min":42,"x_max":1042,"o":"m 975 735 q 1028 844 1015 785 q 1040 972 1040 904 l 915 972 q 908 880 915 917 q 885 811 901 843 l 871 811 q 819 888 858 847 q 711 958 779 929 q 542 986 643 986 q 347 947 438 986 q 188 840 257 908 q 81 681 119 771 q 42 486 42 590 q 81 292 42 382 q 188 133 119 201 q 347 25 257 64 q 542 -14 438 -14 q 736 25 646 -14 q 895 133 826 64 q 1003 292 964 201 q 1042 486 1042 382 q 975 735 1042 622 m 835 486 q 795 340 835 406 q 690 234 756 274 q 542 194 624 194 q 395 234 461 194 q 290 340 329 274 q 250 486 250 406 q 290 634 250 568 q 395 740 329 700 q 542 779 461 779 q 690 740 624 779 q 795 634 756 700 q 835 486 835 568 m 290 1088 l 301 1028 l 793 1118 l 782 1178 l 290 1088 "},"ợ":{"ha":1083,"x_min":42,"x_max":1042,"o":"m 975 735 q 1028 844 1015 785 q 1040 972 1040 904 l 915 972 q 908 880 915 917 q 885 811 901 843 l 871 811 q 819 888 858 847 q 711 958 779 929 q 542 986 643 986 q 347 947 438 986 q 188 840 257 908 q 81 681 119 771 q 42 486 42 590 q 81 292 42 382 q 188 133 119 201 q 347 25 257 64 q 542 -14 438 -14 q 736 25 646 -14 q 895 133 826 64 q 1003 292 964 201 q 1042 486 1042 382 q 975 735 1042 622 m 835 486 q 795 340 835 406 q 690 234 756 274 q 542 194 624 194 q 395 234 461 194 q 290 340 329 274 q 250 486 250 406 q 290 634 250 568 q 395 740 329 700 q 542 779 461 779 q 690 740 624 779 q 795 634 756 700 q 835 486 835 568 m 431 -64 l 431 -190 l 653 -190 l 653 -64 l 431 -64 "},"ờ":{"ha":1083,"x_min":42,"x_max":1042,"o":"m 975 735 q 1028 844 1015 785 q 1040 972 1040 904 l 915 972 q 908 880 915 917 q 885 811 901 843 l 871 811 q 819 888 858 847 q 711 958 779 929 q 542 986 643 986 q 347 947 438 986 q 188 840 257 908 q 81 681 119 771 q 42 486 42 590 q 81 292 42 382 q 188 133 119 201 q 347 25 257 64 q 542 -14 438 -14 q 736 25 646 -14 q 895 133 826 64 q 1003 292 964 201 q 1042 486 1042 382 q 975 735 1042 622 m 835 486 q 795 340 835 406 q 690 234 756 274 q 542 194 624 194 q 395 234 461 194 q 290 340 329 274 q 250 486 250 406 q 290 634 250 568 q 395 740 329 700 q 542 779 461 779 q 690 740 624 779 q 795 634 756 700 q 835 486 835 568 m 793 1088 l 301 1178 l 290 1118 l 782 1028 l 793 1088 "},"ở":{"ha":1083,"x_min":42,"x_max":1042,"o":"m 975 735 q 1028 844 1015 785 q 1040 972 1040 904 l 915 972 q 908 880 915 917 q 885 811 901 843 l 871 811 q 819 888 858 847 q 711 958 779 929 q 542 986 643 986 q 347 947 438 986 q 188 840 257 908 q 81 681 119 771 q 42 486 42 590 q 81 292 42 382 q 188 133 119 201 q 347 25 257 64 q 542 -14 438 -14 q 736 25 646 -14 q 895 133 826 64 q 1003 292 964 201 q 1042 486 1042 382 q 975 735 1042 622 m 835 486 q 795 340 835 406 q 690 234 756 274 q 542 194 624 194 q 395 234 461 194 q 290 340 329 274 q 250 486 250 406 q 290 634 250 568 q 395 740 329 700 q 542 779 461 779 q 690 740 624 779 q 795 634 756 700 q 835 486 835 568 m 503 1056 l 579 1056 q 598 1087 579 1079 q 641 1101 617 1094 q 684 1123 665 1107 q 703 1178 703 1139 q 656 1257 703 1228 q 542 1286 610 1286 q 426 1257 474 1286 q 379 1178 379 1228 l 379 1164 l 449 1164 l 449 1175 q 481 1214 449 1204 q 542 1224 513 1224 q 601 1215 569 1224 q 633 1178 633 1206 q 614 1149 633 1157 q 568 1134 594 1142 q 522 1110 542 1126 q 503 1056 503 1093 "},"ỡ":{"ha":1083,"x_min":42,"x_max":1042,"o":"m 975 735 q 1028 844 1015 785 q 1040 972 1040 904 l 915 972 q 908 880 915 917 q 885 811 901 843 l 871 811 q 819 888 858 847 q 711 958 779 929 q 542 986 643 986 q 347 947 438 986 q 188 840 257 908 q 81 681 119 771 q 42 486 42 590 q 81 292 42 382 q 188 133 119 201 q 347 25 257 64 q 542 -14 438 -14 q 736 25 646 -14 q 895 133 826 64 q 1003 292 964 201 q 1042 486 1042 382 q 975 735 1042 622 m 835 486 q 795 340 835 406 q 690 234 756 274 q 542 194 624 194 q 395 234 461 194 q 290 340 329 274 q 250 486 250 406 q 290 634 250 568 q 395 740 329 700 q 542 779 461 779 q 690 740 624 779 q 795 634 756 700 q 835 486 835 568 m 283 1039 l 347 1039 q 370 1102 350 1074 q 433 1133 390 1131 q 501 1115 469 1136 q 569 1069 533 1093 q 653 1039 606 1046 q 761 1063 722 1029 q 800 1174 800 1097 l 736 1174 q 729 1127 736 1149 q 703 1097 722 1106 q 644 1100 683 1088 q 579 1135 611 1113 q 510 1175 547 1157 q 425 1189 474 1193 q 340 1158 371 1185 q 296 1098 308 1132 q 283 1039 283 1064 "},"ő":{"ha":1083,"x_min":42,"x_max":1042,"o":"m 542 986 q 341 948 432 986 q 183 842 250 910 q 78 684 115 775 q 42 486 42 593 q 78 289 42 381 q 183 130 115 197 q 341 24 250 63 q 542 -14 432 -14 q 742 24 650 -14 q 901 130 833 63 q 1005 289 968 197 q 1042 486 1042 381 q 1005 684 1042 593 q 901 842 968 775 q 742 948 833 910 q 542 986 650 986 m 858 486 q 817 324 858 396 q 706 211 776 253 q 542 169 635 169 q 376 211 449 169 q 263 324 304 253 q 222 486 222 396 q 263 650 222 578 q 376 764 304 722 q 542 806 449 806 q 706 764 635 806 q 817 650 776 722 q 858 486 858 578 m 417 1088 l 464 1056 l 649 1286 l 600 1318 l 417 1088 m 601 1088 l 649 1056 l 833 1286 l 785 1318 l 601 1088 "},"ō":{"ha":1083,"x_min":42,"x_max":1042,"o":"m 542 986 q 341 948 432 986 q 183 842 250 910 q 78 684 115 775 q 42 486 42 593 q 78 289 42 381 q 183 130 115 197 q 341 24 250 63 q 542 -14 432 -14 q 742 24 650 -14 q 901 130 833 63 q 1005 289 968 197 q 1042 486 1042 381 q 1005 684 1042 593 q 901 842 968 775 q 742 948 833 910 q 542 986 650 986 m 858 486 q 817 324 858 396 q 706 211 776 253 q 542 169 635 169 q 376 211 449 169 q 263 324 304 253 q 222 486 222 396 q 263 650 222 578 q 376 764 304 722 q 542 806 449 806 q 706 764 635 806 q 817 650 776 722 q 858 486 858 578 m 261 1056 l 824 1056 l 824 1117 l 261 1117 l 261 1056 "},"ø":{"ha":1083,"x_min":42,"x_max":1042,"o":"m 542 986 q 341 948 432 986 q 183 842 250 910 q 78 684 115 775 q 42 486 42 593 q 92 257 42 361 q 233 86 143 153 l 163 -14 l 213 -14 l 267 63 q 394 6 325 26 q 542 -14 464 -14 q 742 24 650 -14 q 901 130 833 63 q 1005 289 968 197 q 1042 486 1042 381 q 990 715 1042 611 q 850 886 939 819 l 921 986 l 872 986 l 818 910 q 690 966 760 946 q 542 986 619 986 m 222 486 q 263 650 222 578 q 376 764 304 722 q 542 806 449 806 q 711 760 636 806 l 339 236 q 253 343 285 278 q 222 486 222 408 m 858 486 q 817 324 858 396 q 706 211 776 253 q 542 169 635 169 q 374 213 447 169 l 744 738 q 828 629 797 694 q 858 486 858 564 "},"õ":{"ha":1083,"x_min":42,"x_max":1042,"o":"m 542 986 q 341 948 432 986 q 183 842 250 910 q 78 684 115 775 q 42 486 42 593 q 78 289 42 381 q 183 130 115 197 q 341 24 250 63 q 542 -14 432 -14 q 742 24 650 -14 q 901 130 833 63 q 1005 289 968 197 q 1042 486 1042 381 q 1005 684 1042 593 q 901 842 968 775 q 742 948 833 910 q 542 986 650 986 m 858 486 q 817 324 858 396 q 706 211 776 253 q 542 169 635 169 q 376 211 449 169 q 263 324 304 253 q 222 486 222 396 q 263 650 222 578 q 376 764 304 722 q 542 806 449 806 q 706 764 635 806 q 817 650 776 722 q 858 486 858 578 m 283 1039 l 347 1039 q 370 1102 350 1074 q 433 1133 390 1131 q 501 1115 469 1136 q 569 1069 533 1093 q 653 1039 606 1046 q 761 1063 722 1029 q 800 1174 800 1097 l 736 1174 q 729 1127 736 1149 q 703 1097 722 1106 q 644 1100 683 1088 q 579 1135 611 1113 q 510 1175 547 1157 q 425 1189 474 1193 q 340 1158 371 1185 q 296 1098 308 1132 q 283 1039 283 1064 "},"œ":{"ha":849,"x_min":42,"x_max":807,"o":"m 285 -14 q 407 19 351 -14 q 495 106 463 51 q 528 229 528 161 l 528 743 q 495 866 528 811 q 407 953 463 921 q 285 986 351 986 q 163 953 218 986 q 74 866 107 921 q 42 743 42 811 l 42 229 q 74 106 42 161 q 163 19 107 51 q 285 -14 218 -14 m 285 169 q 259 180 269 169 q 249 204 249 190 l 249 769 q 259 795 249 785 q 285 806 269 806 q 310 795 300 806 q 319 769 319 785 l 319 204 q 310 180 319 190 q 285 169 300 169 m 564 -14 q 683 17 629 -14 q 770 99 736 47 q 807 214 804 150 l 807 361 l 599 361 l 599 215 q 589 190 599 201 q 564 179 579 179 q 538 190 549 179 q 528 215 528 201 l 528 432 l 807 432 l 807 743 q 774 866 807 811 q 686 953 742 921 q 564 986 631 986 q 442 953 497 986 q 353 866 386 921 q 321 743 321 811 l 321 229 q 353 106 321 161 q 442 19 386 51 q 564 -14 497 -14 m 528 626 l 528 771 q 538 796 528 786 q 564 806 549 806 q 589 796 579 806 q 599 771 599 786 l 599 626 l 528 626 "},"p":{"ha":569,"x_min":42,"x_max":528,"o":"m 42 0 l 249 0 l 249 267 l 257 267 q 393 303 332 267 q 491 400 454 339 q 528 536 528 461 l 528 703 q 491 839 528 778 q 393 936 454 900 q 257 972 332 972 l 42 972 l 42 0 m 249 447 l 249 792 l 253 792 q 286 788 271 792 q 310 764 301 783 q 319 697 319 744 l 319 540 q 310 475 319 494 q 286 451 301 456 q 253 447 271 447 l 249 447 "},"þ":{"ha":569,"x_min":42,"x_max":528,"o":"m 42 0 l 249 0 l 249 133 l 257 133 q 393 169 332 133 q 491 267 454 206 q 528 403 528 328 l 528 569 q 491 706 528 644 q 393 803 454 767 q 257 839 332 839 l 257 972 l 42 972 l 42 0 m 249 314 l 249 658 l 253 658 q 286 654 271 658 q 310 631 301 650 q 319 564 319 611 l 319 407 q 310 342 319 361 q 286 318 301 322 q 253 314 271 314 l 249 314 "},"q":{"ha":569,"x_min":42,"x_max":528,"o":"m 528 -121 l 528 18 q 425 29 458 6 l 425 43 q 500 129 472 76 q 528 243 528 182 l 528 743 q 495 866 528 811 q 408 953 463 921 q 285 986 353 986 q 163 953 218 986 q 75 866 108 921 q 42 743 42 811 l 42 243 q 75 122 42 176 q 163 33 108 67 q 285 0 218 0 l 317 0 q 404 -88 349 -56 q 528 -121 460 -121 m 285 179 q 260 190 271 179 q 249 215 249 201 l 249 756 q 260 781 249 771 q 285 792 271 792 q 311 781 300 792 q 322 756 322 771 l 322 215 q 311 190 322 201 q 285 179 300 179 "},"r":{"ha":569,"x_min":42,"x_max":528,"o":"m 249 0 l 249 340 l 265 340 q 292 330 281 340 q 303 304 303 319 l 303 -1 l 508 -1 l 508 304 q 473 424 508 378 q 376 481 438 471 l 376 501 q 483 571 438 521 q 528 706 528 621 q 491 842 528 782 q 392 937 454 901 q 254 972 331 972 l 42 972 l 42 0 l 249 0 m 249 618 l 249 789 l 275 789 q 308 776 294 789 q 321 743 321 763 l 321 663 q 308 631 321 644 q 275 618 294 618 l 249 618 "},"ŕ":{"ha":958,"x_min":42,"x_max":917,"o":"m 249 0 l 249 340 l 514 340 q 640 299 589 340 q 692 179 692 258 l 692 0 l 897 0 l 897 243 q 862 362 897 317 q 765 417 826 407 l 765 438 q 872 514 826 457 q 917 656 917 571 q 875 819 917 749 q 757 931 833 890 q 576 972 681 972 l 42 972 l 42 0 l 249 0 m 249 515 l 249 789 l 576 789 q 671 751 632 789 q 710 656 710 713 q 667 556 710 596 q 565 515 624 515 l 249 515 m 228 1088 l 239 1028 l 731 1118 l 719 1178 l 228 1088 "},"ř":{"ha":958,"x_min":42,"x_max":917,"o":"m 249 0 l 249 340 l 514 340 q 640 299 589 340 q 692 179 692 258 l 692 0 l 897 0 l 897 243 q 862 362 897 317 q 765 417 826 407 l 765 438 q 872 514 826 457 q 917 656 917 571 q 875 819 917 749 q 757 931 833 890 q 576 972 681 972 l 42 972 l 42 0 l 249 0 m 249 515 l 249 789 l 576 789 q 671 751 632 789 q 710 656 710 713 q 667 556 710 596 q 565 515 624 515 l 249 515 m 185 1225 l 156 1172 l 451 1024 l 747 1172 l 718 1225 l 465 1097 l 438 1097 l 185 1225 "},"ŗ":{"ha":958,"x_min":42,"x_max":917,"o":"m 249 0 l 249 340 l 514 340 q 640 299 589 340 q 692 179 692 258 l 692 0 l 897 0 l 897 243 q 862 362 897 317 q 765 417 826 407 l 765 438 q 872 514 826 457 q 917 656 917 571 q 875 819 917 749 q 757 931 833 890 q 576 972 681 972 l 42 972 l 42 0 l 249 0 m 249 515 l 249 789 l 576 789 q 671 751 632 789 q 710 656 710 713 q 667 556 710 596 q 565 515 624 515 l 249 515 m 446 -236 l 488 -236 l 513 -78 l 513 -64 l 446 -64 l 446 -236 "},"s":{"ha":569,"x_min":42,"x_max":528,"o":"m 285 -14 q 408 19 353 -14 q 495 106 463 51 q 528 229 528 161 l 528 235 q 497 341 528 290 q 435 443 467 392 l 263 717 q 252 735 256 729 q 249 751 249 742 q 260 778 249 767 q 285 789 271 789 q 311 778 300 789 q 322 751 322 767 l 322 644 l 528 644 l 528 743 q 495 866 528 811 q 408 953 463 921 q 285 986 353 986 q 163 953 218 986 q 74 866 107 921 q 42 743 42 811 l 42 738 q 58 673 42 707 q 99 605 75 639 q 140 540 122 571 l 307 268 q 319 244 317 253 q 322 222 322 235 q 311 197 322 208 q 285 185 300 185 q 259 197 269 185 q 249 222 249 208 l 249 340 l 42 340 l 42 229 q 74 106 42 161 q 163 19 107 51 q 285 -14 218 -14 "},"ś":{"ha":996,"x_min":42,"x_max":954,"o":"m 515 -14 q 738 16 639 -14 q 896 101 838 46 q 954 235 954 157 q 910 378 954 324 q 791 466 867 432 q 619 526 715 500 q 463 565 533 550 q 342 594 393 579 q 264 631 292 608 q 236 694 236 654 q 305 787 236 754 q 510 819 374 819 q 697 777 635 819 q 760 663 760 735 l 760 644 l 954 644 l 954 694 q 895 844 954 779 q 737 948 836 910 q 515 986 638 986 q 253 945 358 986 q 94 838 147 904 q 42 694 42 771 q 62 603 42 642 q 112 539 82 565 q 174 497 142 513 q 231 474 206 482 q 448 414 350 436 q 615 373 546 392 q 722 331 685 354 q 760 268 760 307 q 693 185 760 204 q 515 167 626 167 q 391 178 446 167 q 305 224 336 190 q 274 324 274 258 l 274 340 l 79 340 l 79 296 q 138 117 79 186 q 297 17 197 49 q 515 -14 396 -14 m 247 1088 l 258 1028 l 750 1118 l 739 1178 l 247 1088 "},"š":{"ha":996,"x_min":42,"x_max":954,"o":"m 515 -14 q 738 16 639 -14 q 896 101 838 46 q 954 235 954 157 q 910 378 954 324 q 791 466 867 432 q 619 526 715 500 q 463 565 533 550 q 342 594 393 579 q 264 631 292 608 q 236 694 236 654 q 305 787 236 754 q 510 819 374 819 q 697 777 635 819 q 760 663 760 735 l 760 644 l 954 644 l 954 694 q 895 844 954 779 q 737 948 836 910 q 515 986 638 986 q 253 945 358 986 q 94 838 147 904 q 42 694 42 771 q 62 603 42 642 q 112 539 82 565 q 174 497 142 513 q 231 474 206 482 q 448 414 350 436 q 615 373 546 392 q 722 331 685 354 q 760 268 760 307 q 693 185 760 204 q 515 167 626 167 q 391 178 446 167 q 305 224 336 190 q 274 324 274 258 l 274 340 l 79 340 l 79 296 q 138 117 79 186 q 297 17 197 49 q 515 -14 396 -14 m 232 1225 l 203 1172 l 499 1024 l 794 1172 l 765 1225 l 513 1097 l 485 1097 l 232 1225 "},"ş":{"ha":996,"x_min":42,"x_max":954,"o":"m 515 -14 q 738 16 639 -14 q 896 101 838 46 q 954 235 954 157 q 910 378 954 324 q 791 466 867 432 q 619 526 715 500 q 463 565 533 550 q 342 594 393 579 q 264 631 292 608 q 236 694 236 654 q 305 787 236 754 q 510 819 374 819 q 697 777 635 819 q 760 663 760 735 l 760 644 l 954 644 l 954 694 q 895 844 954 779 q 737 948 836 910 q 515 986 638 986 q 253 945 358 986 q 94 838 147 904 q 42 694 42 771 q 62 603 42 642 q 112 539 82 565 q 174 497 142 513 q 231 474 206 482 q 448 414 350 436 q 615 373 546 392 q 722 331 685 354 q 760 268 760 307 q 693 185 760 204 q 515 167 626 167 q 391 178 446 167 q 305 224 336 190 q 274 324 274 258 l 274 340 l 79 340 l 79 296 q 138 117 79 186 q 297 17 197 49 q 515 -14 396 -14 m 506 0 q 518 -58 506 -37 q 544 -90 531 -78 q 563 -122 558 -103 q 555 -164 568 -146 q 517 -182 542 -182 q 470 -158 486 -182 q 468 -87 454 -135 l 425 -82 q 421 -153 413 -118 q 454 -210 429 -187 q 517 -232 479 -232 q 586 -201 561 -232 q 611 -139 611 -171 q 602 -94 611 -111 q 581 -65 593 -78 q 559 -38 568 -53 q 550 0 550 -24 l 506 0 "},"ș":{"ha":996,"x_min":42,"x_max":954,"o":"m 515 -14 q 738 16 639 -14 q 896 101 838 46 q 954 235 954 157 q 910 378 954 324 q 791 466 867 432 q 619 526 715 500 q 463 565 533 550 q 342 594 393 579 q 264 631 292 608 q 236 694 236 654 q 305 787 236 754 q 510 819 374 819 q 697 777 635 819 q 760 663 760 735 l 760 644 l 954 644 l 954 694 q 895 844 954 779 q 737 948 836 910 q 515 986 638 986 q 253 945 358 986 q 94 838 147 904 q 42 694 42 771 q 62 603 42 642 q 112 539 82 565 q 174 497 142 513 q 231 474 206 482 q 448 414 350 436 q 615 373 546 392 q 722 331 685 354 q 760 268 760 307 q 693 185 760 204 q 515 167 626 167 q 391 178 446 167 q 305 224 336 190 q 274 324 274 258 l 274 340 l 79 340 l 79 296 q 138 117 79 186 q 297 17 197 49 q 515 -14 396 -14 m 464 -236 l 506 -236 l 531 -78 l 531 -64 l 464 -64 l 464 -236 "},"ß":{"ha":944,"x_min":42,"x_max":903,"o":"m 617 -14 q 760 19 696 -14 q 864 111 825 51 q 903 251 903 171 q 865 399 903 346 q 765 474 828 453 l 765 496 q 873 593 843 536 q 903 721 903 650 q 864 853 903 797 q 760 941 825 910 q 615 972 696 972 l 285 972 q 162 938 217 972 q 74 848 107 904 q 42 721 42 792 l 42 -14 l 236 -14 l 236 690 q 263 763 236 735 q 331 792 290 792 l 578 792 q 658 764 624 792 q 693 685 693 736 q 658 605 693 633 q 575 576 624 576 l 403 576 l 403 382 l 611 382 q 680 351 651 382 q 708 281 708 321 q 680 208 708 238 q 611 179 651 179 l 403 179 l 403 -14 l 617 -14 "},"t":{"ha":556,"x_min":42,"x_max":514,"o":"m 174 0 l 382 0 l 382 792 l 514 792 l 514 972 l 42 972 l 42 792 l 174 792 l 174 0 "},"ť":{"ha":958,"x_min":42,"x_max":917,"o":"m 375 0 l 583 0 l 583 792 l 917 792 l 917 972 l 42 972 l 42 792 l 375 792 l 375 0 m 213 1225 l 183 1172 l 479 1024 l 775 1172 l 746 1225 l 493 1097 l 465 1097 l 213 1225 "},"ț":{"ha":958,"x_min":42,"x_max":917,"o":"m 375 0 l 583 0 l 583 792 l 917 792 l 917 972 l 42 972 l 42 792 l 375 792 l 375 0 m 446 -236 l 488 -236 l 513 -78 l 513 -64 l 446 -64 l 446 -236 "},"u":{"ha":569,"x_min":42,"x_max":528,"o":"m 221 -14 q 302 6 265 -14 q 349 49 339 25 l 363 49 l 363 0 l 528 0 l 528 972 l 319 972 l 319 215 q 310 190 319 201 q 285 179 300 179 q 259 190 269 179 q 249 215 249 201 l 249 972 l 42 972 l 42 229 q 59 106 42 161 q 116 19 76 51 q 221 -14 156 -14 "},"ú":{"ha":1056,"x_min":42,"x_max":1014,"o":"m 801 972 l 801 453 q 765 315 801 378 q 666 216 728 253 q 528 179 604 179 q 390 216 453 179 q 291 315 328 253 q 254 453 254 378 l 254 972 l 42 972 l 42 472 q 79 284 42 372 q 183 128 117 196 q 338 24 250 61 q 528 -14 426 -14 q 705 37 635 -14 q 808 151 775 88 l 829 151 l 829 0 l 1014 0 l 1014 972 l 801 972 m 276 1088 l 288 1028 l 779 1118 l 768 1178 l 276 1088 "},"ŭ":{"ha":1056,"x_min":42,"x_max":1014,"o":"m 801 972 l 801 453 q 765 315 801 378 q 666 216 728 253 q 528 179 604 179 q 390 216 453 179 q 291 315 328 253 q 254 453 254 378 l 254 972 l 42 972 l 42 472 q 79 284 42 372 q 183 128 117 196 q 338 24 250 61 q 528 -14 426 -14 q 705 37 635 -14 q 808 151 775 88 l 829 151 l 829 0 l 1014 0 l 1014 972 l 801 972 m 528 1014 q 661 1035 601 1014 q 756 1091 721 1056 q 792 1168 792 1126 l 721 1168 q 663 1099 715 1125 q 528 1072 611 1072 q 394 1099 447 1072 q 333 1168 340 1125 l 264 1168 q 299 1091 264 1126 q 395 1035 335 1056 q 528 1014 456 1014 "},"û":{"ha":1056,"x_min":42,"x_max":1014,"o":"m 801 972 l 801 453 q 765 315 801 378 q 666 216 728 253 q 528 179 604 179 q 390 216 453 179 q 291 315 328 253 q 254 453 254 378 l 254 972 l 42 972 l 42 472 q 79 284 42 372 q 183 128 117 196 q 338 24 250 61 q 528 -14 426 -14 q 705 37 635 -14 q 808 151 775 88 l 829 151 l 829 0 l 1014 0 l 1014 972 l 801 972 m 261 1028 l 514 1156 l 542 1156 l 794 1028 l 824 1081 l 528 1229 l 232 1081 l 261 1028 "},"ü":{"ha":1056,"x_min":42,"x_max":1014,"o":"m 801 972 l 801 453 q 765 315 801 378 q 666 216 728 253 q 528 179 604 179 q 390 216 453 179 q 291 315 328 253 q 254 453 254 378 l 254 972 l 42 972 l 42 472 q 79 284 42 372 q 183 128 117 196 q 338 24 250 61 q 528 -14 426 -14 q 705 37 635 -14 q 808 151 775 88 l 829 151 l 829 0 l 1014 0 l 1014 972 l 801 972 m 363 1174 l 363 1029 l 493 1029 l 493 1174 l 363 1174 m 568 1174 l 568 1029 l 699 1029 l 699 1174 l 568 1174 "},"ụ":{"ha":1056,"x_min":42,"x_max":1014,"o":"m 801 972 l 801 453 q 765 315 801 378 q 666 216 728 253 q 528 179 604 179 q 390 216 453 179 q 291 315 328 253 q 254 453 254 378 l 254 972 l 42 972 l 42 472 q 79 284 42 372 q 183 128 117 196 q 338 24 250 61 q 528 -14 426 -14 q 705 37 635 -14 q 808 151 775 88 l 829 151 l 829 0 l 1014 0 l 1014 972 l 801 972 m 417 -64 l 417 -190 l 639 -190 l 639 -64 l 417 -64 "},"ù":{"ha":1056,"x_min":42,"x_max":1014,"o":"m 801 972 l 801 453 q 765 315 801 378 q 666 216 728 253 q 528 179 604 179 q 390 216 453 179 q 291 315 328 253 q 254 453 254 378 l 254 972 l 42 972 l 42 472 q 79 284 42 372 q 183 128 117 196 q 338 24 250 61 q 528 -14 426 -14 q 705 37 635 -14 q 808 151 775 88 l 829 151 l 829 0 l 1014 0 l 1014 972 l 801 972 m 753 1088 l 261 1178 l 250 1118 l 742 1028 l 753 1088 "},"ủ":{"ha":1056,"x_min":42,"x_max":1014,"o":"m 801 972 l 801 453 q 765 315 801 378 q 666 216 728 253 q 528 179 604 179 q 390 216 453 179 q 291 315 328 253 q 254 453 254 378 l 254 972 l 42 972 l 42 472 q 79 284 42 372 q 183 128 117 196 q 338 24 250 61 q 528 -14 426 -14 q 705 37 635 -14 q 808 151 775 88 l 829 151 l 829 0 l 1014 0 l 1014 972 l 801 972 m 489 1028 l 565 1028 q 584 1059 565 1051 q 627 1073 603 1067 q 670 1095 651 1079 q 689 1150 689 1111 q 642 1229 689 1200 q 528 1258 596 1258 q 413 1229 460 1258 q 365 1150 365 1200 l 365 1136 l 435 1136 l 435 1147 q 467 1186 435 1176 q 528 1196 499 1196 q 588 1187 556 1196 q 619 1150 619 1178 q 600 1122 619 1129 q 554 1106 581 1114 q 508 1082 528 1099 q 489 1028 489 1065 "},"ư":{"ha":1082,"x_min":42,"x_max":1040,"o":"m 915 972 q 909 886 915 928 q 888 818 903 844 q 846 792 872 792 l 846 972 l 636 972 l 636 372 q 610 275 636 319 q 541 205 585 231 q 443 179 497 179 q 345 205 389 179 q 275 275 301 231 q 249 372 249 319 l 249 972 l 42 972 l 42 388 q 80 185 42 276 q 194 40 118 94 q 381 -14 269 -14 q 553 31 494 -14 q 642 151 611 76 l 663 151 l 663 0 l 846 0 l 846 682 q 950 711 911 682 q 1008 786 989 740 q 1034 882 1028 832 q 1040 972 1040 932 l 915 972 "},"ứ":{"ha":1082,"x_min":42,"x_max":1040,"o":"m 915 972 q 909 886 915 928 q 888 818 903 844 q 846 792 872 792 l 846 972 l 636 972 l 636 372 q 610 275 636 319 q 541 205 585 231 q 443 179 497 179 q 345 205 389 179 q 275 275 301 231 q 249 372 249 319 l 249 972 l 42 972 l 42 388 q 80 185 42 276 q 194 40 118 94 q 381 -14 269 -14 q 553 31 494 -14 q 642 151 611 76 l 663 151 l 663 0 l 846 0 l 846 682 q 950 711 911 682 q 1008 786 989 740 q 1034 882 1028 832 q 1040 972 1040 932 l 915 972 m 193 1088 l 204 1028 l 696 1118 l 685 1178 l 193 1088 "},"ự":{"ha":1082,"x_min":42,"x_max":1040,"o":"m 915 972 q 909 886 915 928 q 888 818 903 844 q 846 792 872 792 l 846 972 l 636 972 l 636 372 q 610 275 636 319 q 541 205 585 231 q 443 179 497 179 q 345 205 389 179 q 275 275 301 231 q 249 372 249 319 l 249 972 l 42 972 l 42 388 q 80 185 42 276 q 194 40 118 94 q 381 -14 269 -14 q 553 31 494 -14 q 642 151 611 76 l 663 151 l 663 0 l 846 0 l 846 682 q 950 711 911 682 q 1008 786 989 740 q 1034 882 1028 832 q 1040 972 1040 932 l 915 972 m 332 -64 l 332 -190 l 554 -190 l 554 -64 l 332 -64 "},"ừ":{"ha":1082,"x_min":42,"x_max":1040,"o":"m 915 972 q 909 886 915 928 q 888 818 903 844 q 846 792 872 792 l 846 972 l 636 972 l 636 372 q 610 275 636 319 q 541 205 585 231 q 443 179 497 179 q 345 205 389 179 q 275 275 301 231 q 249 372 249 319 l 249 972 l 42 972 l 42 388 q 80 185 42 276 q 194 40 118 94 q 381 -14 269 -14 q 553 31 494 -14 q 642 151 611 76 l 663 151 l 663 0 l 846 0 l 846 682 q 950 711 911 682 q 1008 786 989 740 q 1034 882 1028 832 q 1040 972 1040 932 l 915 972 m 694 1088 l 203 1178 l 192 1118 l 683 1028 l 694 1088 "},"ử":{"ha":1082,"x_min":42,"x_max":1040,"o":"m 915 972 q 909 886 915 928 q 888 818 903 844 q 846 792 872 792 l 846 972 l 636 972 l 636 372 q 610 275 636 319 q 541 205 585 231 q 443 179 497 179 q 345 205 389 179 q 275 275 301 231 q 249 372 249 319 l 249 972 l 42 972 l 42 388 q 80 185 42 276 q 194 40 118 94 q 381 -14 269 -14 q 553 31 494 -14 q 642 151 611 76 l 663 151 l 663 0 l 846 0 l 846 682 q 950 711 911 682 q 1008 786 989 740 q 1034 882 1028 832 q 1040 972 1040 932 l 915 972 m 406 1014 l 482 1014 q 501 1045 482 1038 q 544 1059 519 1053 q 587 1081 568 1065 q 606 1136 606 1097 q 559 1215 606 1186 q 444 1244 513 1244 q 329 1215 376 1244 q 282 1136 282 1186 l 282 1122 l 351 1122 l 351 1133 q 383 1172 351 1163 q 444 1182 415 1182 q 504 1173 472 1182 q 536 1136 536 1164 q 517 1108 536 1115 q 471 1092 497 1100 q 425 1068 444 1085 q 406 1014 406 1051 "},"ữ":{"ha":1082,"x_min":42,"x_max":1040,"o":"m 915 972 q 909 886 915 928 q 888 818 903 844 q 846 792 872 792 l 846 972 l 636 972 l 636 372 q 610 275 636 319 q 541 205 585 231 q 443 179 497 179 q 345 205 389 179 q 275 275 301 231 q 249 372 249 319 l 249 972 l 42 972 l 42 388 q 80 185 42 276 q 194 40 118 94 q 381 -14 269 -14 q 553 31 494 -14 q 642 151 611 76 l 663 151 l 663 0 l 846 0 l 846 682 q 950 711 911 682 q 1008 786 989 740 q 1034 882 1028 832 q 1040 972 1040 932 l 915 972 m 185 1039 l 249 1039 q 272 1102 251 1074 q 335 1133 292 1131 q 403 1115 371 1136 q 471 1069 435 1093 q 554 1039 507 1046 q 663 1063 624 1029 q 701 1174 701 1097 l 638 1174 q 631 1127 638 1149 q 604 1097 624 1106 q 546 1100 585 1088 q 481 1135 513 1113 q 412 1175 449 1157 q 326 1189 375 1193 q 241 1158 272 1185 q 197 1098 210 1132 q 185 1039 185 1064 "},"ű":{"ha":1056,"x_min":42,"x_max":1014,"o":"m 801 972 l 801 453 q 765 315 801 378 q 666 216 728 253 q 528 179 604 179 q 390 216 453 179 q 291 315 328 253 q 254 453 254 378 l 254 972 l 42 972 l 42 472 q 79 284 42 372 q 183 128 117 196 q 338 24 250 61 q 528 -14 426 -14 q 705 37 635 -14 q 808 151 775 88 l 829 151 l 829 0 l 1014 0 l 1014 972 l 801 972 m 369 1060 l 417 1028 l 601 1258 l 553 1290 l 369 1060 m 554 1060 l 601 1028 l 786 1258 l 738 1290 l 554 1060 "},"ū":{"ha":1056,"x_min":42,"x_max":1014,"o":"m 801 972 l 801 453 q 765 315 801 378 q 666 216 728 253 q 528 179 604 179 q 390 216 453 179 q 291 315 328 253 q 254 453 254 378 l 254 972 l 42 972 l 42 472 q 79 284 42 372 q 183 128 117 196 q 338 24 250 61 q 528 -14 426 -14 q 705 37 635 -14 q 808 151 775 88 l 829 151 l 829 0 l 1014 0 l 1014 972 l 801 972 m 246 1056 l 808 1056 l 808 1117 l 246 1117 l 246 1056 "},"ų":{"ha":1056,"x_min":42,"x_max":1025,"o":"m 801 972 l 801 453 q 765 315 801 378 q 666 216 728 253 q 528 179 604 179 q 390 216 453 179 q 291 315 328 253 q 254 453 254 378 l 254 972 l 42 972 l 42 472 q 79 284 42 372 q 183 128 117 196 q 338 24 250 61 q 528 -14 426 -14 q 705 37 635 -14 q 808 151 775 88 l 829 151 l 829 0 l 1014 0 l 1014 972 l 801 972 m 931 0 l 886 0 q 877 -38 886 -24 q 856 -65 868 -53 q 834 -94 843 -78 q 825 -139 825 -111 q 850 -201 825 -171 q 919 -232 875 -232 q 982 -210 957 -232 q 1016 -153 1007 -187 q 1011 -82 1025 -118 l 968 -87 q 967 -158 983 -135 q 919 -182 950 -182 q 881 -164 894 -182 q 874 -122 868 -146 q 892 -90 878 -103 q 918 -58 906 -78 q 931 0 931 -37 "},"ů":{"ha":1056,"x_min":42,"x_max":1014,"o":"m 801 972 l 801 453 q 765 315 801 378 q 666 216 728 253 q 528 179 604 179 q 390 216 453 179 q 291 315 328 253 q 254 453 254 378 l 254 972 l 42 972 l 42 472 q 79 284 42 372 q 183 128 117 196 q 338 24 250 61 q 528 -14 426 -14 q 705 37 635 -14 q 808 151 775 88 l 829 151 l 829 0 l 1014 0 l 1014 972 l 801 972 m 528 1028 q 610 1062 576 1028 q 643 1143 643 1096 q 610 1225 643 1192 q 528 1258 576 1258 q 447 1225 481 1258 q 413 1143 413 1192 q 447 1062 413 1096 q 528 1028 481 1028 m 526 1076 q 480 1095 499 1076 q 461 1142 461 1114 q 480 1191 461 1172 q 526 1210 499 1210 q 576 1191 557 1210 q 594 1142 594 1172 q 576 1095 594 1114 q 526 1076 557 1076 "},"ũ":{"ha":1056,"x_min":42,"x_max":1014,"o":"m 801 972 l 801 453 q 765 315 801 378 q 666 216 728 253 q 528 179 604 179 q 390 216 453 179 q 291 315 328 253 q 254 453 254 378 l 254 972 l 42 972 l 42 472 q 79 284 42 372 q 183 128 117 196 q 338 24 250 61 q 528 -14 426 -14 q 705 37 635 -14 q 808 151 775 88 l 829 151 l 829 0 l 1014 0 l 1014 972 l 801 972 m 269 1056 l 333 1056 q 356 1119 336 1090 q 419 1150 376 1147 q 488 1131 456 1153 q 556 1086 519 1110 q 639 1056 592 1063 q 747 1080 708 1046 q 786 1190 786 1114 l 722 1190 q 715 1144 722 1165 q 689 1113 708 1122 q 631 1117 669 1104 q 565 1151 597 1129 q 497 1192 533 1174 q 411 1206 460 1210 q 326 1175 357 1201 q 282 1115 294 1149 q 269 1056 269 1081 "},"v":{"ha":571,"x_min":42,"x_max":528,"o":"m 167 0 l 403 0 l 528 951 l 528 972 l 319 972 l 293 278 l 275 278 l 249 972 l 42 972 l 42 951 l 167 0 "},"w":{"ha":776,"x_min":42,"x_max":735,"o":"m 229 -14 q 287 -6 256 -14 q 344 19 318 3 q 381 61 369 36 l 394 61 q 431 19 404 36 q 490 -6 458 3 q 546 -14 522 -14 q 643 11 600 -14 q 710 77 686 36 q 735 168 735 118 l 735 972 l 531 972 l 531 201 q 508 179 531 179 q 488 201 488 179 l 488 972 l 288 972 l 288 201 q 265 179 288 179 q 244 201 244 179 l 244 972 l 42 972 l 42 168 q 68 77 42 118 q 137 11 94 36 q 229 -14 179 -14 "},"ẃ":{"ha":1056,"x_min":42,"x_max":1014,"o":"m 301 -14 q 426 15 364 -14 q 515 106 489 44 l 539 106 q 588 38 554 65 q 664 -1 622 11 q 744 -14 706 -14 q 892 26 832 -14 q 983 131 951 65 q 1014 276 1014 197 l 1014 972 l 807 972 l 807 269 q 782 206 807 232 q 719 179 757 179 q 660 206 685 179 q 636 269 636 232 l 636 972 l 415 972 l 415 267 q 391 205 415 231 q 331 179 367 179 q 275 205 300 179 q 250 267 250 231 l 250 972 l 42 972 l 42 276 q 74 131 42 197 q 164 26 106 65 q 301 -14 222 -14 m 276 1115 l 288 1056 l 779 1146 l 768 1206 l 276 1115 "},"ŵ":{"ha":1056,"x_min":42,"x_max":1014,"o":"m 301 -14 q 426 15 364 -14 q 515 106 489 44 l 539 106 q 588 38 554 65 q 664 -1 622 11 q 744 -14 706 -14 q 892 26 832 -14 q 983 131 951 65 q 1014 276 1014 197 l 1014 972 l 807 972 l 807 269 q 782 206 807 232 q 719 179 757 179 q 660 206 685 179 q 636 269 636 232 l 636 972 l 415 972 l 415 267 q 391 205 415 231 q 331 179 367 179 q 275 205 300 179 q 250 267 250 231 l 250 972 l 42 972 l 42 276 q 74 131 42 197 q 164 26 106 65 q 301 -14 222 -14 m 261 1028 l 514 1156 l 542 1156 l 794 1028 l 824 1081 l 528 1229 l 232 1081 l 261 1028 "},"ẅ":{"ha":1056,"x_min":42,"x_max":1014,"o":"m 301 -14 q 426 15 364 -14 q 515 106 489 44 l 539 106 q 588 38 554 65 q 664 -1 622 11 q 744 -14 706 -14 q 892 26 832 -14 q 983 131 951 65 q 1014 276 1014 197 l 1014 972 l 807 972 l 807 269 q 782 206 807 232 q 719 179 757 179 q 660 206 685 179 q 636 269 636 232 l 636 972 l 415 972 l 415 267 q 391 205 415 231 q 331 179 367 179 q 275 205 300 179 q 250 267 250 231 l 250 972 l 42 972 l 42 276 q 74 131 42 197 q 164 26 106 65 q 301 -14 222 -14 m 363 1201 l 363 1057 l 493 1057 l 493 1201 l 363 1201 m 568 1201 l 568 1057 l 699 1057 l 699 1201 l 568 1201 "},"ẁ":{"ha":1056,"x_min":42,"x_max":1014,"o":"m 301 -14 q 426 15 364 -14 q 515 106 489 44 l 539 106 q 588 38 554 65 q 664 -1 622 11 q 744 -14 706 -14 q 892 26 832 -14 q 983 131 951 65 q 1014 276 1014 197 l 1014 972 l 807 972 l 807 269 q 782 206 807 232 q 719 179 757 179 q 660 206 685 179 q 636 269 636 232 l 636 972 l 415 972 l 415 267 q 391 205 415 231 q 331 179 367 179 q 275 205 300 179 q 250 267 250 231 l 250 972 l 42 972 l 42 276 q 74 131 42 197 q 164 26 106 65 q 301 -14 222 -14 m 779 1115 l 288 1206 l 276 1146 l 768 1056 l 779 1115 "},"x":{"ha":569,"x_min":42,"x_max":528,"o":"m 42 0 l 249 0 l 276 313 l 294 313 l 322 0 l 528 0 l 528 21 l 396 486 l 528 951 l 528 972 l 324 972 l 294 660 l 276 660 l 247 972 l 42 972 l 42 951 l 175 486 l 42 21 l 42 0 "},"y":{"ha":571,"x_min":42,"x_max":528,"o":"m 182 0 l 389 0 l 389 432 l 528 951 l 528 972 l 322 972 l 294 611 l 276 611 l 249 972 l 42 972 l 42 951 l 182 432 l 182 0 "},"ý":{"ha":1056,"x_min":42,"x_max":1014,"o":"m 779 972 l 538 611 l 518 611 l 278 972 l 42 972 l 42 951 l 424 432 l 424 0 l 632 0 l 632 432 l 1014 951 l 1014 972 l 779 972 m 276 1088 l 288 1028 l 779 1118 l 768 1178 l 276 1088 "},"ŷ":{"ha":1056,"x_min":42,"x_max":1014,"o":"m 779 972 l 538 611 l 518 611 l 278 972 l 42 972 l 42 951 l 424 432 l 424 0 l 632 0 l 632 432 l 1014 951 l 1014 972 l 779 972 m 261 1028 l 514 1156 l 542 1156 l 794 1028 l 824 1081 l 528 1229 l 232 1081 l 261 1028 "},"ÿ":{"ha":1056,"x_min":42,"x_max":1014,"o":"m 779 972 l 538 611 l 518 611 l 278 972 l 42 972 l 42 951 l 424 432 l 424 0 l 632 0 l 632 432 l 1014 951 l 1014 972 l 779 972 m 363 1201 l 363 1057 l 493 1057 l 493 1201 l 363 1201 m 568 1201 l 568 1057 l 699 1057 l 699 1201 l 568 1201 "},"ỵ":{"ha":1056,"x_min":42,"x_max":1014,"o":"m 779 972 l 538 611 l 518 611 l 278 972 l 42 972 l 42 951 l 424 432 l 424 0 l 632 0 l 632 432 l 1014 951 l 1014 972 l 779 972 m 417 -64 l 417 -190 l 639 -190 l 639 -64 l 417 -64 "},"ỳ":{"ha":1056,"x_min":42,"x_max":1014,"o":"m 779 972 l 538 611 l 518 611 l 278 972 l 42 972 l 42 951 l 424 432 l 424 0 l 632 0 l 632 432 l 1014 951 l 1014 972 l 779 972 m 779 1088 l 288 1178 l 276 1118 l 768 1028 l 779 1088 "},"ỷ":{"ha":1056,"x_min":42,"x_max":1014,"o":"m 779 972 l 538 611 l 518 611 l 278 972 l 42 972 l 42 951 l 424 432 l 424 0 l 632 0 l 632 432 l 1014 951 l 1014 972 l 779 972 m 489 1028 l 565 1028 q 584 1059 565 1051 q 627 1073 603 1067 q 670 1095 651 1079 q 689 1150 689 1111 q 642 1229 689 1200 q 528 1258 596 1258 q 413 1229 460 1258 q 365 1150 365 1200 l 365 1136 l 435 1136 l 435 1147 q 467 1186 435 1176 q 528 1196 499 1196 q 588 1187 556 1196 q 619 1150 619 1178 q 600 1122 619 1129 q 554 1106 581 1114 q 508 1082 528 1099 q 489 1028 489 1065 "},"ỹ":{"ha":1056,"x_min":42,"x_max":1014,"o":"m 779 972 l 538 611 l 518 611 l 278 972 l 42 972 l 42 951 l 424 432 l 424 0 l 632 0 l 632 432 l 1014 951 l 1014 972 l 779 972 m 269 1056 l 333 1056 q 356 1119 336 1090 q 419 1150 376 1147 q 488 1131 456 1153 q 556 1086 519 1110 q 639 1056 592 1063 q 747 1080 708 1046 q 786 1190 786 1114 l 722 1190 q 715 1144 722 1165 q 689 1113 708 1122 q 631 1117 669 1104 q 565 1151 597 1129 q 497 1192 533 1174 q 411 1206 460 1210 q 326 1175 357 1201 q 282 1115 294 1149 q 269 1056 269 1081 "},"z":{"ha":503,"x_min":42,"x_max":458,"o":"m 42 0 l 458 0 l 458 179 l 250 179 l 250 207 l 458 792 l 458 972 l 42 972 l 42 792 l 250 792 l 250 764 l 42 186 l 42 0 "},"ź":{"ha":958,"x_min":42,"x_max":917,"o":"m 42 0 l 917 0 l 917 179 l 306 179 l 306 200 l 917 792 l 917 972 l 42 972 l 42 792 l 653 792 l 653 771 l 42 186 l 42 0 m 228 1115 l 239 1056 l 731 1146 l 719 1206 l 228 1115 "},"ž":{"ha":958,"x_min":42,"x_max":917,"o":"m 42 0 l 917 0 l 917 179 l 306 179 l 306 200 l 917 792 l 917 972 l 42 972 l 42 792 l 653 792 l 653 771 l 42 186 l 42 0 m 213 1225 l 183 1172 l 479 1024 l 775 1172 l 746 1225 l 493 1097 l 465 1097 l 213 1225 "},"ż":{"ha":958,"x_min":42,"x_max":917,"o":"m 42 0 l 917 0 l 917 179 l 306 179 l 306 200 l 917 792 l 917 972 l 42 972 l 42 792 l 653 792 l 653 771 l 42 186 l 42 0 m 417 1201 l 417 1057 l 547 1057 l 547 1201 l 417 1201 "},"ª":{"ha":326,"x_min":42,"x_max":285,"o":"m 151 486 q 181 494 165 486 q 206 518 197 501 l 213 518 l 213 493 l 285 493 l 285 865 q 268 926 285 899 q 224 969 251 953 q 164 986 197 986 q 102 969 129 986 q 58 926 75 953 q 42 865 42 899 l 42 815 l 146 815 l 146 886 q 151 899 146 893 q 164 904 156 904 q 176 899 171 904 q 182 886 182 893 l 182 797 l 164 797 q 102 781 129 797 q 58 737 75 764 q 42 676 42 710 l 42 608 q 55 547 42 574 q 92 503 68 519 q 151 486 117 486 m 164 583 q 151 588 156 583 q 146 601 146 593 l 146 682 q 151 695 146 690 q 164 700 156 700 l 182 700 l 182 601 q 176 588 182 593 q 164 583 171 583 "},"º":{"ha":326,"x_min":42,"x_max":285,"o":"m 164 486 q 224 503 197 486 q 268 547 251 519 q 285 608 285 574 l 285 865 q 268 926 285 899 q 224 969 251 953 q 164 986 197 986 q 102 969 129 986 q 58 926 75 953 q 42 865 42 899 l 42 608 q 58 547 42 574 q 102 503 75 519 q 164 486 129 486 m 164 578 q 151 583 156 578 q 146 596 146 588 l 146 878 q 151 890 146 885 q 164 896 156 896 q 176 890 171 896 q 181 878 181 885 l 181 596 q 176 583 181 588 q 164 578 171 578 "},"⁄":{"ha":361,"x_min":42,"x_max":319,"o":"m 42 -64 l 76 -64 l 319 1008 l 319 1029 l 285 1029 l 42 -43 l 42 -64 "}," ":{"ha":278,"x_min":0,"x_max":0,"o":""}," ":{"ha":278,"x_min":0,"x_max":0,"o":""},".":{"ha":340,"x_min":69,"x_max":271,"o":"m 69 208 l 69 -14 l 271 -14 l 271 208 l 69 208 "},",":{"ha":250,"x_min":69,"x_max":181,"o":"m 69 -197 l 125 -197 l 181 53 l 181 179 l 69 179 l 69 -197 "},":":{"ha":333,"x_min":111,"x_max":222,"o":"m 111 740 l 111 532 l 222 532 l 222 740 l 111 740 m 111 403 l 111 194 l 222 194 l 222 403 l 111 403 "},";":{"ha":278,"x_min":83,"x_max":194,"o":"m 83 740 l 83 532 l 194 532 l 194 740 l 83 740 m 83 26 l 139 26 l 194 276 l 194 403 l 83 403 l 83 26 "},"…":{"ha":1000,"x_min":69,"x_max":938,"o":"m 736 208 l 736 -14 l 938 -14 l 938 208 l 736 208 m 403 208 l 403 -14 l 604 -14 l 604 208 l 403 208 m 69 208 l 69 -14 l 271 -14 l 271 208 l 69 208 "},"!":{"ha":292,"x_min":42,"x_max":250,"o":"m 83 264 l 208 264 l 250 972 l 42 972 l 83 264 m 69 0 l 222 0 l 222 179 l 69 179 l 69 0 "},"¡":{"ha":292,"x_min":42,"x_max":250,"o":"m 83 528 l 42 -181 l 250 -181 l 208 528 l 83 528 m 69 792 l 69 613 l 222 613 l 222 792 l 69 792 "},"?":{"ha":569,"x_min":42,"x_max":528,"o":"m 197 264 l 339 264 q 358 399 339 346 q 405 491 376 453 q 462 562 433 529 q 509 633 490 594 q 528 729 528 672 q 495 852 528 797 q 408 940 463 907 q 285 972 353 972 q 163 940 218 972 q 75 852 108 907 q 42 729 42 797 l 42 600 l 231 600 l 231 736 q 247 776 231 760 q 285 792 263 792 q 324 776 308 792 q 340 736 339 760 q 329 674 343 701 q 293 617 315 647 q 249 542 271 586 q 213 432 228 499 q 197 264 197 365 m 192 0 l 344 0 l 344 179 l 192 179 l 192 0 "},"¿":{"ha":569,"x_min":42,"x_max":528,"o":"m 372 528 l 231 528 q 212 393 231 447 q 165 301 193 339 q 108 230 136 263 q 60 158 79 197 q 42 63 42 119 q 74 -60 42 -4 q 163 -148 107 -115 q 285 -181 218 -181 q 407 -148 351 -181 q 495 -60 463 -115 q 528 63 528 -4 l 528 192 l 339 192 l 339 56 q 323 17 339 33 q 285 0 307 0 q 247 17 263 0 q 229 56 231 33 q 241 117 228 90 q 276 175 254 144 q 320 249 299 206 q 357 360 342 293 q 372 528 372 426 m 378 792 l 225 792 l 225 613 l 378 613 l 378 792 "},"·":{"ha":333,"x_min":69,"x_max":271,"o":"m 69 626 l 69 404 l 271 404 l 271 626 l 69 626 "},"•":{"ha":583,"x_min":97,"x_max":500,"o":"m 97 765 l 97 321 l 500 321 l 500 765 l 97 765 "},"*":{"ha":586,"x_min":42,"x_max":544,"o":"m 272 417 l 314 417 l 314 658 l 524 538 l 544 574 l 335 694 l 543 815 l 522 851 l 314 731 l 314 972 l 272 972 l 272 731 l 64 851 l 43 815 l 251 694 l 42 574 l 63 538 l 272 658 l 272 417 "},"#":{"ha":783,"x_min":42,"x_max":742,"o":"m 246 0 l 288 0 l 288 317 l 496 317 l 496 0 l 538 0 l 538 317 l 742 317 l 742 358 l 538 358 l 538 614 l 742 614 l 742 656 l 538 656 l 538 972 l 496 972 l 496 656 l 288 656 l 288 972 l 246 972 l 246 656 l 42 656 l 42 614 l 246 614 l 246 358 l 42 358 l 42 317 l 246 317 l 246 0 m 288 358 l 288 614 l 496 614 l 496 358 l 288 358 "},"/":{"ha":361,"x_min":42,"x_max":319,"o":"m 42 -64 l 76 -64 l 319 1008 l 319 1029 l 285 1029 l 42 -43 l 42 -64 "},"\\":{"ha":361,"x_min":42,"x_max":319,"o":"m 319 -64 l 319 -43 l 76 1029 l 42 1029 l 42 1008 l 285 -64 l 319 -64 "},"-":{"ha":504,"x_min":69,"x_max":435,"o":"m 69 451 l 435 451 l 435 521 l 69 521 l 69 451 "},"–":{"ha":625,"x_min":69,"x_max":556,"o":"m 69 451 l 556 451 l 556 521 l 69 521 l 69 451 "},"—":{"ha":1111,"x_min":69,"x_max":1042,"o":"m 69 451 l 1042 451 l 1042 521 l 69 521 l 69 451 "},"_":{"ha":569,"x_min":69,"x_max":556,"o":"m 69 -83 l 556 -83 l 556 -14 l 69 -14 l 69 -83 "},"(":{"ha":383,"x_min":42,"x_max":342,"o":"m 322 -64 l 342 -21 q 272 24 315 -11 q 185 122 229 60 q 113 274 142 183 q 83 483 83 364 q 111 689 83 601 q 181 837 139 776 q 266 933 222 897 q 342 986 310 969 l 322 1029 q 290 1009 319 1028 q 219 951 260 990 q 137 848 178 911 q 69 694 96 785 q 42 483 42 604 q 69 272 42 363 q 137 119 96 182 q 219 16 178 56 q 290 -43 260 -24 q 322 -64 319 -62 "},")":{"ha":383,"x_min":42,"x_max":342,"o":"m 61 -64 q 94 -43 64 -62 q 165 16 124 -24 q 247 119 206 56 q 315 272 288 182 q 342 483 342 363 q 315 694 342 604 q 247 848 288 785 q 165 951 206 911 q 94 1009 124 990 q 61 1029 64 1028 l 42 986 q 117 933 74 969 q 203 837 161 897 q 272 689 244 776 q 300 483 300 601 q 271 274 300 364 q 198 122 242 183 q 112 24 154 60 q 42 -21 69 -11 l 61 -64 "},"{":{"ha":449,"x_min":42,"x_max":407,"o":"m 407 -75 l 406 -25 q 342 -15 376 -25 q 276 17 308 -6 q 224 80 244 40 q 204 179 204 119 l 204 263 q 196 358 204 319 q 164 424 188 396 q 96 475 140 451 l 96 496 q 183 567 163 529 q 204 674 204 606 l 204 792 q 239 908 204 861 q 321 977 274 954 q 406 1000 368 1000 l 406 1042 q 284 1008 339 1042 q 196 918 229 975 q 163 792 163 861 l 163 674 q 144 585 163 615 q 99 540 126 556 q 42 507 72 524 l 42 465 q 103 420 75 444 q 147 359 131 396 q 163 263 163 322 l 163 181 q 196 44 163 101 q 285 -44 229 -14 q 407 -75 340 -75 "},"}":{"ha":449,"x_min":42,"x_max":407,"o":"m 42 -75 q 164 -44 108 -75 q 253 44 219 -14 q 286 181 286 101 l 286 263 q 303 359 286 322 q 347 420 319 396 q 407 465 374 444 l 407 507 q 350 540 378 524 q 304 585 322 556 q 286 674 286 615 l 286 792 q 253 918 286 861 q 165 1008 221 975 q 43 1042 110 1042 l 43 1000 q 128 977 82 1000 q 210 908 175 954 q 244 792 244 861 l 244 674 q 265 567 244 606 q 353 496 286 529 l 353 475 q 285 424 308 451 q 253 358 261 396 q 244 263 244 319 l 244 179 q 224 80 244 119 q 172 17 204 40 q 106 -15 140 -6 q 43 -25 72 -25 l 42 -75 "},"[":{"ha":289,"x_min":42,"x_max":219,"o":"m 42 -56 l 219 -56 l 219 -14 l 83 -14 l 83 986 l 219 986 l 219 1028 l 42 1028 l 42 -56 "},"]":{"ha":289,"x_min":69,"x_max":247,"o":"m 247 -56 l 247 1028 l 69 1028 l 69 986 l 206 986 l 206 -14 l 69 -14 l 69 -56 l 247 -56 "},"‚":{"ha":276,"x_min":69,"x_max":181,"o":"m 69 -197 l 125 -197 l 181 53 l 181 179 l 69 179 l 69 -197 "},"„":{"ha":417,"x_min":69,"x_max":347,"o":"m 69 -197 l 125 -197 l 181 53 l 181 179 l 69 179 l 69 -197 m 236 -197 l 292 -197 l 347 53 l 347 179 l 236 179 l 236 -197 "},"“":{"ha":417,"x_min":69,"x_max":347,"o":"m 347 1168 l 292 1168 l 236 918 l 236 792 l 347 792 l 347 1168 m 181 1168 l 125 1168 l 69 918 l 69 792 l 181 792 l 181 1168 "},"”":{"ha":417,"x_min":69,"x_max":347,"o":"m 69 693 l 125 693 l 181 943 l 181 1069 l 69 1069 l 69 693 m 236 693 l 292 693 l 347 943 l 347 1069 l 236 1069 l 236 693 "},"‘":{"ha":250,"x_min":69,"x_max":181,"o":"m 181 1168 l 125 1168 l 69 918 l 69 792 l 181 792 l 181 1168 "},"’":{"ha":250,"x_min":69,"x_max":181,"o":"m 69 693 l 125 693 l 181 943 l 181 1069 l 69 1069 l 69 693 "},"«":{"ha":561,"x_min":42,"x_max":519,"o":"m 394 674 l 372 694 l 42 428 l 372 160 l 393 182 l 94 422 l 94 433 l 394 674 m 519 674 l 497 694 l 167 428 l 497 160 l 518 182 l 219 422 l 219 433 l 519 674 "},"»":{"ha":561,"x_min":42,"x_max":519,"o":"m 167 674 l 467 433 l 467 422 l 168 182 l 189 160 l 519 428 l 189 694 l 167 674 m 42 674 l 342 433 l 342 422 l 43 182 l 64 160 l 394 428 l 64 694 l 42 674 "},"‹":{"ha":436,"x_min":42,"x_max":394,"o":"m 394 674 l 372 694 l 42 428 l 372 160 l 393 182 l 94 422 l 94 433 l 394 674 "},"›":{"ha":436,"x_min":42,"x_max":394,"o":"m 42 674 l 342 433 l 342 422 l 43 182 l 64 160 l 394 428 l 64 694 l 42 674 "},"\"":{"ha":264,"x_min":42,"x_max":222,"o":"m 167 743 l 208 743 l 222 1000 l 222 1028 l 153 1028 l 153 1000 l 167 743 m 56 743 l 97 743 l 111 1000 l 111 1028 l 42 1028 l 42 1000 l 56 743 "},"'":{"ha":153,"x_min":42,"x_max":111,"o":"m 56 743 l 99 743 l 111 1000 l 111 1028 l 42 1028 l 42 1000 l 56 743 "},"☺":{"ha":975,"x_min":42,"x_max":933,"o":"m 488 986 q 249 920 349 986 q 95 741 149 854 q 42 486 42 628 q 95 231 42 344 q 249 52 149 118 q 488 -14 349 -14 q 726 52 626 -14 q 879 231 825 118 q 933 486 933 344 q 879 741 933 628 q 726 920 825 854 q 488 986 626 986 m 892 483 q 845 251 892 353 q 709 90 799 149 q 490 31 619 31 q 269 88 360 31 q 131 248 178 146 q 83 483 83 350 q 131 720 83 617 q 269 883 178 824 q 490 942 360 942 q 709 882 619 942 q 845 719 799 822 q 892 483 892 615 m 221 643 l 221 488 l 363 488 l 363 643 l 221 643 m 585 643 l 585 488 l 726 488 l 726 643 l 585 643 m 488 204 q 591 249 549 204 q 633 358 633 294 l 594 358 q 562 289 590 315 q 488 263 533 263 q 413 289 443 263 q 379 358 383 315 l 340 358 q 383 249 340 294 q 488 204 426 204 "},"@":{"ha":692,"x_min":42,"x_max":650,"o":"m 346 0 l 597 0 l 597 179 l 351 179 q 237 224 276 179 q 197 333 197 269 l 197 640 q 242 752 197 704 q 351 806 288 800 q 451 790 411 811 q 518 715 490 768 l 508 704 q 378 714 431 733 q 299 647 325 694 q 272 547 272 600 l 272 421 q 298 326 272 369 q 367 258 324 283 q 461 232 410 232 q 556 258 514 232 q 624 326 599 283 q 650 421 650 369 l 650 692 q 609 842 650 776 q 499 947 568 908 q 346 986 431 986 q 193 945 263 986 q 83 835 124 904 q 42 682 42 767 l 42 304 q 83 151 42 221 q 193 41 124 82 q 346 0 263 0 m 461 399 q 426 413 440 399 q 413 447 413 426 l 413 544 q 426 580 413 565 q 461 594 440 594 q 494 580 481 594 q 508 544 508 565 l 508 447 q 494 413 508 426 q 461 399 481 399 "},"&":{"ha":707,"x_min":42,"x_max":665,"o":"m 292 -14 q 410 17 365 -14 q 464 88 456 49 l 492 88 q 547 19 500 53 q 665 -14 593 -14 l 665 167 q 577 203 614 167 q 540 292 540 240 l 540 486 l 625 457 l 625 638 l 222 722 l 222 750 l 625 806 l 625 986 l 42 851 l 42 643 l 153 590 l 153 563 q 105 538 131 556 q 60 488 79 521 q 42 401 42 456 l 42 236 q 75 111 42 168 q 165 20 108 54 q 292 -14 222 -14 m 292 167 q 243 187 264 167 q 222 236 222 207 l 222 419 q 242 467 222 447 q 292 486 263 486 l 360 486 l 360 236 q 340 187 360 207 q 292 167 319 167 "},"¶":{"ha":510,"x_min":42,"x_max":468,"o":"m 315 0 l 357 0 l 357 972 l 315 972 q 178 935 240 972 q 78 837 115 899 q 42 699 42 775 q 78 561 42 624 q 178 462 115 499 q 315 425 240 425 l 315 0 m 426 0 l 468 0 l 468 972 l 426 972 l 426 0 "},"§":{"ha":521,"x_min":42,"x_max":479,"o":"m 261 -61 q 372 -32 322 -61 q 450 47 421 -3 q 479 157 479 97 q 458 253 479 206 q 394 331 438 300 l 394 358 q 463 426 447 389 q 479 485 479 463 q 422 596 479 561 q 261 639 365 631 q 175 666 215 643 q 110 727 135 689 q 85 814 85 765 q 109 901 85 863 q 174 964 133 940 q 261 988 214 988 q 348 964 308 988 q 412 901 388 940 q 436 814 436 863 l 479 814 q 450 924 479 875 q 372 1003 421 974 q 261 1032 322 1032 q 151 1003 201 1032 q 72 924 101 974 q 42 814 42 875 q 63 720 42 764 q 128 646 85 676 l 128 618 q 65 570 89 599 q 42 485 42 542 q 92 385 42 426 q 236 335 143 344 q 394 277 350 324 q 439 157 439 231 q 415 68 439 108 q 350 3 390 28 q 261 -21 310 -21 q 172 3 213 -21 q 108 68 132 28 q 83 157 83 108 l 42 157 q 72 47 42 97 q 151 -32 101 -3 q 261 -61 201 -61 m 261 378 q 137 406 189 378 q 85 489 85 433 q 98 544 85 519 q 149 584 111 569 q 261 599 188 599 q 391 566 346 599 q 436 489 436 533 q 412 422 436 446 q 347 388 388 397 q 261 378 307 378 "},"©":{"ha":975,"x_min":42,"x_max":933,"o":"m 488 -14 q 726 52 626 -14 q 879 231 825 118 q 933 486 933 344 q 879 741 933 628 q 726 920 825 854 q 488 986 626 986 q 249 920 349 986 q 95 741 149 854 q 42 486 42 628 q 95 231 42 344 q 249 52 149 118 q 488 -14 349 -14 m 490 31 q 269 88 360 31 q 131 248 178 146 q 83 483 83 350 q 131 720 83 617 q 269 883 178 824 q 490 942 360 942 q 709 882 619 942 q 845 719 799 822 q 892 483 892 615 q 845 251 892 353 q 709 90 799 149 q 490 31 619 31 m 488 75 q 653 119 578 75 q 772 239 728 164 q 817 404 817 314 l 817 440 l 588 440 l 588 438 q 558 367 588 394 q 488 340 528 340 q 418 367 449 340 q 388 438 388 394 l 388 535 q 418 605 388 578 q 488 632 449 632 q 558 605 528 632 q 588 535 588 578 l 588 532 l 817 532 l 817 568 q 772 733 817 658 q 653 853 728 808 q 488 897 578 897 q 322 853 396 897 q 203 733 247 808 q 158 568 158 658 l 158 404 q 203 239 158 314 q 322 119 247 164 q 488 75 396 75 "},"®":{"ha":708,"x_min":42,"x_max":667,"o":"m 354 286 q 517 334 447 286 q 627 462 588 382 q 667 636 667 542 q 627 810 667 731 q 517 938 588 890 q 354 986 447 986 q 191 938 261 986 q 81 810 121 890 q 42 636 42 731 q 81 462 42 542 q 191 334 121 382 q 354 286 261 286 m 214 369 q 117 478 151 408 q 83 635 83 547 q 116 790 83 721 q 210 900 149 860 q 356 940 271 940 q 500 899 440 940 q 592 789 560 858 q 625 635 625 719 q 599 494 625 558 q 522 389 572 429 q 516 470 522 429 q 497 542 510 511 q 464 586 483 574 l 464 600 q 508 636 493 611 q 522 694 522 661 l 522 744 q 481 844 522 803 q 382 886 439 886 l 214 886 l 214 369 m 356 663 l 356 769 l 360 769 q 376 764 368 769 q 383 738 383 758 l 383 694 q 376 667 383 672 q 360 663 368 663 l 356 663 m 353 332 l 353 524 l 367 524 q 381 483 378 500 q 384 444 385 465 q 383 386 383 422 l 383 333 q 369 332 376 332 q 356 332 363 332 l 353 332 "},"™":{"ha":681,"x_min":42,"x_max":639,"o":"m 329 543 l 371 543 l 371 994 l 378 994 l 439 543 l 529 543 l 590 994 l 597 994 l 597 543 l 639 543 l 639 1029 l 553 1029 l 488 583 l 481 583 l 415 1029 l 329 1029 l 329 543 m 140 543 l 181 543 l 181 994 l 278 994 l 278 1029 l 42 1029 l 42 994 l 140 994 l 140 543 "},"°":{"ha":438,"x_min":42,"x_max":396,"o":"m 218 632 q 308 656 268 632 q 372 719 349 679 q 396 808 396 760 q 372 899 396 858 q 308 963 349 939 q 218 986 268 986 q 129 963 169 986 q 65 899 89 939 q 42 808 42 858 q 65 719 42 760 q 129 656 89 679 q 218 632 169 632 m 217 675 q 123 713 161 675 q 85 807 85 751 q 123 904 85 865 q 217 943 161 943 q 314 904 275 943 q 353 807 353 865 q 314 713 353 751 q 217 675 275 675 "},"|":{"ha":125,"x_min":42,"x_max":83,"o":"m 42 -69 l 83 -69 l 83 1042 l 42 1042 l 42 -69 "},"¦":{"ha":125,"x_min":42,"x_max":83,"o":"m 42 607 l 83 607 l 83 1038 l 42 1038 l 42 607 m 42 -69 l 83 -69 l 83 361 l 42 361 l 42 -69 "},"†":{"ha":569,"x_min":42,"x_max":528,"o":"m 306 972 l 264 972 l 264 694 l 42 694 l 42 653 l 264 653 l 264 0 l 306 0 l 306 653 l 528 653 l 528 694 l 306 694 l 306 972 "},"‡":{"ha":569,"x_min":42,"x_max":528,"o":"m 306 972 l 264 972 l 264 694 l 42 694 l 42 653 l 264 653 l 264 319 l 42 319 l 42 278 l 264 278 l 264 0 l 306 0 l 306 278 l 528 278 l 528 319 l 306 319 l 306 653 l 528 653 l 528 694 l 306 694 l 306 972 "},"¢":{"ha":569,"x_min":42,"x_max":528,"o":"m 264 -14 l 306 -14 l 306 75 q 419 114 368 81 q 499 200 469 147 q 528 317 528 253 l 528 451 l 322 451 l 322 303 q 311 278 322 289 q 285 267 300 267 q 260 278 271 267 q 249 303 249 289 l 249 668 q 260 694 249 683 q 285 704 271 704 q 311 694 300 704 q 322 668 322 683 l 322 521 l 528 521 l 528 656 q 499 772 528 719 q 419 859 469 825 q 306 897 368 893 l 306 986 l 264 986 l 264 897 q 151 859 201 893 q 72 772 101 825 q 42 656 42 719 l 42 317 q 72 200 42 253 q 151 114 101 147 q 264 75 201 81 l 264 -14 "},"¤":{"ha":599,"x_min":42,"x_max":557,"o":"m 471 744 l 378 650 q 221 650 300 688 l 128 744 l 42 658 l 135 564 q 135 408 97 486 l 42 314 l 128 228 l 221 322 q 378 322 300 285 l 471 228 l 557 314 l 464 408 q 464 564 501 486 l 557 658 l 471 744 m 343 443 q 300 425 325 425 q 257 443 275 425 q 239 486 239 461 q 257 529 239 511 q 300 547 275 547 q 343 529 325 547 q 361 486 361 511 q 343 443 361 461 "},"$":{"ha":569,"x_min":42,"x_max":528,"o":"m 264 -14 l 306 -14 l 306 85 q 419 122 369 90 q 499 200 469 153 q 528 300 528 247 q 503 391 528 350 q 438 469 478 432 q 351 544 397 507 q 263 619 304 581 q 251 637 253 629 q 249 654 249 644 q 260 681 249 669 q 285 692 271 692 q 311 681 300 692 q 322 654 322 669 l 322 568 l 528 568 l 528 646 q 499 763 528 710 q 419 849 469 815 q 306 888 368 883 l 306 986 l 264 986 l 264 889 q 106 828 169 883 q 42 671 42 772 q 72 578 42 618 q 145 503 101 538 q 233 436 189 469 q 307 365 278 403 q 322 319 322 346 q 311 294 322 306 q 285 282 300 282 q 259 294 269 282 q 249 319 249 306 l 249 422 l 42 422 l 42 326 q 72 210 42 263 q 151 124 101 157 q 264 85 201 90 l 264 -14 "},"₫":{"ha":665,"x_min":42,"x_max":624,"o":"m 624 868 l 563 868 l 563 944 l 407 944 l 407 868 l 285 868 l 285 729 l 407 729 l 407 611 l 386 611 q 341 657 375 640 q 272 674 307 674 q 153 641 206 674 q 72 553 101 608 q 42 431 42 499 q 74 308 42 364 q 163 220 107 253 q 285 188 218 188 q 347 206 319 188 q 386 243 374 224 l 407 243 l 407 188 l 563 188 l 563 729 l 624 729 l 624 868 m 285 354 q 231 377 254 354 q 208 431 208 400 q 231 485 208 463 q 285 508 254 508 q 340 485 317 508 q 363 431 363 463 q 340 377 363 400 q 285 354 317 354 m 83 67 l 563 67 l 563 108 l 83 108 l 83 67 "},"€":{"ha":650,"x_min":42,"x_max":608,"o":"m 365 -14 q 488 19 432 -14 q 576 106 543 51 q 608 229 608 161 l 608 368 l 444 368 l 444 258 q 422 203 444 226 q 365 179 399 179 q 308 203 331 179 q 285 258 285 226 l 285 432 l 526 432 l 526 474 l 285 474 l 285 499 l 526 499 l 526 540 l 285 540 l 285 694 q 308 751 285 728 q 365 775 331 775 q 422 751 399 775 q 444 694 444 728 l 444 604 l 608 604 l 608 743 q 576 866 608 811 q 488 953 543 921 q 365 986 432 986 q 243 953 299 986 q 155 866 188 921 q 122 743 122 811 l 122 540 l 42 540 l 42 500 l 122 500 l 122 471 l 42 471 l 42 432 l 122 432 l 122 229 q 155 106 122 161 q 243 19 188 51 q 365 -14 299 -14 "},"£":{"ha":690,"x_min":42,"x_max":649,"o":"m 42 0 l 649 0 l 649 179 l 306 179 l 306 200 q 345 256 338 222 q 353 339 353 289 l 353 432 l 550 432 l 550 474 l 353 474 l 353 743 q 367 778 353 764 q 401 792 381 792 q 438 778 424 792 q 451 743 451 764 l 451 604 l 649 604 l 649 743 q 616 866 649 811 q 528 953 583 921 q 406 986 474 986 q 284 953 339 986 q 196 866 229 921 q 163 743 163 811 l 163 474 l 42 474 l 42 432 l 163 432 l 163 179 l 42 179 l 42 0 "},"¥":{"ha":569,"x_min":42,"x_max":528,"o":"m 182 0 l 389 0 l 389 307 l 525 307 l 525 349 l 389 349 l 389 390 l 525 390 l 525 432 l 389 432 l 528 951 l 528 972 l 322 972 l 294 611 l 276 611 l 249 972 l 42 972 l 42 951 l 182 432 l 46 432 l 46 390 l 182 390 l 182 349 l 46 349 l 46 307 l 182 307 l 182 0 "},"+":{"ha":813,"x_min":42,"x_max":771,"o":"m 386 122 l 428 122 l 428 465 l 771 465 l 771 507 l 428 507 l 428 851 l 386 851 l 386 507 l 42 507 l 42 465 l 386 465 l 386 122 "},"−":{"ha":813,"x_min":42,"x_max":771,"o":"m 42 465 l 771 465 l 771 507 l 42 507 l 42 465 "},"×":{"ha":813,"x_min":133,"x_max":679,"o":"m 135 243 l 164 213 l 407 456 l 649 213 l 679 243 l 436 485 l 679 729 l 650 758 l 407 515 l 163 758 l 133 729 l 376 485 l 135 243 "},"÷":{"ha":813,"x_min":42,"x_max":771,"o":"m 42 465 l 771 465 l 771 507 l 42 507 l 42 465 m 308 828 l 308 606 l 510 606 l 510 828 l 308 828 m 310 340 l 310 118 l 511 118 l 511 340 l 310 340 "},"=":{"ha":813,"x_min":42,"x_max":771,"o":"m 42 647 l 771 647 l 771 689 l 42 689 l 42 647 m 42 283 l 771 283 l 771 325 l 42 325 l 42 283 "},"≠":{"ha":813,"x_min":42,"x_max":771,"o":"m 544 1029 l 510 1029 l 432 689 l 42 689 l 42 647 l 424 647 l 350 325 l 42 325 l 42 283 l 340 283 l 267 -43 l 267 -64 l 301 -64 l 381 283 l 771 283 l 771 325 l 389 325 l 463 647 l 771 647 l 771 689 l 472 689 l 544 1008 l 544 1029 "},">":{"ha":813,"x_min":190,"x_max":624,"o":"m 221 83 l 624 486 l 221 889 l 190 860 l 564 493 l 564 479 l 192 114 l 221 83 "},"<":{"ha":813,"x_min":42,"x_max":475,"o":"m 444 83 l 474 114 l 101 479 l 101 493 l 475 860 l 444 889 l 42 486 l 444 83 "},"≥":{"ha":813,"x_min":164,"x_max":650,"o":"m 168 860 l 578 532 l 578 518 l 169 190 l 199 160 l 650 525 l 199 889 l 168 860 m 164 0 l 650 0 l 650 42 l 164 42 l 164 0 "},"≤":{"ha":813,"x_min":42,"x_max":528,"o":"m 524 860 l 493 889 l 42 525 l 493 160 l 522 190 l 114 518 l 114 532 l 524 860 m 528 0 l 528 42 l 42 42 l 42 0 l 528 0 "},"±":{"ha":813,"x_min":125,"x_max":688,"o":"m 426 889 l 385 889 l 385 546 l 125 546 l 125 504 l 385 504 l 385 217 l 426 217 l 426 504 l 688 504 l 688 546 l 426 546 l 426 889 m 125 0 l 688 0 l 688 42 l 125 42 l 125 0 "},"≈":{"ha":813,"x_min":42,"x_max":771,"o":"m 729 804 q 717 672 729 731 q 673 583 704 613 q 585 567 642 554 q 517 603 546 576 q 464 663 489 629 q 411 729 439 697 q 346 783 383 761 q 254 804 308 804 q 132 769 179 804 q 63 672 85 733 q 42 532 42 611 l 83 532 q 113 683 88 631 q 178 755 139 736 q 263 769 218 774 q 344 744 311 765 q 401 692 376 722 q 447 629 425 661 q 498 572 469 597 q 568 535 526 546 q 666 542 619 522 q 742 626 713 563 q 771 804 771 690 l 729 804 m 729 440 q 717 308 729 367 q 673 219 704 249 q 585 203 642 190 q 517 239 546 213 q 464 299 489 265 q 411 365 439 333 q 346 419 383 397 q 254 440 308 440 q 132 405 179 440 q 63 308 85 369 q 42 168 42 247 l 83 168 q 113 319 88 267 q 178 391 139 372 q 263 406 218 410 q 344 380 311 401 q 401 328 376 358 q 447 265 425 297 q 498 208 469 233 q 568 171 526 182 q 666 178 619 158 q 742 263 713 199 q 771 440 771 326 l 729 440 "},"~":{"ha":813,"x_min":42,"x_max":771,"o":"m 42 350 l 83 350 q 113 501 88 449 q 178 573 139 554 q 263 588 218 592 q 344 562 311 583 q 401 510 376 540 q 447 447 425 479 q 498 390 469 415 q 568 353 526 364 q 666 360 619 340 q 742 444 713 381 q 771 622 771 508 l 729 622 q 717 490 729 549 q 673 401 704 431 q 585 385 642 372 q 517 421 546 394 q 464 481 489 447 q 411 547 439 515 q 346 601 383 579 q 254 622 308 622 q 132 587 179 622 q 63 490 85 551 q 42 350 42 429 "},"¬":{"ha":813,"x_min":164,"x_max":650,"o":"m 164 625 l 608 625 l 608 365 l 650 365 l 650 667 l 164 667 l 164 625 "},"^":{"ha":813,"x_min":164,"x_max":650,"o":"m 164 608 l 219 608 l 401 890 l 414 890 l 594 608 l 650 608 l 407 972 l 164 608 "},"∅":{"ha":975,"x_min":42,"x_max":933,"o":"m 699 935 l 729 1008 l 729 1029 l 694 1029 l 663 953 q 580 977 624 968 q 488 986 536 986 q 249 920 349 986 q 95 741 149 854 q 42 486 42 628 q 103 215 42 335 q 279 35 165 94 l 247 -43 l 247 -64 l 282 -64 l 317 18 q 488 -14 393 -14 q 726 52 626 -14 q 879 231 825 118 q 933 486 933 344 q 872 756 933 636 q 699 935 810 875 m 83 483 q 131 720 83 617 q 269 883 178 824 q 490 942 360 942 q 646 914 575 942 l 296 74 q 138 233 192 126 q 83 483 83 340 m 490 31 q 408 38 447 31 q 332 57 368 44 l 683 897 q 838 733 785 843 q 892 483 892 624 q 845 251 892 353 q 709 90 799 149 q 490 31 619 31 "},"∞":{"ha":692,"x_min":42,"x_max":650,"o":"m 499 694 q 408 665 447 694 q 353 588 368 635 l 339 588 q 285 665 325 635 q 194 694 246 694 q 86 650 131 694 q 42 542 42 606 l 42 440 q 86 333 42 378 q 194 289 131 289 q 285 319 246 289 q 339 394 325 349 l 353 394 q 408 319 368 349 q 499 289 447 289 q 606 333 561 289 q 650 440 650 378 l 650 542 q 606 650 650 606 q 499 694 561 694 m 522 547 l 522 435 q 515 418 522 425 q 499 411 508 411 q 474 435 474 411 l 474 547 q 481 565 474 558 q 499 572 489 572 q 515 565 508 572 q 522 547 522 558 m 218 547 l 218 435 q 211 418 218 425 q 194 411 204 411 q 177 418 185 411 q 169 435 169 425 l 169 547 q 177 565 169 558 q 194 572 185 572 q 211 565 204 572 q 218 547 218 558 "},"∫":{"ha":489,"x_min":42,"x_max":447,"o":"m 243 729 l 243 243 q 194 92 243 143 q 42 42 146 42 l 42 0 q 215 61 146 0 q 285 243 285 122 l 285 729 q 305 831 285 785 q 362 904 325 876 q 447 932 399 932 l 447 972 q 339 937 385 972 q 268 846 293 901 q 243 729 243 790 "},"∏":{"ha":690,"x_min":42,"x_max":649,"o":"m 42 931 l 193 931 l 193 -14 l 235 -14 l 235 931 l 456 931 l 456 -14 l 497 -14 l 497 931 l 649 931 l 649 972 l 42 972 l 42 931 "},"∑":{"ha":569,"x_min":42,"x_max":528,"o":"m 42 903 l 438 489 l 438 482 l 42 69 l 42 0 l 528 0 l 528 42 l 89 42 l 89 56 l 493 471 l 493 500 l 89 917 l 89 931 l 528 931 l 528 972 l 42 972 l 42 903 "},"√":{"ha":726,"x_min":42,"x_max":685,"o":"m 196 47 l 90 365 l 42 365 l 163 0 l 250 0 l 490 931 l 685 931 l 685 972 l 456 972 l 217 47 l 196 47 "},"∂":{"ha":569,"x_min":42,"x_max":528,"o":"m 285 -14 q 408 19 353 -14 q 495 106 463 51 q 528 229 528 161 l 528 743 q 495 866 528 811 q 408 953 463 921 q 285 986 353 986 q 163 953 218 986 q 75 865 108 919 q 42 742 42 810 l 42 694 l 250 694 l 250 756 q 260 781 250 771 q 285 792 271 792 q 310 781 300 792 q 321 756 321 771 l 321 583 l 300 583 q 260 610 285 603 q 212 618 236 618 q 172 613 188 618 q 96 568 122 597 q 58 503 69 539 q 44 432 46 468 q 42 365 42 396 l 42 229 q 75 106 42 161 q 163 19 108 51 q 285 -14 218 -14 m 285 179 q 260 190 271 179 q 250 214 250 200 l 250 397 q 260 422 250 413 q 285 432 271 432 q 310 422 300 432 q 321 397 321 413 l 321 214 q 310 190 321 200 q 285 179 300 179 "},"%":{"ha":825,"x_min":42,"x_max":783,"o":"m 269 -64 l 304 -64 l 547 1008 l 547 1029 l 513 1029 l 269 -43 l 269 -64 m 194 567 q 301 611 257 567 q 346 719 346 656 l 346 821 q 301 928 346 883 q 194 972 257 972 q 86 928 131 972 q 42 821 42 883 l 42 719 q 86 611 42 656 q 194 567 131 567 m 194 688 q 177 695 185 688 q 169 713 169 703 l 169 826 q 177 844 169 838 q 194 851 185 851 q 211 844 204 851 q 218 826 218 838 l 218 713 q 211 695 218 703 q 194 688 204 688 m 632 0 q 739 44 694 0 q 783 151 783 89 l 783 253 q 739 361 783 317 q 632 406 694 406 q 524 361 568 406 q 479 253 479 317 l 479 151 q 524 44 479 89 q 632 0 568 0 m 632 122 q 615 129 622 122 q 607 146 607 136 l 607 258 q 615 276 607 269 q 632 283 622 283 q 649 276 642 283 q 656 258 656 269 l 656 146 q 649 129 656 136 q 632 122 642 122 "},"‰":{"ha":1129,"x_min":42,"x_max":1088,"o":"m 269 -64 l 304 -64 l 547 1008 l 547 1029 l 513 1029 l 269 -43 l 269 -64 m 346 719 l 346 821 q 301 928 346 883 q 194 972 257 972 q 86 928 131 972 q 42 821 42 883 l 42 719 q 86 611 42 656 q 194 567 131 567 q 301 611 257 567 q 346 719 346 656 m 169 713 l 169 826 q 177 844 169 838 q 194 851 185 851 q 211 844 204 851 q 218 826 218 838 l 218 713 q 211 695 218 703 q 194 688 204 688 q 177 695 185 688 q 169 713 169 703 m 936 406 q 845 376 885 406 q 790 299 806 346 l 776 299 q 723 376 763 346 q 632 406 683 406 q 524 361 568 406 q 479 253 479 317 l 479 151 q 524 44 479 89 q 632 0 568 0 q 723 30 683 0 q 776 106 763 60 l 790 106 q 845 30 806 60 q 936 0 885 0 q 1043 44 999 0 q 1088 151 1088 89 l 1088 253 q 1043 361 1088 317 q 936 406 999 406 m 960 258 l 960 146 q 953 129 960 136 q 936 122 946 122 q 911 146 911 122 l 911 258 q 919 276 911 269 q 936 283 926 283 q 953 276 946 283 q 960 258 960 269 m 656 258 l 656 146 q 649 129 656 136 q 632 122 642 122 q 615 129 622 122 q 607 146 607 136 l 607 258 q 615 276 607 269 q 632 283 622 283 q 649 276 642 283 q 656 258 656 269 "},"↑":{"ha":889,"x_min":42,"x_max":847,"o":"m 42 519 l 306 519 l 306 117 l 583 117 l 583 519 l 847 519 l 444 856 l 42 519 "},"↗":{"ha":751,"x_min":42,"x_max":710,"o":"m 140 821 l 326 633 l 42 349 l 238 153 l 522 438 l 710 251 l 663 774 l 140 821 "},"→":{"ha":822,"x_min":42,"x_max":781,"o":"m 444 889 l 444 625 l 42 625 l 42 347 l 444 347 l 444 83 l 781 486 l 444 889 "},"↘":{"ha":751,"x_min":42,"x_max":710,"o":"m 710 721 l 522 535 l 238 819 l 42 624 l 326 339 l 140 151 l 663 199 l 710 721 "},"↓":{"ha":889,"x_min":42,"x_max":847,"o":"m 42 453 l 444 117 l 847 453 l 583 453 l 583 856 l 306 856 l 306 453 l 42 453 "},"↙":{"ha":751,"x_min":42,"x_max":710,"o":"m 611 151 l 425 339 l 710 624 l 514 819 l 229 535 l 42 721 l 89 199 l 611 151 "},"←":{"ha":822,"x_min":42,"x_max":781,"o":"m 378 83 l 378 347 l 781 347 l 781 625 l 378 625 l 378 889 l 42 486 l 378 83 "},"↖":{"ha":751,"x_min":42,"x_max":710,"o":"m 42 203 l 229 389 l 514 104 l 710 300 l 425 585 l 611 772 l 89 725 l 42 203 "},"↔":{"ha":1144,"x_min":42,"x_max":1103,"o":"m 1103 486 l 767 889 l 767 625 l 378 625 l 378 889 l 42 486 l 378 83 l 378 347 l 767 347 l 767 83 l 1103 486 "},"↕":{"ha":889,"x_min":42,"x_max":847,"o":"m 444 -44 l 847 292 l 583 292 l 583 681 l 847 681 l 444 1017 l 42 681 l 306 681 l 306 292 l 42 292 l 444 -44 "},"◊":{"ha":690,"x_min":42,"x_max":649,"o":"m 331 972 l 42 486 l 331 0 l 360 0 l 649 486 l 360 972 l 331 972 "},"̈":{"ha":0,"x_min":61,"x_max":397,"o":"m 61 1201 l 61 1057 l 192 1057 l 192 1201 l 61 1201 m 267 1201 l 267 1057 l 397 1057 l 397 1201 l 267 1201 "},"̇":{"ha":0,"x_min":61,"x_max":192,"o":"m 61 1201 l 61 1057 l 192 1057 l 192 1201 l 61 1201 "},"̀":{"ha":0,"x_min":42,"x_max":544,"o":"m 544 1115 l 53 1206 l 42 1146 l 533 1056 l 544 1115 "},"́":{"ha":0,"x_min":42,"x_max":544,"o":"m 42 1115 l 53 1056 l 544 1146 l 533 1206 l 42 1115 "},"̋":{"ha":0,"x_min":42,"x_max":458,"o":"m 42 1088 l 89 1056 l 274 1286 l 225 1318 l 42 1088 m 226 1088 l 274 1056 l 458 1286 l 410 1318 l 226 1088 "},"̂":{"ha":0,"x_min":125,"x_max":717,"o":"m 154 1056 l 407 1183 l 435 1183 l 688 1056 l 717 1108 l 421 1257 l 125 1108 l 154 1056 "},"̌":{"ha":0,"x_min":125,"x_max":717,"o":"m 154 1225 l 125 1172 l 421 1024 l 717 1172 l 688 1225 l 435 1097 l 407 1097 l 154 1225 "},"̆":{"ha":0,"x_min":125,"x_max":653,"o":"m 389 1028 q 522 1049 463 1028 q 617 1105 582 1069 q 653 1182 653 1140 l 582 1182 q 524 1113 576 1139 q 389 1086 472 1086 q 255 1113 308 1086 q 194 1182 201 1139 l 125 1182 q 160 1105 125 1140 q 256 1049 196 1069 q 389 1028 317 1028 "},"̊":{"ha":0,"x_min":42,"x_max":272,"o":"m 157 1056 q 239 1090 206 1056 q 272 1171 272 1124 q 239 1253 272 1219 q 157 1286 206 1286 q 76 1253 110 1286 q 42 1171 42 1219 q 76 1090 42 1124 q 157 1056 110 1056 m 156 1104 q 109 1123 128 1104 q 90 1169 90 1142 q 109 1219 90 1200 q 156 1238 128 1238 q 205 1219 186 1238 q 224 1169 224 1200 q 205 1123 224 1142 q 156 1104 186 1104 "},"̃":{"ha":0,"x_min":47,"x_max":564,"o":"m 47 1094 l 111 1094 q 134 1158 114 1129 q 197 1189 154 1186 q 265 1170 233 1192 q 333 1125 297 1149 q 417 1094 369 1101 q 525 1119 486 1085 q 564 1229 564 1153 l 500 1229 q 493 1183 500 1204 q 467 1152 486 1161 q 408 1156 447 1143 q 343 1190 375 1168 q 274 1231 311 1213 q 189 1244 238 1249 q 103 1214 135 1240 q 60 1153 72 1188 q 47 1094 47 1119 "},"̄":{"ha":0,"x_min":125,"x_max":688,"o":"m 125 1056 l 688 1056 l 688 1117 l 125 1117 l 125 1056 "},"̉":{"ha":0,"x_min":0,"x_max":324,"o":"m 124 1097 l 200 1097 q 219 1128 200 1121 q 262 1142 238 1136 q 305 1165 286 1149 q 324 1219 324 1181 q 277 1299 324 1269 q 163 1328 231 1328 q 47 1299 94 1328 q 0 1219 0 1269 l 0 1206 l 69 1206 l 69 1217 q 101 1256 69 1246 q 163 1265 133 1265 q 222 1256 190 1265 q 254 1219 254 1247 q 235 1191 254 1199 q 189 1176 215 1183 q 143 1151 163 1168 q 124 1097 124 1135 "},"̒":{"ha":0,"x_min":96,"x_max":207,"o":"m 207 1432 l 151 1432 l 96 1182 l 96 1056 l 207 1056 l 207 1432 "},"̛":{"ha":0,"x_min":42,"x_max":236,"o":"m 42 682 q 146 711 107 682 q 204 786 185 740 q 230 882 224 832 q 236 972 236 932 l 111 972 q 105 886 111 928 q 83 818 99 844 q 42 792 68 792 l 42 682 "},"̣":{"ha":0,"x_min":42,"x_max":264,"o":"m 42 -64 l 42 -190 l 264 -190 l 264 -64 l 42 -64 "},"̦":{"ha":0,"x_min":42,"x_max":108,"o":"m 42 -236 l 83 -236 l 108 -78 l 108 -64 l 42 -64 l 42 -236 "},"̧":{"ha":0,"x_min":38,"x_max":236,"o":"m 131 0 q 143 -58 131 -37 q 169 -90 156 -78 q 188 -122 183 -103 q 180 -164 193 -146 q 142 -182 167 -182 q 95 -158 111 -182 q 93 -87 79 -135 l 50 -82 q 46 -153 38 -118 q 79 -210 54 -187 q 142 -232 104 -232 q 211 -201 186 -232 q 236 -139 236 -171 q 227 -94 236 -111 q 206 -65 218 -78 q 184 -38 193 -53 q 175 0 175 -24 l 131 0 "},"̨":{"ha":0,"x_min":42,"x_max":242,"o":"m 147 0 l 103 0 q 94 -38 103 -24 q 72 -65 85 -53 q 51 -94 60 -78 q 42 -139 42 -111 q 67 -201 42 -171 q 136 -232 92 -232 q 199 -210 174 -232 q 233 -153 224 -187 q 228 -82 242 -118 l 185 -87 q 183 -158 200 -135 q 136 -182 167 -182 q 98 -164 111 -182 q 90 -122 85 -146 q 108 -90 94 -103 q 135 -58 122 -78 q 147 0 147 -37 "},"¨":{"ha":451,"x_min":61,"x_max":397,"o":"m 61 1201 l 61 1057 l 192 1057 l 192 1201 l 61 1201 m 267 1201 l 267 1057 l 397 1057 l 397 1201 l 267 1201 "},"˙":{"ha":246,"x_min":61,"x_max":192,"o":"m 61 1201 l 61 1057 l 192 1057 l 192 1201 l 61 1201 "},"`":{"ha":586,"x_min":42,"x_max":544,"o":"m 544 1115 l 53 1206 l 42 1146 l 533 1056 l 544 1115 "},"´":{"ha":586,"x_min":42,"x_max":544,"o":"m 42 1115 l 53 1056 l 544 1146 l 533 1206 l 42 1115 "},"˝":{"ha":739,"x_min":42,"x_max":458,"o":"m 42 1088 l 89 1056 l 274 1286 l 225 1318 l 42 1088 m 226 1088 l 274 1056 l 458 1286 l 410 1318 l 226 1088 "},"ˆ":{"ha":842,"x_min":125,"x_max":717,"o":"m 154 1111 l 407 1239 l 435 1239 l 688 1111 l 717 1164 l 421 1313 l 125 1164 l 154 1111 "},"ˇ":{"ha":842,"x_min":125,"x_max":717,"o":"m 154 1225 l 125 1172 l 421 1024 l 717 1172 l 688 1225 l 435 1097 l 407 1097 l 154 1225 "}}}
